SplineFontDB: 1.0
FontName: DBThaiText
FullName: DBThaiText
FamilyName: DBThaiText
Weight: Medium
Copyright: Typeface (c) The Monotype Corporation plc. Data (c) The Monotype Corporation plc/Type Solutions Inc. 1990-1992. All Rights Reserved\n\nModified by TLWG
Version: 1.1 : May 12, 2003
ItalicAngle: 0
UnderlinePosition: -477
UnderlineWidth: 84
Ascent: 1638
Descent: 410
NeedsXUIDChange: 1
FSType: 0
PfmFamily: 33
TTFWeight: 500
TTFWidth: 5
Panose: 2 0 6 3 0 0 0 0 0 0
LineGap: 184
VLineGap: 0
LangName: 1033 "" "" "" "PfaEdit : DBThaiText : 13-0-2003" 
Encoding: compacted
OldEncoding: iso8859_1
DisplaySize: -72
AntiAlias: 1
WinInfo: 0 8 2
BeginPrivate: 2
BlueValues 38 [-32 10 0 0 745 783 786 802 1011 1030]
OtherBlues 11 [-271 -269]
EndPrivate
BeginChars: 290 257
StartChar: .notdef
Encoding: 0 -1
OldEncoding: 0
Width: 1090
Flags: W
HStem: 1746.29 143.51<235 797>
VStem: 76.9502 145.77<105 1739> 801.28 145.77<105 1739>
Fore
76.9502 -53.7998 m 1
 76.9502 1889.8 l 1
 947.05 1889.8 l 1
 947.05 -53.7998 l 1
 76.9502 -53.7998 l 1
222.72 89.71 m 1
 801.28 89.71 l 1
 801.28 1746.29 l 1
 222.72 1746.29 l 1
 222.72 89.71 l 1
EndSplineSet
MinimumDistance: x2,-1 
EndChar
StartChar: exclam
Encoding: 33 33
OldEncoding: 33
Width: 359
Flags: W
HStem: -0.174805 21G<145.24 262.76> 991.17 20G<145.24 262.76>
VStem: 145.24 117.52<14 128 512 1008>
Fore
232.25 231.475 m 1
 174.62 231.475 l 1
 145.24 513.975 l 1
 145.24 1011.17 l 1
 262.76 1011.17 l 1
 262.76 513.975 l 1
 232.25 231.475 l 1
145.24 143.335 m 1
 262.76 143.335 l 1
 262.76 -0.174805 l 1
 145.24 -0.174805 l 1
 145.24 143.335 l 1
EndSplineSet
MinimumDistance: x4,-1 
EndChar
StartChar: quotedbl
Encoding: 34 34
OldEncoding: 34
Width: 464
Flags: W
Fore
196.79 821.655 m 0
 196.79 757.621 178.334 708.278 141.42 673.625 c 0
 104.506 641.231 63.4502 620.892 18.25 612.605 c 1
 -3.59668 612.605 -14.5195 616.749 -14.5195 625.035 c 0
 -14.5195 628.049 -12.2598 631.815 -7.74023 636.335 c 1
 8.08008 641.608 32.9404 654.791 66.8398 675.885 c 0
 96.2197 693.211 113.17 716.941 117.69 747.075 c 1
 99.6104 742.555 l 1
 73.6201 738.035 l 1
 11.8467 744.815 -19.04 777.209 -19.04 835.215 c 0
 -19.04 862.335 -10.377 885.312 6.9502 904.145 c 0
 22.7695 922.979 45.7471 932.395 75.8799 932.395 c 0
 154.227 932.395 194.53 895.481 196.79 821.655 c 0
451.04 821.655 m 0
 451.04 756.869 432.584 707.525 395.67 673.625 c 0
 358.756 641.231 317.7 620.892 272.5 612.605 c 1
 251.406 612.605 240.86 616.749 240.86 625.035 c 0
 240.86 628.049 243.12 631.815 247.64 636.335 c 1
 264.966 642.361 289.45 655.545 321.09 675.885 c 0
 350.47 693.211 367.42 716.941 371.94 747.075 c 1
 353.86 742.555 l 1
 327.87 738.035 l 1
 266.097 744.815 235.21 777.209 235.21 835.215 c 0
 235.21 861.581 243.874 884.559 261.2 904.145 c 0
 277.02 922.979 299.996 932.395 330.13 932.395 c 0
 408.477 932.395 448.78 895.481 451.04 821.655 c 0
EndSplineSet
EndChar
StartChar: numbersign
Encoding: 35 35
OldEncoding: 35
Width: 728
Flags: W
HStem: -24.3945 21G<61.8896 165.85 342.13 446.09> 267.145 111.87<-12 102 243 390 532 646> 591.455 110.74<36 167 308 448 596 694>
DStem: 112.74 267.145 222.35 267.145 61.8896 -24.3945 165.85 -24.3945 173.76 591.455 279.98 591.455 134.21 379.015 242.69 379.015 242.69 973.395 348.91 973.395 191.84 702.195 298.06 702.195 392.98 267.145 499.2 267.145 342.13 -24.3945 446.09 -24.3945 450.61 591.455 560.22 591.455 414.45 379.015 522.93 379.015 520.67 973.395 629.15 973.395 472.08 702.195 580.56 702.195
Fore
242.69 973.395 m 1
 348.91 973.395 l 1
 298.06 702.195 l 1
 472.08 702.195 l 1
 520.67 973.395 l 1
 629.15 973.395 l 1
 580.56 702.195 l 1
 708.25 702.195 l 1
 708.25 591.455 l 1
 560.22 591.455 l 1
 522.93 379.015 l 1
 661.92 379.015 l 1
 661.92 267.145 l 1
 499.2 267.145 l 1
 446.09 -24.3945 l 1
 342.13 -24.3945 l 1
 392.98 267.145 l 1
 222.35 267.145 l 1
 165.85 -24.3945 l 1
 61.8896 -24.3945 l 1
 112.74 267.145 l 1
 -26.25 267.145 l 1
 -26.25 379.015 l 1
 134.21 379.015 l 1
 173.76 591.455 l 1
 26.8604 591.455 l 1
 26.8604 702.195 l 1
 191.84 702.195 l 1
 242.69 973.395 l 1
279.98 591.455 m 1
 242.69 379.015 l 1
 414.45 379.015 l 1
 450.61 591.455 l 1
 279.98 591.455 l 1
EndSplineSet
MinimumDistance: x5,-1 
EndChar
StartChar: dollar
Encoding: 36 36
OldEncoding: 36
Width: 728
Flags: W
VStem: 293.8 83.62<-153 -27 74 427 583 889 1001 1065> 557.09 118.65<247 281>
Fore
645.23 728.59 m 1
 534.49 728.59 l 1
 532.23 782.076 519.046 821.25 494.94 846.11 c 1
 469.326 882.27 430.153 900.35 377.42 900.35 c 1
 377.42 559.09 l 1
 454.26 537.244 508.124 518.786 539.01 503.72 c 1
 572.156 490.914 603.796 464.924 633.93 425.75 c 1
 661.804 386.576 675.74 333.844 675.74 267.55 c 0
 675.74 195.983 652.387 134.586 605.68 83.3604 c 0
 558.974 30.627 508.124 -0.259766 453.13 -9.2998 c 2
 377.42 -23.9902 l 1
 377.42 -167.5 l 1
 293.8 -167.5 l 1
 293.8 -26.25 l 1
 232.026 -12.6904 186.45 -1.01367 157.07 8.78027 c 0
 121.664 21.5869 87.0098 50.9668 53.1104 96.9199 c 1
 19.21 139.86 2.25977 206.153 2.25977 295.8 c 1
 108.48 295.8 l 1
 113 254.366 119.403 220.466 127.69 194.1 c 0
 134.47 167.733 150.666 142.874 176.28 119.52 c 1
 200.387 99.9336 239.56 83.7363 293.8 70.9297 c 1
 293.8 448.35 l 1
 214.7 474.34 l 2
 185.32 483.38 159.33 494.68 136.73 508.24 c 1
 117.896 517.28 97.5566 531.97 75.71 552.31 c 1
 40.3037 598.264 22.5996 664.557 22.5996 751.19 c 1
 32.3936 831.796 61.7734 892.063 110.74 931.99 c 0
 158.2 970.41 219.22 993.764 293.8 1002.05 c 1
 293.8 1075.5 l 1
 377.42 1075.5 l 1
 377.42 1002.05 l 1
 455.767 993.764 519.046 968.903 567.26 927.47 c 0
 598.146 901.856 618.863 870.97 629.41 834.81 c 0
 639.956 797.896 645.23 762.49 645.23 728.59 c 1
293.8 571.52 m 1
 293.8 902.61 l 1
 251.613 900.35 214.7 885.66 183.06 858.54 c 1
 147.653 825.394 129.95 790.74 129.95 754.58 c 0
 127.69 707.874 142.38 667.57 174.02 633.67 c 0
 203.4 601.276 243.326 580.56 293.8 571.52 c 1
377.42 434.79 m 1
 377.42 73.1904 l 1
 400.02 75.4502 424.504 82.6064 450.87 94.6602 c 1
 477.99 104.453 502.85 123.664 525.45 152.29 c 0
 546.544 181.67 557.09 219.336 557.09 265.29 c 0
 557.09 320.283 540.894 358.326 508.5 379.42 c 0
 479.12 399.006 435.427 417.464 377.42 434.79 c 1
EndSplineSet
MinimumDistance: x7,-1 
EndChar
StartChar: percent
Encoding: 37 37
OldEncoding: 37
Width: 1161
Flags: W
HStem: -25.1748 97.1797<867 897> 352.245 97.18<867 897> 479.935 97.18<191 225> 857.355 97.18<191 225>
VStem: -31.2998 97.1797<709 727> 348.38 97.18<709 727> 646.7 97.18<197 231> 1024.12 97.1801<197 231>
DStem: 774.39 986.175 868.18 986.175 225.21 -25.1748 320.13 -25.1748
Fore
774.39 986.175 m 1
 868.18 986.175 l 1
 320.13 -25.1748 l 1
 225.21 -25.1748 l 1
 774.39 986.175 l 1
-31.2998 716.105 m 0
 -31.2998 782.398 -8.32324 838.521 37.6299 884.475 c 0
 86.5967 931.182 143.097 954.535 207.13 954.535 c 0
 272.67 954.535 328.794 931.182 375.5 884.475 c 0
 422.206 837.769 445.56 781.645 445.56 716.105 c 0
 445.56 650.565 421.454 594.818 373.24 548.865 c 0
 327.286 502.911 271.916 479.935 207.13 479.935 c 0
 143.85 479.935 88.1035 502.911 39.8896 548.865 c 0
 -7.57031 594.065 -31.2998 649.812 -31.2998 716.105 c 0
646.7 213.255 m 0
 646.7 278.795 669.677 334.541 715.63 380.495 c 0
 761.584 426.448 818.084 449.425 885.13 449.425 c 0
 928.07 449.425 967.244 438.879 1002.65 417.785 c 0
 1040.32 395.938 1068.95 367.312 1088.53 331.905 c 0
 1110.37 294.238 1121.3 254.688 1121.3 213.255 c 0
 1121.3 147.715 1097.94 91.5918 1051.24 44.8848 c 0
 1004.53 -1.82129 949.164 -25.1748 885.13 -25.1748 c 0
 821.097 -25.1748 764.597 -1.82129 715.63 44.8848 c 0
 669.677 90.8379 646.7 146.961 646.7 213.255 c 0
65.8799 716.105 m 0
 65.8799 676.179 79.8164 643.785 107.69 618.925 c 1
 134.81 591.051 167.956 577.115 207.13 577.115 c 0
 247.057 577.115 280.956 591.051 308.83 618.925 c 0
 335.196 645.291 348.38 677.685 348.38 716.105 c 0
 348.38 742.472 341.977 766.201 329.17 787.295 c 0
 317.116 809.142 300.166 826.092 278.32 838.145 c 0
 257.227 850.951 233.496 857.355 207.13 857.355 c 0
 167.204 857.355 134.057 844.171 107.69 817.805 c 0
 79.8164 789.932 65.8799 756.031 65.8799 716.105 c 0
743.88 213.255 m 0
 743.88 172.575 757.816 139.429 785.69 113.815 c 1
 813.563 85.9414 846.71 72.0049 885.13 72.0049 c 0
 922.044 72.0049 955.19 85.9414 984.57 113.815 c 1
 1010.94 141.688 1024.12 174.835 1024.12 213.255 c 0
 1024.12 252.429 1010.18 284.821 982.31 310.435 c 0
 954.437 338.309 922.044 352.245 885.13 352.245 c 0
 845.956 352.245 812.81 338.309 785.69 310.435 c 1
 757.816 285.575 743.88 253.182 743.88 213.255 c 0
EndSplineSet
MinimumDistance: x17,-1 
EndChar
StartChar: ampersand
Encoding: 38 38
OldEncoding: 38
Width: 870
Flags: W
HStem: -29.5654 111.87<293 321> 3.20508 21G<676.2 828.75> 891.385 97.18<351 370>
VStem: 481.84 116.39<769 787>
DStem: 303.3 468.765 403.87 528.655 525.91 190.785 585.8 303.785 590.32 104.905 658.12 213.385 676.2 3.20508 828.75 3.20508
Fore
828.75 3.20508 m 1
 676.2 3.20508 l 1
 590.32 104.905 l 1
 558.68 77.7852 l 1
 547.38 66.4854 531.184 53.3018 510.09 38.2354 c 0
 493.517 25.4287 474.307 12.998 452.46 0.945312 c 1
 395.96 -19.3945 343.227 -29.5654 294.26 -29.5654 c 0
 239.267 -29.5654 190.677 -17.1348 148.49 7.72461 c 0
 63.3633 56.6914 19.293 130.142 16.2803 228.075 c 0
 14.0195 289.095 26.4502 342.205 53.5703 387.405 c 0
 81.4434 432.605 118.733 470.271 165.44 500.405 c 2
 236.63 548.995 l 1
 190.3 616.795 l 2
 150.374 674.801 130.41 726.405 130.41 771.605 c 0
 130.41 846.938 163.557 906.451 229.85 950.145 c 0
 269.023 975.759 315.354 988.565 368.84 988.565 c 0
 431.366 988.565 483.724 968.602 525.91 928.675 c 0
 574.124 882.722 598.23 831.119 598.23 773.865 c 0
 598.23 734.691 586.554 697.778 563.2 663.125 c 0
 537.586 622.445 508.96 593.065 477.32 574.985 c 1
 403.87 528.655 l 1
 585.8 303.785 l 1
 615.18 361.791 629.87 416.031 629.87 466.505 c 1
 741.74 466.505 l 1
 741.74 434.865 733.076 392.302 715.75 338.815 c 0
 699.93 289.849 680.72 248.039 658.12 213.385 c 1
 828.75 3.20508 l 1
468.28 833.755 m 0
 462.254 851.835 449.07 865.771 428.73 875.565 c 1
 412.156 886.111 389.934 891.385 362.06 891.385 c 0
 332.68 891.385 307.82 883.852 287.48 868.785 c 0
 267.894 853.719 254.71 831.495 247.93 802.115 c 1
 247.93 755.408 253.58 723.769 264.88 707.195 c 0
 272.414 694.389 296.896 663.501 338.33 614.535 c 1
 371.477 626.589 403.116 645.799 433.25 672.165 c 0
 465.644 699.285 481.84 733.185 481.84 773.865 c 0
 481.84 793.451 477.32 813.415 468.28 833.755 c 0
525.91 190.785 m 1
 303.3 468.765 l 1
 252.45 435.995 l 2
 238.89 426.955 220.434 411.512 197.08 389.665 c 1
 179.754 370.079 165.063 347.102 153.01 320.735 c 0
 140.956 290.602 134.93 260.469 134.93 230.335 c 1
 139.45 200.201 157.153 167.809 188.04 133.155 c 0
 217.42 99.2549 259.983 82.3047 315.73 82.3047 c 0
 350.384 82.3047 382.776 89.085 412.91 102.645 c 0
 440.03 113.191 477.696 142.571 525.91 190.785 c 1
EndSplineSet
MinimumDistance: x0,-1 
EndChar
StartChar: quotesingle
Encoding: 39 39
OldEncoding: 39
Width: 249
Flags: W
Fore
231.35 821.655 m 0
 231.35 756.869 212.894 707.525 175.98 673.625 c 0
 139.066 641.231 98.0098 620.892 52.8096 612.605 c 1
 31.7168 612.605 21.1699 616.749 21.1699 625.035 c 0
 21.1699 628.049 23.4297 631.815 27.9502 636.335 c 1
 45.2764 642.361 69.7598 655.545 101.4 675.885 c 0
 130.026 693.211 147.354 716.941 153.38 747.075 c 1
 134.17 742.555 l 1
 109.31 738.035 l 1
 47.5371 744.815 16.6504 777.209 16.6504 835.215 c 0
 16.6504 862.335 24.9365 885.312 41.5098 904.145 c 0
 58.083 922.979 81.4365 932.395 111.57 932.395 c 0
 189.164 932.395 229.09 895.481 231.35 821.655 c 0
EndSplineSet
EndChar
StartChar: parenleft
Encoding: 40 40
OldEncoding: 40
Width: 433
Flags: W
HStem: 1008.21 20G<297.45 375.42>
VStem: 72.5801 116.39<343 409>
Fore
297.45 1028.21 m 1
 375.42 1028.21 l 1
 306.866 912.191 259.03 799.568 231.91 690.335 c 0
 203.284 580.349 188.97 475.259 188.97 375.065 c 0
 188.97 277.131 203.284 173.171 231.91 63.1846 c 0
 260.536 -51.3213 308.374 -165.451 375.42 -279.205 c 1
 297.45 -279.205 l 1
 268.07 -239.278 238.69 -191.441 209.31 -135.695 c 0
 181.437 -85.2217 156.576 -29.8516 134.73 30.415 c 0
 119.664 74.8613 104.22 134.375 88.4004 208.955 c 0
 77.8535 264.701 72.5801 320.071 72.5801 375.065 c 0
 72.5801 446.631 82.75 523.849 103.09 606.715 c 0
 124.184 691.842 150.927 768.305 183.32 836.105 c 0
 220.233 913.699 258.276 977.731 297.45 1028.21 c 1
EndSplineSet
MinimumDistance: x3,-1 
EndChar
StartChar: parenright
Encoding: 41 41
OldEncoding: 41
Width: 438
Flags: W
HStem: 1008.21 20G<29.5801 106.42>
VStem: 217.16 115.26<343 409>
Fore
29.5801 1028.21 m 1
 106.42 1028.21 l 1
 144.84 977.731 183.26 913.699 221.68 836.105 c 0
 251.06 777.345 278.18 700.129 303.04 604.455 c 0
 322.626 526.861 332.42 450.398 332.42 375.065 c 0
 332.42 298.225 322.626 222.139 303.04 146.805 c 0
 278.934 54.8984 251.813 -21.5654 221.68 -82.585 c 0
 181 -166.205 142.58 -231.745 106.42 -279.205 c 1
 29.5801 -279.205 l 1
 76.2871 -202.365 113.2 -123.642 140.32 -43.0352 c 1
 168.193 32.2988 188.534 106.125 201.34 178.445 c 0
 211.887 246.245 217.16 311.785 217.16 375.065 c 0
 217.16 427.799 214.146 475.635 208.12 518.575 c 0
 201.34 564.528 191.17 616.509 177.61 674.515 c 0
 161.79 737.041 142.58 796.179 119.98 851.925 c 0
 91.3535 917.465 61.2197 976.225 29.5801 1028.21 c 1
EndSplineSet
MinimumDistance: x4,-1 
EndChar
StartChar: asterisk
Encoding: 42 42
OldEncoding: 42
Width: 508
Flags: W
DStem: 172.785 764.01 236.065 719.94 77.8652 640.84 145.665 592.25 191.995 990.01 276.745 990.01 196.515 835.2 272.225 835.2
Fore
24.7549 808.08 m 1
 50.7451 888.31 l 1
 196.515 835.2 l 1
 191.995 990.01 l 1
 276.745 990.01 l 1
 272.225 835.2 l 1
 415.735 886.05 l 1
 446.245 800.17 l 1
 295.955 764.01 l 1
 388.615 638.58 l 1
 320.815 589.99 l 1
 236.065 719.94 l 1
 145.665 592.25 l 1
 77.8652 640.84 l 1
 172.785 764.01 l 1
 24.7549 808.08 l 1
EndSplineSet
MinimumDistance: x4,-1 
EndChar
StartChar: plus
Encoding: 43 43
OldEncoding: 43
Width: 762
Flags: W
HStem: 7.38965 21G<309.41 406.59> 294.41 97.18<37 309 406 679>
VStem: 309.41 97.18<22 294 391 664>
Fore
309.41 678.61 m 1
 406.59 678.61 l 1
 406.59 391.59 l 1
 693.61 391.59 l 1
 693.61 294.41 l 1
 406.59 294.41 l 1
 406.59 7.38965 l 1
 309.41 7.38965 l 1
 309.41 294.41 l 1
 22.3896 294.41 l 1
 22.3896 391.59 l 1
 309.41 391.59 l 1
 309.41 678.61 l 1
EndSplineSet
MinimumDistance: x3,-1 y5,7 y5,6 y2,0 y2,1 x8,10 x8,9 x2,4 x2,3 
EndChar
StartChar: comma
Encoding: 44 44
OldEncoding: 44
Width: 365
Flags: W
Fore
272.35 124.525 m 0
 272.35 60.4912 253.894 11.1484 216.98 -23.5049 c 1
 177.807 -56.6514 136.75 -76.6152 93.8096 -83.3945 c 1
 72.7168 -83.3945 62.1699 -79.6289 62.1699 -72.0947 c 0
 62.1699 -68.3291 64.4297 -64.1846 68.9502 -59.665 c 1
 84.7695 -54.3916 109.254 -41.585 142.4 -21.2451 c 0
 171.78 -2.41211 188.73 21.6953 193.25 51.0752 c 1
 175.17 46.5547 l 1
 150.31 42.0352 l 1
 88.5371 48.8154 57.6504 81.208 57.6504 139.215 c 0
 57.6504 166.335 65.9365 189.312 82.5098 208.145 c 0
 98.3301 226.979 121.684 236.395 152.57 236.395 c 0
 230.164 236.395 270.09 199.105 272.35 124.525 c 0
EndSplineSet
EndChar
StartChar: hyphen
Encoding: 45 45
OldEncoding: 45
Width: 435
Flags: W
HStem: 347.15 101.7<53 359>
Fore
366.915 448.85 m 1
 366.915 347.15 l 1
 38.085 347.15 l 1
 38.085 448.85 l 1
 366.915 448.85 l 1
EndSplineSet
EndChar
StartChar: period
Encoding: 46 46
OldEncoding: 46
Width: 366
Flags: W
Fore
54.5596 152 m 0
 54.5596 178.366 64.3535 201.72 83.9404 222.06 c 0
 104.28 241.646 127.634 251.44 154 251.44 c 0
 169.066 251.44 185.264 246.92 202.59 237.88 c 0
 218.41 228.84 230.464 216.41 238.75 200.59 c 0
 248.544 185.523 253.44 169.326 253.44 152 c 0
 253.44 126.387 243.27 103.41 222.93 83.0703 c 1
 205.604 62.7305 182.626 52.5596 154 52.5596 c 0
 127.634 52.5596 104.28 62.7305 83.9404 83.0703 c 0
 64.3535 102.656 54.5596 125.634 54.5596 152 c 0
EndSplineSet
EndChar
StartChar: slash
Encoding: 47 47
OldEncoding: 47
Width: 364
Flags: W
HStem: -27.3047 21G<-33.2695 42.4404>
DStem: 295.56 986.305 371.27 986.305 -33.2695 -27.3047 42.4404 -27.3047
Fore
-33.2695 -27.3047 m 1
 295.56 986.305 l 1
 371.27 986.305 l 1
 42.4404 -27.3047 l 1
 -33.2695 -27.3047 l 1
EndSplineSet
EndChar
StartChar: zero
Encoding: 48 48
OldEncoding: 48
Width: 619
Flags: W
HStem: -16.6602 97.1797<272.359 302> 747.22 99.44<269.649 302>
VStem: 13.6055 99.4395<382 448> 459.955 99.44<382 448>
Fore
287.065 -16.6602 m 0
 245.631 -16.6602 206.081 -6.49023 168.415 13.8496 c 0
 133.009 31.9297 101.369 63.5703 73.4951 108.77 c 1
 53.1553 146.437 37.7119 194.273 27.165 252.28 c 0
 18.125 310.286 13.6055 364.903 13.6055 416.13 c 0
 13.6055 468.863 18.125 523.856 27.165 581.11 c 0
 36.958 637.61 52.4014 686.2 73.4951 726.88 c 1
 99.8613 766.807 131.501 796.94 168.415 817.28 c 0
 204.575 836.866 244.125 846.66 287.065 846.66 c 0
 330.005 846.66 370.685 836.866 409.105 817.28 c 1
 447.525 795.434 477.659 765.3 499.505 726.88 c 0
 539.432 658.326 559.395 554.744 559.395 416.13 c 0
 559.395 278.27 539.432 175.816 499.505 108.77 c 1
 476.151 65.0762 445.265 33.4365 406.845 13.8496 c 0
 366.919 -6.49023 326.991 -16.6602 287.065 -16.6602 c 0
287.065 80.5195 m 0
 346.579 80.5195 391.401 109.146 421.535 166.4 c 0
 427.562 176.946 434.341 195.403 441.875 221.77 c 1
 447.901 254.916 451.669 285.05 453.175 312.17 c 1
 457.695 346.823 459.955 380.724 459.955 413.87 c 0
 459.955 445.51 457.695 479.41 453.175 515.57 c 1
 451.669 544.95 447.901 575.084 441.875 605.97 c 0
 435.095 631.584 428.315 650.04 421.535 661.34 c 0
 392.155 718.594 347.331 747.22 287.065 747.22 c 0
 260.698 747.22 235.839 740.44 212.485 726.88 c 0
 187.625 711.813 167.661 689.967 152.595 661.34 c 0
 144.309 644.767 134.892 610.113 124.345 557.38 c 1
 116.812 500.88 113.045 453.044 113.045 413.87 c 0
 113.045 374.696 116.812 326.86 124.345 270.36 c 0
 131.879 222.146 141.295 187.494 152.595 166.4 c 0
 169.169 137.773 189.131 117.057 212.485 104.25 c 0
 238.852 88.4297 263.711 80.5195 287.065 80.5195 c 0
EndSplineSet
MinimumDistance: x11,-1 
EndChar
StartChar: one
Encoding: 49 49
OldEncoding: 49
Width: 626
Flags: W
HStem: 9.96484 21G<279.2 378.64> 599.825 81.36<89.3604 97.5824>
VStem: 279.2 99.44<24 599>
Fore
378.64 9.96484 m 1
 279.2 9.96484 l 1
 279.2 599.825 l 1
 89.3604 599.825 l 1
 89.3604 681.185 l 1
 145.106 687.965 186.916 696.251 214.79 706.045 c 0
 238.896 715.085 256.6 729.021 267.9 747.855 c 0
 281.46 771.209 295.396 803.602 309.71 845.035 c 1
 378.64 845.035 l 1
 378.64 9.96484 l 1
EndSplineSet
MinimumDistance: x0,-1 y2,0 y2,1 x2,4 x2,3 
EndChar
StartChar: two
Encoding: 50 50
OldEncoding: 50
Width: 619
Flags: W
HStem: 9.96484 97.1802<115 559>
Fore
400.26 352.355 m 2
 261.27 281.165 l 1
 228.124 261.579 197.236 237.472 168.61 208.845 c 0
 131.696 173.438 113.24 139.539 113.24 107.145 c 1
 559.59 107.145 l 1
 559.59 9.96484 l 1
 2.5 9.96484 l 1
 7.77344 61.1914 15.3066 110.535 25.0996 157.995 c 1
 34.1396 187.375 53.3496 219.769 82.7305 255.175 c 0
 112.863 292.841 158.44 328.249 219.46 361.395 c 2
 347.15 433.715 l 2
 420.224 474.395 457.89 525.999 460.15 588.525 c 0
 462.41 619.411 454.124 650.299 435.29 681.185 c 0
 417.21 707.551 396.116 726.009 372.01 736.555 c 0
 345.644 748.608 319.653 754.635 294.04 754.635 c 0
 233.02 752.375 189.704 733.919 164.09 699.265 c 0
 138.477 663.858 124.54 616.021 122.28 555.755 c 1
 20.5801 555.755 l 1
 22.8398 604.722 30.75 651.051 44.3096 694.745 c 0
 56.3633 734.671 80.8467 766.312 117.76 789.665 c 1
 144.88 812.265 173.506 826.955 203.64 833.735 c 0
 237.54 841.269 274.454 845.035 314.38 845.035 c 0
 382.934 842.775 438.68 823.565 481.62 787.405 c 0
 522.3 751.245 548.29 704.915 559.59 648.415 c 0
 564.863 625.062 567.5 607.358 567.5 595.305 c 0
 567.5 544.831 550.174 497.749 515.52 454.055 c 0
 479.36 407.349 440.94 373.448 400.26 352.355 c 2
EndSplineSet
EndChar
StartChar: three
Encoding: 51 51
OldEncoding: 51
Width: 620
Flags: W
HStem: -16.6602 94.92<249 283> 754 92.66<261 289>
VStem: 429.081 106.22<590.972 608.191 608.278 624> 453.941 106.22<237 256>
Fore
0.811523 254.54 m 1
 100.251 254.54 l 1
 107.031 210.47 l 1
 109.291 190.13 114.564 170.92 122.851 152.84 c 0
 133.397 130.994 148.087 114.797 166.921 104.25 c 1
 190.274 86.9238 218.147 78.2598 250.541 78.2598 c 0
 381.621 76 449.421 129.11 453.941 237.59 c 1
 453.941 254.54 l 2
 453.941 305.014 437.745 341.174 405.351 363.02 c 0
 375.218 384.866 331.147 395.79 273.141 395.79 c 1
 224.551 393.53 l 1
 224.551 483.93 l 1
 299.885 486.19 352.617 495.23 382.751 511.05 c 0
 415.897 529.884 431.341 567.174 429.081 622.92 c 0
 429.081 676.406 412.885 711.813 380.491 729.14 c 0
 348.851 745.714 309.301 754 261.841 754 c 1
 226.435 747.22 198.562 737.426 178.221 724.62 c 0
 157.881 710.307 144.321 694.863 137.541 678.29 c 1
 128.501 661.717 122.851 642.506 120.591 620.66 c 1
 118.331 576.59 l 1
 21.1514 578.85 l 1
 21.1514 663.224 42.998 729.517 86.6914 777.73 c 0
 129.631 823.684 191.781 846.66 273.141 846.66 c 0
 319.848 846.66 363.917 838.374 405.351 821.8 c 0
 446.031 804.474 477.671 778.106 500.271 742.7 c 0
 523.625 705.786 535.301 660.964 535.301 608.23 c 0
 535.301 566.796 526.638 535.156 509.312 513.31 c 0
 491.984 491.464 467.501 468.486 435.861 444.38 c 1
 481.814 424.794 514.207 398.427 533.041 365.28 c 0
 551.121 331.38 560.161 290.7 560.161 243.24 c 1
 562.421 198.04 548.861 150.956 519.481 101.99 c 0
 490.101 56.0371 449.045 24.3965 396.312 7.07031 c 0
 354.125 -6.49023 316.457 -14.4004 283.312 -16.6602 c 0
 268.997 -16.6602 243.385 -14.0234 206.471 -8.75 c 1
 134.905 7.07031 84.8076 36.8262 56.1807 80.5195 c 0
 26.0479 125.72 7.59082 183.727 0.811523 254.54 c 1
EndSplineSet
MinimumDistance: x29,-1 
EndChar
StartChar: four
Encoding: 52 52
OldEncoding: 52
Width: 619
Flags: W
HStem: 9.96484 21G<356.06 453.24> 206.585 97.18<90 356 453 572>
VStem: 356.06 97.18<24 206 304 666>
DStem: 377.53 845.035 356.06 678.925 -4.41016 317.325 88.25 303.765
Fore
356.06 206.585 m 1
 -4.41016 206.585 l 1
 -4.41016 317.325 l 1
 377.53 845.035 l 1
 453.24 845.035 l 1
 453.24 303.765 l 1
 576.41 303.765 l 1
 576.41 206.585 l 1
 453.24 206.585 l 1
 453.24 9.96484 l 1
 356.06 9.96484 l 1
 356.06 206.585 l 1
356.06 303.765 m 1
 356.06 678.925 l 1
 88.25 303.765 l 1
 356.06 303.765 l 1
EndSplineSet
MinimumDistance: x6,-1 x3,5 y5,3 y5,4 y0,9 y0,10 x5,7 x5,6 y2,0 x0,2 x0,1 
EndChar
StartChar: five
Encoding: 53 53
OldEncoding: 53
Width: 619
Flags: W
HStem: 464.72 97.18<275 302> 744.96 101.7<176 525>
DStem: 94.8965 846.66 177.386 744.96 29.3564 391.27 143.486 513.31
Fore
124.276 391.27 m 1
 29.3564 391.27 l 1
 94.8965 846.66 l 1
 527.687 846.66 l 1
 527.687 744.96 l 1
 177.386 744.96 l 1
 143.486 513.31 l 1
 182.66 545.704 232.003 561.9 291.517 561.9 c 0
 330.689 561.9 367.603 555.874 402.256 543.82 c 0
 516.01 500.88 571.756 410.48 569.496 272.62 c 0
 567.236 220.64 551.793 169.036 523.166 117.81 c 1
 498.307 77.8838 464.406 45.4902 421.466 20.6299 c 1
 392.086 6.31641 351.782 -6.11328 300.557 -16.6602 c 1
 260.63 -16.6602 222.21 -11.7637 185.296 -1.96973 c 0
 146.122 9.33008 113.729 27.0332 88.1162 51.1396 c 1
 63.2559 70.7266 46.3066 90.6904 37.2666 111.03 c 1
 26.7197 128.356 18.8096 149.073 13.5361 173.18 c 2
 4.49609 214.99 l 1
 110.716 214.99 l 1
 121.263 183.35 139.72 152.464 166.086 122.33 c 1
 193.96 95.9629 237.276 82.7803 296.036 82.7803 c 1
 391.71 95.5869 444.066 148.32 453.106 240.98 c 1
 453.106 321.586 436.91 378.464 404.517 411.61 c 0
 371.37 447.017 330.689 464.72 282.477 464.72 c 0
 221.456 464.72 168.723 440.236 124.276 391.27 c 1
EndSplineSet
MinimumDistance: x5,-1 
EndChar
StartChar: six
Encoding: 54 54
OldEncoding: 54
Width: 618
Flags: W
HStem: -16.6602 90.4004<284 295 295.606 321.281> 439.86 92.66<284 318> 751.74 94.92<310 336>
VStem: 463.89 105.09<250 272>
Fore
549.77 629.7 m 1
 448.07 629.7 l 1
 448.07 662.094 437.9 688.084 417.56 707.67 c 0
 395.714 730.27 368.216 744.96 335.07 751.74 c 1
 247.684 751.74 186.664 715.58 152.01 643.26 c 0
 122.63 581.486 107.94 521.974 107.94 464.72 c 1
 112.46 435.34 l 1
 128.28 448.9 142.97 462.836 156.53 477.15 c 0
 168.584 489.204 181.767 498.244 196.08 504.27 c 0
 213.406 514.063 229.604 521.22 244.67 525.74 c 0
 260.49 530.26 281.96 532.52 309.08 532.52 c 0
 356.54 532.52 397.597 523.104 432.25 504.27 c 0
 467.656 485.437 496.284 460.954 518.13 430.82 c 0
 541.483 396.166 555.044 363.773 558.81 333.64 c 1
 565.59 317.066 568.98 294.466 568.98 265.84 c 0
 568.98 236.46 565.59 214.99 558.81 201.43 c 1
 552.03 156.23 535.834 119.316 510.22 90.6904 c 1
 480.086 52.2695 450.33 25.1504 420.95 9.33008 c 0
 384.79 -7.99707 341.474 -16.6602 291 -16.6602 c 0
 251.073 -16.6602 211.523 -7.24316 172.35 11.5898 c 0
 136.943 26.6562 109.446 50.3867 89.8604 82.7803 c 1
 55.207 128.733 33.3604 178.454 24.3203 231.94 c 0
 16.7871 288.44 13.0195 356.994 13.0195 437.6 c 0
 13.0195 507.66 22.4365 570.94 41.2695 627.44 c 0
 66.8838 705.033 104.55 760.403 154.27 793.55 c 1
 203.236 828.956 256.347 846.66 313.6 846.66 c 0
 376.126 846.66 429.613 826.696 474.06 786.77 c 0
 495.906 767.184 513.61 744.96 527.17 720.1 c 0
 537.716 700.514 545.25 670.38 549.77 629.7 c 1
434.51 148.32 m 1
 454.097 174.687 463.89 209.34 463.89 252.28 c 0
 463.89 295.974 452.966 338.16 431.12 378.84 c 2
 427.73 384.49 l 2
 403.624 421.403 359.554 439.86 295.52 439.86 c 0
 269.153 439.86 245.046 434.586 223.2 424.04 c 0
 199.847 411.986 180.637 398.05 165.57 382.23 c 0
 136.19 352.097 121.5 313.3 121.5 265.84 c 0
 121.5 224.406 134.684 183.727 161.05 143.8 c 1
 195.704 97.0938 240.526 73.7402 295.52 73.7402 c 0
 353.526 71.4805 399.856 96.3398 434.51 148.32 c 1
EndSplineSet
MinimumDistance: x14,-1 
EndChar
StartChar: seven
Encoding: 55 55
OldEncoding: 55
Width: 618
Flags: W
HStem: 9.96484 21G<123.11 234.98> 747.855 97.18<31 465>
Fore
16.8896 747.855 m 1
 16.8896 845.035 l 1
 575.11 845.035 l 1
 575.11 758.025 l 1
 482.45 625.815 l 1
 452.316 584.381 416.156 521.855 373.97 438.235 c 0
 305.416 307.155 259.086 164.398 234.98 9.96484 c 1
 123.11 9.96484 l 1
 149.477 116.938 172.076 195.661 190.91 246.135 c 0
 202.964 282.295 231.59 343.315 276.79 429.195 c 1
 385.27 616.775 l 1
 465.5 747.855 l 1
 16.8896 747.855 l 1
EndSplineSet
EndChar
StartChar: eight
Encoding: 56 56
OldEncoding: 56
Width: 618
Flags: W
HStem: 404.841 88.139<263 272 272.119 279.928> 756.271 90.399<270 297>
VStem: 37.0244 103.96<606 640> 434.784 103.96<609.062 640> 459.645 109.609<221 240>
Fore
124.034 798.08 m 0
 167.728 830.475 218.954 846.67 277.714 846.67 c 0
 350.034 846.67 410.678 830.475 459.645 798.08 c 0
 481.49 784.521 501.078 759.284 518.404 722.37 c 0
 531.964 689.977 538.744 657.584 538.744 625.19 c 0
 538.744 579.236 527.82 544.584 505.975 521.23 c 1
 492.414 500.891 467.931 477.537 432.524 451.171 c 1
 458.891 446.65 488.271 423.674 520.664 382.24 c 0
 553.058 339.301 569.254 285.814 569.254 221.78 c 1
 558.708 147.954 523.678 87.3105 464.164 39.8506 c 1
 405.404 -0.0761719 342.124 -18.9092 274.324 -16.6494 c 0
 249.464 -16.6494 214.811 -9.49316 170.364 4.82031 c 0
 138.725 15.3672 109.344 33.0703 82.2246 57.9307 c 0
 35.5176 97.8574 11.0342 152.475 8.77441 221.78 c 0
 6.51367 288.074 19.6973 337.417 48.3242 369.811 c 1
 57.3643 391.656 88.25 418.776 140.984 451.171 c 1
 99.1738 483.94 l 1
 75.4443 506.54 l 1
 68.6641 515.58 61.8838 525.75 55.1045 537.051 c 1
 43.0508 563.417 37.0244 592.797 37.0244 625.19 c 0
 37.0244 696.004 66.0273 753.634 124.034 798.08 c 0
386.194 726.891 m 0
 363.594 746.477 331.2 756.271 289.014 756.271 c 0
 243.061 756.271 207.654 744.971 182.794 722.37 c 0
 154.921 699.017 140.984 666.624 140.984 625.19 c 0
 140.984 603.344 143.998 585.641 150.024 572.08 c 0
 169.61 519.347 210.29 492.98 272.064 492.98 c 0
 336.098 490.721 380.921 507.671 406.534 543.83 c 0
 425.368 569.444 434.784 596.564 434.784 625.19 c 0
 434.784 666.624 418.588 700.524 386.194 726.891 c 0
425.744 344.95 m 0
 388.078 387.137 339.488 407.101 279.975 404.841 c 1
 219.708 404.841 174.131 384.124 143.244 342.69 c 0
 122.904 315.57 112.734 279.41 112.734 234.21 c 1
 117.254 188.257 131.19 153.98 154.544 131.381 c 1
 173.378 110.287 212.551 93.3369 272.064 80.5303 c 1
 312.744 82.79 351.54 92.207 388.454 108.78 c 1
 435.914 140.421 459.645 183.736 459.645 238.73 c 0
 459.645 265.851 456.631 286.566 450.604 300.881 c 0
 443.07 321.221 434.784 335.91 425.744 344.95 c 0
EndSplineSet
MinimumDistance: x8,-1 
EndChar
StartChar: nine
Encoding: 57 57
OldEncoding: 57
Width: 619
Flags: W
HStem: -16.666 99.4394<244 278.155> 751.734 94.92<264 284 285 301.352>
Fore
22.7754 196.904 m 1
 126.735 196.904 l 1
 126.735 169.03 138.411 144.17 161.765 122.324 c 0
 185.871 101.23 213.745 88.0469 245.385 82.7734 c 1
 332.019 82.7734 391.531 116.297 423.925 183.344 c 1
 432.965 205.19 442.759 235.7 453.305 274.874 c 1
 462.345 318.567 466.865 347.947 466.865 363.014 c 1
 462.345 393.523 l 1
 438.991 362.638 408.858 337.023 371.945 316.684 c 0
 356.879 307.644 335.409 300.864 307.535 296.344 c 1
 217.135 300.864 l 1
 164.401 307.644 119.579 329.867 82.665 367.534 c 0
 48.0117 403.694 25.0352 445.504 13.7354 492.964 c 1
 10.7217 514.058 9.21484 537.034 9.21484 561.894 c 1
 13.7354 631.954 l 1
 22.0215 672.634 38.9717 708.794 64.585 740.434 c 0
 99.2383 781.867 130.125 809.74 157.245 824.054 c 1
 191.145 839.12 233.709 846.654 284.935 846.654 c 0
 375.335 848.914 443.135 815.014 488.335 744.954 c 1
 524.495 693.728 548.225 612.744 559.525 502.004 c 1
 561.785 426.294 l 1
 559.525 349.454 l 1
 557.265 308.021 548.979 258.678 534.665 201.424 c 0
 512.065 121.57 471.762 64.3174 413.755 29.6641 c 0
 376.089 7.06348 330.889 -8.37988 278.155 -16.666 c 1
 241.241 -16.666 205.459 -12.5225 170.805 -4.23633 c 1
 140.671 5.55762 115.435 20.2471 95.0947 39.834 c 0
 51.4014 82.0205 27.2949 134.378 22.7754 196.904 c 1
141.425 682.804 m 0
 121.085 655.684 110.915 619.523 110.915 574.324 c 0
 110.915 527.617 123.345 484.3 148.205 444.374 c 0
 174.571 402.188 218.642 382.224 280.415 384.484 c 0
 303.769 384.484 329.005 391.264 356.125 404.824 c 0
 379.479 416.124 397.182 430.061 409.235 446.634 c 1
 438.615 476.014 453.305 513.681 453.305 559.634 c 0
 453.305 604.834 440.121 647.397 413.755 687.324 c 0
 400.948 707.664 382.491 723.107 358.385 733.654 c 0
 334.278 745.708 309.041 751.734 282.675 751.734 c 0
 220.148 751.734 173.065 728.758 141.425 682.804 c 0
EndSplineSet
EndChar
StartChar: colon
Encoding: 58 58
OldEncoding: 58
Width: 363
Flags: W
HStem: 26.9551 198.88<173 191> 610.035 200.01<173 191>
Fore
78.5596 126.395 m 0
 78.5596 152.762 88.7305 176.115 109.07 196.455 c 0
 128.656 216.041 151.634 225.835 178 225.835 c 0
 196.834 225.835 213.03 221.315 226.59 212.275 c 1
 241.656 206.249 254.086 193.818 263.88 174.985 c 0
 272.92 159.165 277.44 142.969 277.44 126.395 c 0
 277.44 100.028 267.646 77.0518 248.06 57.4648 c 0
 226.966 37.125 203.613 26.9551 178 26.9551 c 0
 152.387 26.9551 129.41 37.125 109.07 57.4648 c 0
 88.7305 77.0518 78.5596 100.028 78.5596 126.395 c 0
78.5596 709.475 m 0
 78.5596 738.102 88.7305 762.209 109.07 781.795 c 0
 130.164 800.629 153.14 810.045 178 810.045 c 0
 203.613 810.045 227.72 800.629 250.32 781.795 c 1
 268.4 761.455 277.44 737.349 277.44 709.475 c 0
 277.44 683.108 267.646 660.131 248.06 640.545 c 0
 226.966 620.205 203.613 610.035 178 610.035 c 0
 152.387 610.035 129.41 620.205 109.07 640.545 c 0
 88.7305 660.131 78.5596 683.108 78.5596 709.475 c 0
EndSplineSet
EndChar
StartChar: semicolon
Encoding: 59 59
OldEncoding: 59
Width: 365
Flags: W
HStem: 610.485 198.88<138 156>
Fore
281.715 89.5547 m 0
 281.715 24.7686 262.505 -24.5752 224.085 -58.4746 c 0
 187.171 -91.6221 147.245 -111.585 104.305 -118.365 c 1
 82.458 -118.365 71.5352 -114.599 71.5352 -107.065 c 0
 71.5352 -103.299 73.7949 -99.1553 78.3154 -94.6348 c 1
 93.3809 -89.3613 118.241 -76.5547 152.895 -56.2148 c 1
 184.535 -35.1221 201.485 -11.0146 203.745 16.1055 c 1
 184.535 11.585 l 1
 159.675 7.06543 l 1
 97.9014 13.8447 67.0146 46.2383 67.0146 104.245 c 0
 67.0146 131.365 75.3018 154.341 91.875 173.175 c 0
 108.448 192.009 131.802 201.425 161.935 201.425 c 0
 239.528 201.425 279.455 164.135 281.715 89.5547 c 0
43.2852 709.925 m 0
 43.2852 735.539 53.4551 758.892 73.7949 779.985 c 0
 93.3809 799.571 116.358 809.365 142.725 809.365 c 0
 159.299 809.365 175.495 804.845 191.315 795.805 c 0
 210.148 786.012 222.579 773.581 228.605 758.515 c 1
 237.645 744.955 242.165 728.759 242.165 709.925 c 0
 242.165 683.559 232.371 660.581 212.785 640.995 c 0
 192.445 620.655 169.091 610.485 142.725 610.485 c 0
 116.358 610.485 93.3809 620.655 73.7949 640.995 c 0
 53.4551 661.335 43.2852 684.312 43.2852 709.925 c 0
EndSplineSet
EndChar
StartChar: less
Encoding: 60 60
OldEncoding: 60
Width: 762
Flags: W
DStem: 16 294.41 145.95 343 694 7.38965 694 118.13 694 678.61 694 566.74 16 391.59 145.95 343
Fore
694 678.61 m 1
 694 566.74 l 1
 145.95 343 l 1
 694 118.13 l 1
 694 7.38965 l 1
 16 294.41 l 1
 16 391.59 l 1
 694 678.61 l 1
EndSplineSet
MinimumDistance: x0,-1 
EndChar
StartChar: equal
Encoding: 61 61
OldEncoding: 61
Width: 762
Flags: W
HStem: 175.825 97.18<37 679> 411.995 97.18<37 679>
Fore
22.3896 509.175 m 1
 693.61 509.175 l 1
 693.61 411.995 l 1
 22.3896 411.995 l 1
 22.3896 509.175 l 1
22.3896 273.005 m 1
 693.61 273.005 l 1
 693.61 175.825 l 1
 22.3896 175.825 l 1
 22.3896 273.005 l 1
EndSplineSet
EndChar
StartChar: greater
Encoding: 62 62
OldEncoding: 62
Width: 762
Flags: W
DStem: 21.9346 566.74 21.9346 678.61 566.595 343 701.065 391.59 566.595 343 701.065 294.41 21.9346 118.13 21.9346 7.38965
Fore
701.065 391.59 m 1
 701.065 294.41 l 1
 21.9346 7.38965 l 1
 21.9346 118.13 l 1
 566.595 343 l 1
 21.9346 566.74 l 1
 21.9346 678.61 l 1
 701.065 391.59 l 1
EndSplineSet
MinimumDistance: x0,-1 
EndChar
StartChar: question
Encoding: 63 63
OldEncoding: 63
Width: 726
Flags: W
HStem: -0.955078 21G<286.615 414.305> 917.735 106.225<346 372>
VStem: 286.615 127.69<14 128 286 354> 534.085 125.43<749 767>
Fore
414.305 270.245 m 1
 286.615 270.245 l 1
 286.615 352.735 l 2
 286.615 394.169 299.045 430.705 323.905 462.345 c 0
 344.999 491.725 372.119 522.235 405.265 553.875 c 2
 408.655 557.265 l 1
 448.205 593.425 l 1
 483.235 628.455 l 1
 509.225 668.005 l 1
 525.799 707.179 534.085 739.571 534.085 765.185 c 0
 534.085 793.812 527.305 820.179 513.745 844.285 c 1
 495.665 868.392 475.325 886.849 452.725 899.655 c 1
 426.358 911.709 397.355 917.735 365.715 917.735 c 0
 321.269 917.735 285.485 909.448 258.365 892.875 c 0
 231.999 876.301 212.789 854.455 200.735 827.335 c 0
 190.188 803.981 184.915 778.745 184.915 751.625 c 1
 180.395 697.385 l 1
 59.4854 697.385 l 1
 59.4854 761.419 69.6553 816.411 89.9951 862.365 c 1
 107.321 909.825 140.469 948.245 189.435 977.625 c 1
 236.142 1008.51 297.161 1023.96 372.495 1023.96 c 1
 421.085 1021.7 l 1
 482.105 1014.92 529.941 996.459 564.595 966.325 c 0
 600.755 936.191 625.238 903.799 638.045 869.145 c 0
 652.358 829.972 659.515 793.059 659.515 758.405 c 0
 659.515 725.259 654.619 694.371 644.825 665.745 c 1
 633.525 622.051 582.675 559.525 492.275 478.165 c 0
 466.661 454.812 448.205 434.849 436.905 418.275 c 0
 421.839 397.935 414.305 370.062 414.305 334.655 c 2
 414.305 270.245 l 1
286.615 -0.955078 m 1
 286.615 142.555 l 1
 414.305 142.555 l 1
 414.305 -0.955078 l 1
 286.615 -0.955078 l 1
EndSplineSet
MinimumDistance: x24,-1 
EndChar
StartChar: at
Encoding: 64 64
OldEncoding: 64
Width: 1330
Flags: W
HStem: -192.555 103.961<574 636> 85.4258 97.1792<865 902.291> 92.2061 88.1399<506.791 548.601> 633.476 101.7<622 656>
VStem: -32.2188 119.779<366 404> 285.311 126.56<334 352>
Fore
961.051 702.406 m 1
 826.581 286.565 l 2
 820.555 267.732 817.541 253.796 817.541 244.756 c 0
 817.541 232.702 821.307 220.272 828.841 207.466 c 0
 840.895 190.892 865.377 182.605 902.291 182.605 c 1
 943.725 192.399 978.755 209.35 1007.38 233.456 c 0
 1038.27 259.822 1061.25 285.812 1076.31 311.426 c 0
 1113.23 376.212 1131.68 454.936 1131.68 547.596 c 1
 1124.9 585.262 1110.97 625.565 1089.87 668.506 c 0
 1071.03 709.939 1048.06 744.592 1020.94 772.466 c 0
 994.574 800.34 952.011 829.72 893.251 860.605 c 0
 832.984 891.492 774.601 912.209 718.101 922.756 c 0
 690.228 927.275 662.354 929.536 634.48 929.536 c 0
 570.447 929.536 510.181 917.859 453.681 894.506 c 0
 403.207 874.92 353.11 845.916 303.391 807.496 c 1
 255.177 767.569 212.614 719.732 175.701 663.985 c 0
 140.295 607.485 117.317 561.156 106.771 524.996 c 0
 93.9648 475.275 87.5605 431.959 87.5605 395.046 c 0
 87.5605 319.712 103.757 246.262 136.15 174.695 c 0
 155.737 134.016 191.521 92.582 243.501 50.3955 c 1
 297.741 3.68945 354.617 -31.7178 414.131 -55.8242 c 0
 466.864 -77.6709 528.637 -88.5938 599.451 -88.5938 c 0
 683.824 -88.5938 774.978 -72.3975 872.911 -40.0039 c 1
 912.461 -132.664 l 1
 801.721 -172.591 696.631 -192.555 597.19 -192.555 c 0
 522.61 -192.555 449.161 -181.254 376.841 -158.654 c 1
 322.601 -139.068 258.567 -104.038 184.741 -53.5645 c 0
 111.667 -3.09082 58.5566 54.5391 25.4111 119.326 c 0
 -13.0088 193.906 -32.2188 279.786 -32.2188 376.966 c 0
 -32.2188 428.192 -26.1924 474.146 -14.1396 514.826 c 0
 8.46094 587.146 38.5947 655.322 76.2607 719.355 c 1
 119.201 787.909 174.947 847.046 243.501 896.766 c 0
 278.154 923.132 318.834 947.239 365.541 969.086 c 1
 417.521 990.932 468.371 1007.13 518.091 1017.68 c 0
 577.604 1030.48 633.351 1035.76 685.331 1033.5 c 0
 750.871 1031.24 828.087 1012.03 916.98 975.865 c 0
 994.574 942.72 1061.62 895.636 1118.12 834.615 c 1
 1159.56 786.402 1188.18 743.086 1204 704.666 c 0
 1228.1 648.166 1240.16 598.069 1240.16 554.376 c 0
 1242.42 494.109 1237.14 443.26 1224.34 401.826 c 0
 1213.8 368.68 1197.59 331.012 1175.75 288.826 c 0
 1156.91 251.912 1131.31 215.752 1098.91 180.346 c 0
 1063.51 141.172 1020.56 114.053 970.091 98.9854 c 0
 942.217 89.9453 907.564 85.4258 866.131 85.4258 c 0
 834.491 85.4258 811.891 87.6855 798.331 92.2061 c 0
 771.965 98.9854 751.247 112.923 736.181 134.016 c 1
 719.607 152.85 710.19 171.306 707.931 189.386 c 1
 680.811 161.136 l 2
 673.277 152.096 660.847 141.926 643.521 130.626 c 0
 628.454 119.326 607.737 110.286 581.371 103.506 c 0
 557.265 95.9727 532.404 92.2061 506.791 92.2061 c 0
 478.917 92.2061 453.681 96.7256 431.081 105.766 c 0
 392.661 120.832 364.787 140.796 347.461 165.655 c 1
 329.381 188.256 313.938 215.376 301.131 247.016 c 0
 290.584 275.642 285.311 308.036 285.311 344.195 c 0
 285.311 375.082 288.324 402.202 294.351 425.556 c 0
 320.717 531.022 373.827 612.76 453.681 670.766 c 0
 510.935 713.706 574.215 735.176 643.521 735.176 c 0
 661.601 735.176 678.551 732.916 694.371 728.396 c 0
 721.491 720.109 747.857 703.912 773.471 679.806 c 1
 793.811 654.192 807.747 630.84 815.281 609.746 c 1
 844.661 702.406 l 1
 961.051 702.406 l 1
763.301 534.036 m 1
 761.041 560.402 754.261 580.366 742.961 593.926 c 0
 730.154 608.992 709.438 619.916 680.811 626.695 c 1
 669.511 631.216 655.574 633.476 639.001 633.476 c 0
 605.854 633.476 574.215 624.06 544.081 605.226 c 0
 515.454 587.146 492.101 565.676 474.021 540.815 c 0
 457.447 516.709 443.135 485.069 431.081 445.896 c 0
 418.274 409.735 411.871 375.836 411.871 344.195 c 0
 411.871 300.502 424.301 263.59 449.161 233.456 c 1
 474.021 198.05 507.167 180.346 548.601 180.346 c 1
 583.631 184.866 l 1
 625.817 196.92 661.225 225.922 689.851 271.876 c 1
 706.425 295.229 723.374 335.532 740.701 392.786 c 0
 755.767 449.286 763.301 496.369 763.301 534.036 c 1
EndSplineSet
MinimumDistance: x69,-1 
EndChar
StartChar: A
Encoding: 65 65
OldEncoding: 65
Width: 871
Flags: W
HStem: -0.174805 21G<-30.8945 108.095 708.125 853.895> 302.665 109.61<256 562> 991.17 20G<337.485 496.815>
DStem: 337.485 1011.17 416.585 854.105 -30.8945 -0.174805 251.605 412.275 337.485 1011.17 217.705 302.665 -30.8945 -0.174805 108.095 -0.174805 604.165 302.665 496.815 1011.17 708.125 -0.174805 853.895 -0.174805
Fore
217.705 302.665 m 1
 108.095 -0.174805 l 1
 -30.8945 -0.174805 l 1
 337.485 1011.17 l 1
 496.815 1011.17 l 1
 853.895 -0.174805 l 1
 708.125 -0.174805 l 1
 604.165 302.665 l 1
 217.705 302.665 l 1
416.585 854.105 m 1
 251.605 412.275 l 1
 566.875 412.275 l 1
 416.585 854.105 l 1
EndSplineSet
MinimumDistance: x5,-1 
EndChar
StartChar: B
Encoding: 66 66
OldEncoding: 66
Width: 869
Flags: W
HStem: -0.174805 115.26<195 533> 463.125 115.26<195 469> 898.175 112.995<195 441>
VStem: 52.4502 132.21<120 448 590 896> 679.6 129.95<272 319.615>
Fore
553.04 -0.174805 m 2
 52.4502 -0.174805 l 1
 52.4502 1011.17 l 1
 502.19 1011.17 l 2
 540.61 1011.17 576.017 1003.26 608.41 987.445 c 0
 643.816 970.871 673.196 950.908 696.55 927.555 c 0
 734.216 892.148 756.44 845.818 763.22 788.565 c 1
 763.22 657.485 720.656 573.488 635.53 536.575 c 1
 684.12 513.975 l 1
 702.954 502.675 720.656 488.738 737.23 472.165 c 0
 758.323 451.071 775.65 425.459 789.21 395.325 c 0
 802.77 365.191 809.55 324.512 809.55 273.285 c 0
 807.29 210.759 791.094 160.661 760.96 122.995 c 0
 729.32 82.3154 694.666 52.1816 657 32.5947 c 0
 617.073 10.748 582.42 -0.174805 553.04 -0.174805 c 2
184.66 898.175 m 1
 184.66 578.385 l 1
 453.6 578.385 l 2
 522.153 578.385 568.86 594.581 593.72 626.975 c 0
 618.58 660.121 631.01 706.451 631.01 765.965 c 1
 624.23 814.932 596.733 849.585 548.52 869.925 c 1
 498.046 888.759 455.483 898.175 420.83 898.175 c 2
 184.66 898.175 l 1
184.66 463.125 m 1
 184.66 115.085 l 1
 511.23 115.085 l 2
 570.744 115.085 612.93 134.671 637.79 173.845 c 1
 665.664 211.512 679.6 260.102 679.6 319.615 c 1
 672.82 376.115 649.844 414.535 610.67 434.875 c 1
 569.236 453.709 511.983 463.125 438.91 463.125 c 2
 184.66 463.125 l 1
EndSplineSet
MinimumDistance: x11,-1 
EndChar
StartChar: C
Encoding: 67 67
OldEncoding: 67
Width: 943
Flags: W
HStem: -32.0996 118.649<439 473> 912.58 117.52<439 473>
VStem: 8.82031 132.21<478 528>
Fore
863.1 699.01 m 1
 728.63 699.01 l 1
 712.057 744.964 691.34 783.76 666.48 815.4 c 0
 649.906 837.246 629.943 854.95 606.59 868.51 c 0
 577.21 886.59 553.104 898.267 534.27 903.54 c 0
 513.93 909.566 488.693 912.58 458.56 912.58 c 0
 418.634 912.58 378.33 903.916 337.65 886.59 c 0
 299.23 870.77 266.084 847.04 238.21 815.4 c 1
 205.063 773.967 181.334 727.637 167.02 676.41 c 0
 149.693 617.65 141.03 558.137 141.03 497.87 c 0
 141.03 444.384 150.446 386.754 169.28 324.98 c 0
 188.113 265.466 211.09 218.384 238.21 183.73 c 0
 290.943 118.943 364.394 86.5498 458.56 86.5498 c 0
 546.7 86.5498 616.006 118.943 666.48 183.73 c 0
 683.807 205.576 700.004 233.45 715.07 267.35 c 0
 732.396 303.51 744.073 338.164 750.1 371.31 c 1
 881.18 371.31 l 1
 860.84 247.01 810.744 147.193 730.89 71.8604 c 0
 706.03 49.2598 667.61 26.2832 615.63 2.92969 c 0
 560.637 -20.4238 506.02 -32.0996 451.78 -32.0996 c 0
 396.786 -32.0996 341.794 -20.4238 286.8 2.92969 c 0
 234.066 23.2695 194.894 46.2471 169.28 71.8604 c 0
 112.026 127.606 70.9697 192.77 46.1104 267.35 c 0
 21.25 342.684 8.82031 419.523 8.82031 497.87 c 0
 8.82031 577.724 21.25 655.693 46.1104 731.78 c 0
 71.7236 807.113 112.78 871.9 169.28 926.14 c 1
 192.634 951 231.807 974.354 286.8 996.2 c 0
 345.56 1018.8 400.554 1030.1 451.78 1030.1 c 0
 502.254 1030.1 556.87 1018.8 615.63 996.2 c 0
 668.363 975.106 706.784 951.754 730.89 926.14 c 1
 788.144 874.16 832.214 798.45 863.1 699.01 c 1
EndSplineSet
MinimumDistance: x9,-1 
EndChar
StartChar: D
Encoding: 68 68
OldEncoding: 68
Width: 940
Flags: W
HStem: -0.174805 115.26<205 495> 898.175 112.995<205 463>
VStem: 62.8496 131.08<115 896> 736.33 128.82<501.659 548.361>
Fore
525.02 -0.174805 m 2
 62.8496 -0.174805 l 1
 62.8496 1011.17 l 1
 453.83 1011.17 l 2
 561.557 1011.17 653.84 975.015 730.68 902.695 c 1
 808.273 827.361 851.59 726.039 860.63 598.725 c 0
 863.644 567.839 865.15 535.445 865.15 501.545 c 0
 865.15 354.645 829.744 237.501 758.93 150.115 c 0
 719.004 98.8887 677.193 61.9746 633.5 39.375 c 1
 589.054 13.0088 552.894 -0.174805 525.02 -0.174805 c 2
441.4 898.175 m 2
 193.93 898.175 l 1
 193.93 115.085 l 1
 476.43 115.085 l 2
 510.33 115.085 544.983 122.241 580.39 136.555 c 0
 599.977 144.841 624.836 167.065 654.97 203.225 c 0
 681.336 236.371 698.286 267.259 705.82 295.885 c 0
 723.146 371.972 733.316 440.525 736.33 501.545 c 1
 738.59 613.039 719.756 701.932 679.83 768.225 c 0
 626.344 854.858 546.866 898.175 441.4 898.175 c 2
EndSplineSet
MinimumDistance: x6,-1 
EndChar
StartChar: E
Encoding: 69 69
OldEncoding: 69
Width: 869
Flags: W
HStem: -0.174805 115.26<212 790> 463.125 115.26<212 742> 898.175 112.995<212 758>
VStem: 69.2051 128.82<114 463 577 898>
Fore
69.2051 -0.174805 m 1
 69.2051 1011.17 l 1
 772.065 1011.17 l 1
 772.065 898.175 l 1
 198.025 898.175 l 1
 198.025 578.385 l 1
 749.465 578.385 l 1
 749.465 463.125 l 1
 198.025 463.125 l 1
 198.025 115.085 l 1
 795.795 115.085 l 1
 795.795 -0.174805 l 1
 69.2051 -0.174805 l 1
EndSplineSet
MinimumDistance: x10,-1 y11,9 x9,11 x9,10 x5,7 x5,6 x4,2 x4,3 
EndChar
StartChar: F
Encoding: 70 70
OldEncoding: 70
Width: 795
Flags: W
HStem: -0.174805 21G<72 200.82> 463.125 115.26<201 681> 898.175 112.995<201 750>
VStem: 72 128.82<14 463 577 898>
Fore
72 -0.174805 m 1
 72 1011.17 l 1
 750 1011.17 l 1
 750 898.175 l 1
 200.82 898.175 l 1
 200.82 578.385 l 1
 682.2 578.385 l 1
 682.2 463.125 l 1
 200.82 463.125 l 1
 200.82 -0.174805 l 1
 72 -0.174805 l 1
EndSplineSet
MinimumDistance: x2,-1 y8,0 y8,9 x5,7 x5,6 x4,2 x4,3 
EndChar
StartChar: G
Encoding: 71 71
OldEncoding: 71
Width: 1020
Flags: W
HStem: -32.1133 114.13<453 496> -3.86328 21G<840.629 923.118> 422.146 115.26<510 808> 912.566 117.524<478 490 490.396 523.963>
VStem: -0.0917969 132.21<495.647 524.439> 807.858 115.26<350 422>
Fore
500.499 422.146 m 1
 500.499 537.406 l 1
 923.118 537.406 l 1
 923.118 -3.86328 l 1
 840.629 -3.86328 l 1
 810.118 120.437 l 1
 753.618 70.7168 701.263 32.2969 653.049 5.17676 c 0
 607.095 -19.6836 540.803 -32.1133 454.169 -32.1133 c 0
 411.229 -32.1133 361.132 -21.1904 303.879 0.65625 c 0
 251.898 20.2432 210.089 41.7129 178.448 65.0664 c 1
 119.688 114.786 74.1123 180.326 41.7188 261.687 c 1
 11.585 346.812 -2.35156 424.782 -0.0917969 495.597 c 0
 -0.0917969 538.536 7.06543 589.387 21.3789 648.146 c 0
 33.4316 703.14 51.8887 753.612 76.749 799.566 c 0
 99.3486 843.26 133.249 885.446 178.448 926.126 c 0
 209.335 952.492 252.652 975.847 308.398 996.187 c 0
 372.433 1018.79 433.075 1030.09 490.328 1030.09 c 0
 579.975 1032.35 651.919 1018.41 706.158 988.276 c 1
 782.245 949.856 833.849 906.163 860.969 857.196 c 0
 888.089 810.49 905.038 760.393 911.818 706.906 c 1
 785.259 706.906 l 1
 781.492 758.133 753.618 805.217 701.639 848.156 c 0
 648.905 891.097 578.469 912.566 490.328 912.566 c 0
 445.129 912.566 399.929 903.902 354.729 886.576 c 0
 308.774 870.003 271.485 846.272 242.858 815.387 c 0
 210.465 781.486 183.723 735.156 162.629 676.396 c 0
 142.289 622.156 132.118 561.89 132.118 495.597 c 0
 132.118 433.07 142.289 374.687 162.629 320.446 c 0
 182.969 261.687 209.712 214.603 242.858 179.196 c 0
 305.385 114.41 387.875 82.0166 490.328 82.0166 c 0
 561.895 82.0166 620.655 98.2129 666.608 130.606 c 0
 700.509 153.206 729.135 179.196 752.488 208.576 c 0
 773.582 235.696 787.519 262.816 794.299 289.937 c 1
 803.339 315.55 807.858 338.526 807.858 358.866 c 2
 807.858 422.146 l 1
 500.499 422.146 l 1
EndSplineSet
MinimumDistance: x2,-1 x34,1 x34,0 
EndChar
StartChar: H
Encoding: 72 72
OldEncoding: 72
Width: 943
Flags: W
HStem: -0.174805 21G<57.2148 187.165 705.835 835.785> 463.125 115.26<187 705> 991.17 20G<57.2148 187.165 705.835 835.785>
VStem: 57.2148 129.95<14 448 590 1008> 705.835 129.95<14 448 590 1008>
Fore
705.835 -0.174805 m 1
 705.835 463.125 l 1
 187.165 463.125 l 1
 187.165 -0.174805 l 1
 57.2148 -0.174805 l 1
 57.2148 1011.17 l 1
 187.165 1011.17 l 1
 187.165 578.385 l 1
 705.835 578.385 l 1
 705.835 1011.17 l 1
 835.785 1011.17 l 1
 835.785 -0.174805 l 1
 705.835 -0.174805 l 1
EndSplineSet
MinimumDistance: x10,-1 y8,10 y8,9 x5,7 y7,5 y7,6 x4,2 y2,4 y2,3 y1,11 y1,0 
EndChar
StartChar: I
Encoding: 73 73
OldEncoding: 73
Width: 362
Flags: W
HStem: -0.174805 21G<115.525 245.475> 991.17 20G<115.525 245.475>
VStem: 115.525 129.95<14 1008>
Fore
115.525 -0.174805 m 1
 115.525 1011.17 l 1
 245.475 1011.17 l 1
 245.475 -0.174805 l 1
 115.525 -0.174805 l 1
EndSplineSet
MinimumDistance: x2,-1 
EndChar
StartChar: J
Encoding: 74 74
OldEncoding: 74
Width: 658
Flags: W
HStem: 993.08 20G<425.68 556.76>
VStem: -12.7598 132.21<207 321> 425.68 131.08<287 1009>
Fore
-12.7598 323.775 m 1
 119.45 323.775 l 1
 119.45 222.075 l 2
 119.45 184.409 129.62 155.028 149.96 133.935 c 1
 168.04 109.828 192.523 94.3848 223.41 87.6055 c 1
 260.7 83.085 l 1
 314.187 83.085 357.504 103.049 390.65 142.975 c 0
 414.004 172.355 425.68 233.375 425.68 326.035 c 2
 425.68 1013.08 l 1
 556.76 1013.08 l 1
 556.76 211.905 l 1
 543.2 120.751 501.014 52.1982 430.2 6.24512 c 0
 387.26 -20.875 321.72 -33.3047 233.58 -31.0449 c 0
 149.206 -28.7852 86.6797 0.594727 46 57.0947 c 0
 6.82617 112.088 -12.7598 165.198 -12.7598 216.425 c 2
 -12.7598 323.775 l 1
EndSplineSet
MinimumDistance: x9,-1 
EndChar
StartChar: K
Encoding: 75 75
OldEncoding: 75
Width: 866
Flags: W
HStem: -0.174805 21G<49.6553 181.865 700.535 850.825> 991.17 20G<49.6553 181.865 683.585 855.345>
VStem: 49.6553 132.21<14 344 512 1008>
DStem: 347.975 509.455 436.115 598.725 700.535 -0.174805 850.825 -0.174805 683.585 1011.17 855.345 1011.17 181.865 511.715 436.115 598.725
Fore
49.6553 1011.17 m 1
 181.865 1011.17 l 1
 181.865 511.715 l 1
 683.585 1011.17 l 1
 855.345 1011.17 l 1
 436.115 598.725 l 1
 850.825 -0.174805 l 1
 700.535 -0.174805 l 1
 347.975 509.455 l 1
 181.865 344.475 l 1
 181.865 -0.174805 l 1
 49.6553 -0.174805 l 1
 49.6553 1011.17 l 1
EndSplineSet
MinimumDistance: x4,-1 
EndChar
StartChar: L
Encoding: 76 76
OldEncoding: 76
Width: 723
Flags: W
HStem: -0.174805 115.26<190 686> 991.17 20G<61.7949 191.745>
VStem: 61.7949 129.95<114 1008>
Fore
61.7949 1011.17 m 1
 191.745 1011.17 l 1
 191.745 115.085 l 1
 691.205 115.085 l 1
 691.205 -0.174805 l 1
 61.7949 -0.174805 l 1
 61.7949 1011.17 l 1
EndSplineSet
MinimumDistance: x3,-1 x0,2 y2,0 y2,1 y4,2 x2,4 x2,3 
EndChar
StartChar: M
Encoding: 77 77
OldEncoding: 77
Width: 1090
Flags: W
HStem: -0.174805 21G<37.1396 171.61 447.33 580.67 856.39 990.86> 991.17 20G<37.1396 222.46 805.54 990.86>
VStem: 37.1396 134.47<14 816> 856.39 134.47<14 816>
DStem: 171.61 821.335 222.46 1011.17 447.33 -0.174805 514 150.115 805.54 1011.17 856.39 821.335 514 150.115 580.67 -0.174805
Fore
580.67 -0.174805 m 1
 447.33 -0.174805 l 1
 171.61 821.335 l 1
 171.61 -0.174805 l 1
 37.1396 -0.174805 l 1
 37.1396 1011.17 l 1
 222.46 1011.17 l 1
 514 150.115 l 1
 805.54 1011.17 l 1
 990.86 1011.17 l 1
 990.86 -0.174805 l 1
 856.39 -0.174805 l 1
 856.39 821.335 l 1
 580.67 -0.174805 l 1
EndSplineSet
MinimumDistance: x9,-1 
EndChar
StartChar: N
Encoding: 78 78
OldEncoding: 78
Width: 943
Flags: W
HStem: -0.174805 21G<48.4346 178.385 690.275 840.565> 991.17 20G<48.4346 200.985 708.355 840.565>
VStem: 48.4346 129.95<14 800> 708.355 132.21<192 1008>
Fore
840.565 -0.174805 m 1
 690.275 -0.174805 l 1
 178.385 810.035 l 1
 178.385 -0.174805 l 1
 48.4346 -0.174805 l 1
 48.4346 1011.17 l 1
 200.985 1011.17 l 1
 708.355 191.925 l 1
 708.355 1011.17 l 1
 840.565 1011.17 l 1
 840.565 -0.174805 l 1
EndSplineSet
MinimumDistance: x0,-1 
EndChar
StartChar: O
Encoding: 79 79
OldEncoding: 79
Width: 1018
Flags: W
HStem: -32.0996 118.649<453 503> 912.58 117.52<453 503>
VStem: -9.16016 132.21<478 528> 836.08 131.08<478 528>
Fore
479 1030.1 m 0
 537.006 1030.1 598.026 1018.8 662.06 996.2 c 0
 723.08 973.6 765.644 950.246 789.75 926.14 c 1
 849.264 873.406 893.71 808.62 923.09 731.78 c 0
 952.47 658.706 967.16 580.736 967.16 497.87 c 0
 967.16 417.264 952.47 340.424 923.09 267.35 c 1
 895.97 191.264 851.523 126.1 789.75 71.8604 c 0
 765.644 51.5195 723.08 28.543 662.06 2.92969 c 0
 602.546 -20.4238 541.526 -32.0996 479 -32.0996 c 0
 419.486 -32.0996 359.22 -20.4238 298.2 2.92969 c 0
 243.96 21.7637 201.02 44.7402 169.38 71.8604 c 0
 107.606 125.347 62.7842 190.51 34.9102 267.35 c 1
 5.53027 340.424 -9.16016 417.264 -9.16016 497.87 c 0
 -9.16016 543.07 -3.13379 593.92 8.91992 650.42 c 0
 22.4805 708.426 42.0664 759.653 67.6797 804.1 c 0
 89.5264 844.78 123.427 885.46 169.38 926.14 c 0
 198.006 951.754 240.946 975.106 298.2 996.2 c 0
 363.74 1018.8 424.006 1030.1 479 1030.1 c 0
479 912.58 m 0
 434.554 912.58 389.73 903.916 344.53 886.59 c 0
 299.33 870.017 262.416 846.286 233.79 815.4 c 1
 202.15 783.76 175.03 737.43 152.43 676.41 c 1
 132.844 616.144 123.05 556.63 123.05 497.87 c 0
 123.05 434.59 132.844 376.206 152.43 322.72 c 0
 172.017 267.727 199.137 221.396 233.79 183.73 c 0
 293.304 118.943 375.04 86.5498 479 86.5498 c 0
 582.96 86.5498 664.696 118.943 724.21 183.73 c 1
 758.11 217.63 785.23 263.96 805.57 322.72 c 0
 825.91 385.246 836.08 443.63 836.08 497.87 c 0
 836.08 554.37 825.91 613.884 805.57 676.41 c 0
 784.477 735.924 757.356 782.254 724.21 815.4 c 0
 692.57 848.546 656.41 872.276 615.73 886.59 c 0
 570.53 903.916 524.954 912.58 479 912.58 c 0
EndSplineSet
MinimumDistance: x4,-1 
EndChar
StartChar: P
Encoding: 80 80
OldEncoding: 80
Width: 868
Flags: W
HStem: -0.174805 21G<71.0752 199.895> 428.095 115.26<200 537> 898.175 112.995<200 504>
VStem: 71.0752 128.82<14 428 558 896>
Fore
71.0752 -0.174805 m 1
 71.0752 1011.17 l 1
 493.695 1011.17 l 2
 570.535 1011.17 637.959 992.719 695.965 955.805 c 0
 750.959 919.645 784.858 856.365 797.665 765.965 c 1
 799.925 715.115 l 1
 799.925 620.948 771.299 549.759 714.045 501.545 c 0
 656.039 452.579 596.525 428.095 535.505 428.095 c 2
 199.895 428.095 l 1
 199.895 -0.174805 l 1
 71.0752 -0.174805 l 1
199.895 898.175 m 1
 199.895 543.355 l 1
 530.985 543.355 l 2
 552.831 543.355 582.211 558.799 619.125 589.685 c 1
 653.778 622.079 669.975 669.161 667.715 730.935 c 0
 665.455 788.941 644.738 832.259 605.565 860.885 c 0
 570.911 885.745 532.869 898.175 491.435 898.175 c 2
 199.895 898.175 l 1
EndSplineSet
MinimumDistance: x8,-1 x0,8 y8,0 y8,9 
EndChar
StartChar: Q
Encoding: 81 81
OldEncoding: 81
Width: 1018
Flags: W
HStem: -29.3047 118.649<453 487> 915.375 117.515<453 503>
VStem: -9.16016 132.21<481 531> 836.08 131.08<481 531>
DStem: 538.89 209.125 602.17 288.225 641.72 126.635 728.73 186.525 745.68 40.7549 823.65 109.685 889.19 -77.8945 955.86 3.46484
Fore
823.65 109.685 m 1
 955.86 3.46484 l 1
 889.19 -77.8945 l 1
 745.68 40.7549 l 1
 659.046 -3.69141 570.153 -27.0449 479 -29.3047 c 0
 419.486 -29.3047 359.22 -17.6279 298.2 5.72461 c 0
 243.96 24.5586 201.02 47.5352 169.38 74.6553 c 0
 107.606 128.142 62.7842 193.305 34.9102 270.145 c 1
 5.53027 343.219 -9.16016 420.059 -9.16016 500.665 c 0
 -9.16016 545.865 -3.13379 596.715 8.91992 653.215 c 0
 22.4805 711.222 42.0664 762.448 67.6797 806.895 c 0
 89.5264 847.575 123.427 888.255 169.38 928.935 c 0
 198.006 954.549 240.946 977.901 298.2 998.995 c 0
 363.74 1021.59 424.006 1032.89 479 1032.89 c 0
 537.006 1032.89 598.026 1021.59 662.06 998.995 c 0
 723.08 976.395 765.644 953.041 789.75 928.935 c 1
 849.264 876.201 893.71 811.415 923.09 734.575 c 0
 952.47 661.501 967.16 583.531 967.16 500.665 c 0
 967.16 428.345 955.86 357.531 933.26 288.225 c 0
 909.906 218.919 873.37 159.405 823.65 109.685 c 1
641.72 126.635 m 1
 538.89 209.125 l 1
 602.17 288.225 l 1
 728.73 186.525 l 1
 749.07 207.619 767.903 236.245 785.23 272.405 c 0
 803.31 310.825 816.116 346.985 823.65 380.885 c 0
 831.937 422.318 836.08 462.245 836.08 500.665 c 0
 836.08 557.165 825.91 616.679 805.57 679.205 c 0
 784.477 738.719 757.356 785.049 724.21 818.195 c 0
 692.57 851.342 656.41 875.071 615.73 889.385 c 0
 570.53 906.711 524.954 915.375 479 915.375 c 0
 434.554 915.375 389.73 906.711 344.53 889.385 c 0
 299.33 872.812 262.416 849.081 233.79 818.195 c 1
 202.15 786.555 175.03 740.225 152.43 679.205 c 1
 132.844 618.938 123.05 559.425 123.05 500.665 c 0
 123.05 437.385 132.844 379.001 152.43 325.515 c 0
 172.017 270.521 199.137 224.191 233.79 186.525 c 0
 293.304 121.738 375.04 89.3447 479 89.3447 c 0
 540.773 89.3447 595.014 101.775 641.72 126.635 c 1
EndSplineSet
MinimumDistance: x17,-1 
EndChar
StartChar: R
Encoding: 82 82
OldEncoding: 82
Width: 939
Flags: W
HStem: -0.174805 21G<68.2646 197.085 724.795 880.735> 434.875 115.26<198 549> 898.175 112.995<198 549>
VStem: 68.2646 128.82<14 432 558 896>
Fore
68.2646 -0.174805 m 1
 68.2646 1011.17 l 1
 519.135 1011.17 l 2
 620.081 1011.17 697.299 994.979 750.785 962.585 c 0
 808.039 928.685 838.925 859.379 843.445 754.665 c 0
 845.705 689.125 836.289 639.781 815.195 606.635 c 1
 799.375 578.009 763.969 542.225 708.975 499.285 c 1
 762.461 467.645 794.855 437.512 806.155 408.885 c 0
 817.455 379.505 824.235 323.381 826.495 240.515 c 0
 828.755 171.209 832.898 124.125 838.925 99.2646 c 0
 845.705 69.8848 859.642 47.6621 880.735 32.5947 c 1
 880.735 -0.174805 l 1
 724.795 -0.174805 l 1
 712.741 27.6982 702.948 70.2617 695.415 127.515 c 1
 695.415 245.035 l 2
 695.415 301.535 684.491 348.619 662.645 386.285 c 0
 642.305 418.679 598.235 434.875 530.435 434.875 c 2
 197.085 434.875 l 1
 197.085 -0.174805 l 1
 68.2646 -0.174805 l 1
523.655 898.175 m 2
 197.085 898.175 l 1
 197.085 550.135 l 1
 523.655 550.135 l 2
 637.409 550.135 699.935 601.361 711.235 703.815 c 1
 711.235 833.389 648.709 898.175 523.655 898.175 c 2
EndSplineSet
MinimumDistance: x17,-1 y17,0 y17,18 
EndChar
StartChar: S
Encoding: 83 83
OldEncoding: 83
Width: 871
Flags: W
HStem: 919.36 110.74<364 414>
VStem: 48.1934 120.911<702.4 750.99>
Fore
774.783 718.22 m 1
 650.483 718.22 l 1
 650.483 788.28 620.35 842.144 560.084 879.81 c 0
 530.703 897.137 503.584 908.06 478.724 912.58 c 0
 453.863 917.1 424.483 919.36 390.584 919.36 c 0
 319.018 919.36 265.153 902.41 228.993 868.51 c 0
 189.067 833.104 169.104 793.93 169.104 750.99 c 0
 169.104 728.39 174.377 708.05 184.924 689.97 c 0
 195.47 673.396 211.667 657.2 233.514 641.38 c 1
 255.359 629.326 302.443 613.506 374.764 593.92 c 2
 386.063 590.53 l 2
 471.943 570.19 555.188 547.967 635.794 523.86 c 1
 681.747 507.286 722.05 477.153 756.703 433.46 c 0
 792.109 389.014 809.813 343.437 809.813 296.73 c 0
 812.073 230.437 795.123 171.677 758.964 120.45 c 0
 723.558 71.4834 675.72 33.8164 615.453 7.4502 c 1
 549.16 -18.917 480.607 -32.0996 409.794 -32.0996 c 0
 335.214 -29.8398 273.439 -19.6699 224.474 -1.58984 c 0
 172.493 15.7363 126.917 48.1299 87.7432 95.5898 c 0
 58.3633 130.996 38.4004 165.65 27.8535 199.55 c 1
 20.3203 234.204 15.4238 275.26 13.1631 322.72 c 1
 134.073 322.72 l 1
 134.073 274.506 148.01 227.424 175.884 181.47 c 1
 203.004 132.504 254.607 102.37 330.693 91.0703 c 0
 357.813 88.0566 401.884 86.5498 462.903 86.5498 c 1
 528.443 93.3301 576.28 109.526 606.413 135.14 c 0
 650.859 172.807 673.084 217.63 673.084 269.61 c 0
 673.084 315.563 649.354 355.49 601.894 389.39 c 1
 563.474 408.977 492.283 430.446 388.323 453.8 c 0
 329.563 466.606 288.13 478.283 264.023 488.83 c 1
 182.663 517.08 l 1
 102.058 541.94 57.2334 603.714 48.1934 702.4 c 1
 48.1934 763.42 61.377 819.544 87.7432 870.77 c 0
 113.357 920.49 151.023 959.664 200.743 988.29 c 0
 251.217 1016.16 313.743 1030.1 388.323 1030.1 c 0
 493.79 1030.1 575.527 1012.4 633.533 976.99 c 0
 727.7 917.477 774.783 831.22 774.783 718.22 c 1
EndSplineSet
MinimumDistance: x6,-1 
EndChar
StartChar: T
Encoding: 84 84
OldEncoding: 84
Width: 799
Flags: W
HStem: -0.174805 21G<314.72 443.54> 898.175 112.995<-4 314 443 766>
VStem: 314.72 128.82<14 898>
Fore
314.72 -0.174805 m 1
 314.72 898.175 l 1
 -18.6299 898.175 l 1
 -18.6299 1011.17 l 1
 774.63 1011.17 l 1
 774.63 898.175 l 1
 443.54 898.175 l 1
 443.54 -0.174805 l 1
 314.72 -0.174805 l 1
EndSplineSet
MinimumDistance: x4,-1 y1,7 y1,0 x6,4 x6,5 x1,3 x1,2 
EndChar
StartChar: U
Encoding: 85 85
OldEncoding: 85
Width: 942
Flags: W
HStem: -31.0596 111.869<426 476> 993.06 20G<59.2148 189.165 707.835 837.785>
VStem: 59.2148 129.95<271 1009> 707.835 129.95<271 1009>
Fore
59.2148 1013.06 m 1
 189.165 1013.06 l 1
 189.165 290.99 l 2
 189.165 240.517 209.881 192.68 251.315 147.48 c 0
 293.501 103.033 359.419 80.8096 449.065 80.8096 c 0
 537.959 80.8096 603.499 103.033 645.685 147.48 c 0
 687.119 192.68 707.835 240.517 707.835 290.99 c 2
 707.835 1013.06 l 1
 837.785 1013.06 l 1
 837.785 284.21 l 2
 837.785 259.35 831.381 226.956 818.575 187.03 c 0
 806.521 150.87 785.805 116.216 756.425 83.0703 c 0
 727.799 49.9238 686.741 22.8037 633.255 1.70996 c 0
 579.015 -20.1367 517.619 -31.0596 449.065 -31.0596 c 0
 354.898 -31.0596 279.188 -14.1104 221.935 19.79 c 0
 165.435 54.4434 123.625 97.0068 96.5049 147.48 c 0
 71.6445 196.446 59.2148 242.023 59.2148 284.21 c 2
 59.2148 1013.06 l 1
EndSplineSet
MinimumDistance: x8,-1 
EndChar
StartChar: V
Encoding: 86 86
OldEncoding: 86
Width: 871
Flags: W
HStem: -0.174805 21G<346.07 485.06> 991.17 20G<-12.1396 126.85 703.15 842.14>
DStem: -12.1396 1011.17 126.85 1011.17 346.07 -0.174805 420.65 154.635
Fore
420.65 154.635 m 1
 703.15 1011.17 l 1
 842.14 1011.17 l 1
 485.06 -0.174805 l 1
 346.07 -0.174805 l 1
 -12.1396 1011.17 l 1
 126.85 1011.17 l 1
 420.65 154.635 l 1
EndSplineSet
MinimumDistance: x0,-1 
EndChar
StartChar: W
Encoding: 87 87
OldEncoding: 87
Width: 1233
Flags: W
HStem: -0.174805 21G<211.1 352.35 812.26 955.77> 991.17 20G<-45.4102 100.36 511.68 652.93 1069.9 1213.41>
DStem: 511.68 1011.17 581.74 823.595 287.94 196.445 352.35 -0.174805 581.74 823.595 652.93 1011.17 812.26 -0.174805 877.8 196.445
Fore
877.8 196.445 m 1
 1069.9 1011.17 l 1
 1213.41 1011.17 l 1
 955.77 -0.174805 l 1
 812.26 -0.174805 l 1
 581.74 823.595 l 1
 352.35 -0.174805 l 1
 211.1 -0.174805 l 1
 -45.4102 1011.17 l 1
 100.36 1011.17 l 1
 287.94 196.445 l 1
 511.68 1011.17 l 1
 652.93 1011.17 l 1
 877.8 196.445 l 1
EndSplineSet
MinimumDistance: x0,-1 
EndChar
StartChar: X
Encoding: 88 88
OldEncoding: 88
Width: 871
Flags: W
HStem: -0.174805 21G<-23.0498 138.54 686.59 847.05> 991.17 20G<1.80957 158.88 675.29 832.36>
DStem: 1.80957 1011.17 158.88 1011.17 332.9 518.495 416.52 624.715 332.9 518.495 416.52 412.275 -23.0498 -0.174805 138.54 -0.174805 675.29 1011.17 832.36 1011.17 416.52 624.715 494.49 518.495
Fore
832.36 1011.17 m 1
 494.49 518.495 l 1
 847.05 -0.174805 l 1
 686.59 -0.174805 l 1
 416.52 412.275 l 1
 138.54 -0.174805 l 1
 -23.0498 -0.174805 l 1
 332.9 518.495 l 1
 1.80957 1011.17 l 1
 158.88 1011.17 l 1
 416.52 624.715 l 1
 675.29 1011.17 l 1
 832.36 1011.17 l 1
EndSplineSet
MinimumDistance: x0,-1 
EndChar
StartChar: Y
Encoding: 89 89
OldEncoding: 89
Width: 871
Flags: W
HStem: -0.174805 21G<350.655 482.865> 991.17 20G<-35.8047 124.655 705.475 864.805>
VStem: 350.655 132.21<14 395>
Fore
-35.8047 1011.17 m 1
 124.655 1011.17 l 1
 416.195 520.755 l 1
 705.475 1011.17 l 1
 864.805 1011.17 l 1
 482.865 395.325 l 1
 482.865 -0.174805 l 1
 350.655 -0.174805 l 1
 350.655 395.325 l 1
 -35.8047 1011.17 l 1
EndSplineSet
MinimumDistance: x5,-1 
EndChar
StartChar: Z
Encoding: 90 90
OldEncoding: 90
Width: 799
Flags: W
HStem: -0.174805 115.26<165 761> 898.175 112.995<37 583>
DStem: 594.09 898.175 759.07 893.655 -9.33008 110.565 154.52 115.085
Fore
32.4805 898.175 m 1
 32.4805 1011.17 l 1
 759.07 1011.17 l 1
 759.07 893.655 l 1
 154.52 115.085 l 1
 761.33 115.085 l 1
 761.33 -0.174805 l 1
 -9.33008 -0.174805 l 1
 -9.33008 110.565 l 1
 594.09 898.175 l 1
 32.4805 898.175 l 1
EndSplineSet
MinimumDistance: x2,-1 
EndChar
StartChar: bracketleft
Encoding: 91 91
OldEncoding: 91
Width: 361
Flags: W
HStem: -279.205 103.96<190 320> 924.245 103.965<190 320>
VStem: 63.1152 117.52<-177 924>
Fore
63.1152 1028.21 m 1
 321.885 1028.21 l 1
 321.885 924.245 l 1
 180.635 924.245 l 1
 180.635 -175.245 l 1
 321.885 -175.245 l 1
 321.885 -279.205 l 1
 63.1152 -279.205 l 1
 63.1152 1028.21 l 1
EndSplineSet
MinimumDistance: x1,-1 x4,6 x4,5 x3,1 x3,2 
EndChar
StartChar: backslash
Encoding: 92 92
OldEncoding: 92
Width: 364
Flags: W
HStem: -26.7998 21G<295.56 371.27> 992.8 20G<-33.2695 42.4404>
DStem: -33.2695 1012.8 42.4404 1012.8 295.56 -26.7998 371.27 -26.7998
Fore
295.56 -26.7998 m 1
 -33.2695 1012.8 l 1
 42.4404 1012.8 l 1
 371.27 -26.7998 l 1
 295.56 -26.7998 l 1
EndSplineSet
EndChar
StartChar: bracketright
Encoding: 93 93
OldEncoding: 93
Width: 367
Flags: W
HStem: -281.335 103.96<29 143> 924.375 103.955<29 143>
VStem: 153.235 117.52<-178 924>
Fore
14.2451 924.375 m 1
 14.2451 1028.33 l 1
 270.755 1028.33 l 1
 270.755 -281.335 l 1
 14.2451 -281.335 l 1
 14.2451 -177.375 l 1
 153.235 -177.375 l 1
 153.235 924.375 l 1
 14.2451 924.375 l 1
EndSplineSet
MinimumDistance: x2,-1 x7,1 x7,0 x6,4 x6,5 
EndChar
StartChar: asciicircum
Encoding: 94 94
OldEncoding: 94
Width: 612
Flags: W
DStem: 238.345 965.355 286.935 846.705 22.5146 437.645 119.695 437.645 286.935 846.705 340.045 965.355 455.305 437.645 552.485 437.645
Fore
22.5146 437.645 m 1
 238.345 965.355 l 1
 340.045 965.355 l 1
 552.485 437.645 l 1
 455.305 437.645 l 1
 286.935 846.705 l 1
 119.695 437.645 l 1
 22.5146 437.645 l 1
EndSplineSet
MinimumDistance: x3,-1 
EndChar
StartChar: underscore
Encoding: 95 95
OldEncoding: 95
Width: 728
Flags: W
HStem: -160.965 68.9298<-60 758>
Fore
758.97 -92.0352 m 1
 758.97 -160.965 l 1
 -74.9697 -160.965 l 1
 -74.9697 -92.0352 l 1
 758.97 -92.0352 l 1
EndSplineSet
EndChar
StartChar: grave
Encoding: 96 96
OldEncoding: 96
Width: 249
Flags: W
Fore
16.6504 724.475 m 0
 16.6504 788.509 35.1064 837.852 72.0195 872.505 c 0
 109.687 905.651 150.366 925.615 194.06 932.395 c 1
 215.906 932.395 226.83 928.629 226.83 921.095 c 0
 226.83 918.081 224.57 914.315 220.05 909.795 c 1
 206.49 904.521 181.63 891.339 145.47 870.245 c 1
 116.09 850.658 99.1396 826.552 94.6201 797.925 c 1
 113.83 802.445 l 1
 138.69 806.965 l 1
 200.464 800.185 231.35 767.791 231.35 709.785 c 0
 231.35 682.665 223.063 659.688 206.49 640.855 c 0
 189.164 622.021 165.81 612.605 136.43 612.605 c 0
 58.8369 612.605 18.9102 649.895 16.6504 724.475 c 0
EndSplineSet
EndChar
StartChar: a
Encoding: 97 97
OldEncoding: 97
Width: 726
Flags: W
HStem: -16.0352 99.4395<242.301 259.055 265.902 288.261>
VStem: 11.6191 120.91<188.69 224> 492.999 123.17<222 368 494 588>
Fore
616.169 613.375 m 2
 616.169 125.215 l 2
 616.169 114.668 622.949 104.875 636.509 95.835 c 0
 650.822 87.5479 670.785 83.4043 696.398 83.4043 c 1
 696.398 -1.3457 l 1
 599.219 -16.0352 l 1
 535.938 3.55176 502.039 39.335 497.519 91.3145 c 1
 450.812 54.4014 413.898 28.7881 386.779 14.4746 c 0
 347.605 -5.86523 307.303 -16.0352 265.869 -16.0352 c 0
 189.029 -18.2949 126.879 2.04492 79.4189 44.9844 c 0
 31.959 86.418 9.3584 142.541 11.6191 213.354 c 0
 11.6191 263.828 27.0625 306.391 57.9492 341.045 c 1
 88.083 369.671 123.489 390.389 164.169 403.194 c 0
 194.303 412.988 226.695 420.521 261.349 425.795 c 0
 295.249 431.821 329.148 435.965 363.049 438.225 c 2
 435.369 445.005 l 1
 473.789 456.305 492.999 474.761 492.999 500.375 c 2
 492.999 588.515 l 1
 487.726 614.129 467.009 632.585 430.849 643.885 c 0
 389.415 658.198 343.085 664.225 291.858 661.965 c 0
 207.485 659.705 161.909 615.259 155.129 528.625 c 1
 46.6484 528.625 l 1
 48.9092 590.774 l 1
 56.4424 620.154 70.3789 647.274 90.7188 672.135 c 0
 112.565 699.255 139.686 719.971 172.079 734.285 c 1
 196.186 747.091 239.125 758.015 300.898 767.055 c 1
 351.373 767.055 399.209 762.911 444.409 754.625 c 0
 497.143 742.571 538.199 724.868 567.579 701.515 c 0
 599.973 676.654 616.169 647.274 616.169 613.375 c 2
492.999 226.915 m 2
 492.999 372.685 l 1
 468.139 362.139 437.253 354.604 400.339 350.085 c 2
 289.599 332.005 l 1
 257.205 325.225 227.825 317.314 201.459 308.274 c 1
 185.639 299.988 170.195 287.559 155.129 270.984 c 0
 140.062 255.919 132.529 235.201 132.529 208.835 c 0
 132.529 166.648 144.583 135.761 168.688 116.175 c 0
 196.562 94.3281 226.695 83.4043 259.089 83.4043 c 0
 300.522 81.1445 341.579 90.5615 382.259 111.654 c 0
 416.159 128.981 443.279 149.698 463.619 173.805 c 0
 483.205 198.665 492.999 216.368 492.999 226.915 c 2
EndSplineSet
MinimumDistance: x0,-1 
EndChar
StartChar: b
Encoding: 98 98
OldEncoding: 98
Width: 726
Flags: W
HStem: -31.0596 111.869<332 358> 1.70996 21G<28.4951 130.195> 993.06 20G<28.4951 146.015>
VStem: 28.4951 115.26<319 373 643 1009>
Fore
28.4951 1013.06 m 1
 146.015 1013.06 l 1
 146.015 642.42 l 1
 155.809 662.76 178.031 684.606 212.685 707.96 c 1
 239.805 722.273 263.159 732.82 282.745 739.6 c 0
 312.879 747.887 342.259 752.03 370.885 752.03 c 0
 455.259 752.03 526.071 721.144 583.325 659.37 c 0
 605.925 635.264 623.629 608.896 636.435 580.27 c 1
 653.762 547.124 665.438 514.73 671.465 483.09 c 0
 677.491 452.204 680.505 414.536 680.505 370.09 c 1
 678.245 316.98 l 1
 675.985 250.687 658.281 187.406 625.135 127.14 c 0
 593.495 66.1201 551.685 23.5566 499.705 -0.549805 c 0
 459.778 -20.8896 411.941 -31.0596 356.195 -31.0596 c 0
 302.709 -31.0596 261.275 -20.8896 231.895 -0.549805 c 0
 179.915 34.1035 146.015 61.9766 130.195 83.0703 c 1
 130.195 1.70996 l 1
 28.4951 1.70996 l 1
 28.4951 1013.06 l 1
486.145 147.48 m 0
 527.579 204.733 548.295 277.43 548.295 365.57 c 0
 548.295 407.756 543.775 446.177 534.735 480.83 c 0
 528.709 510.964 516.278 538.084 497.445 562.19 c 1
 467.312 611.91 416.461 635.64 344.895 633.38 c 0
 283.121 633.38 235.285 610.403 201.385 564.45 c 1
 185.565 539.59 172.381 510.21 161.835 476.31 c 0
 149.781 431.863 143.755 389.3 143.755 348.62 c 0
 143.755 277.807 160.705 214.526 194.605 158.78 c 0
 223.985 113.58 270.315 87.5898 333.595 80.8096 c 1
 404.409 80.8096 455.259 103.033 486.145 147.48 c 0
EndSplineSet
MinimumDistance: x25,-1 
EndChar
StartChar: c
Encoding: 99 99
OldEncoding: 99
Width: 653
Flags: W
Fore
509.685 268.73 m 1
 621.555 268.73 l 1
 619.295 208.465 606.111 159.121 582.005 120.701 c 0
 556.392 77.0078 518.725 43.1074 469.005 19.001 c 0
 414.012 -6.6123 360.525 -18.2891 308.545 -16.0293 c 0
 261.839 -16.0293 210.988 -1.33887 155.995 28.041 c 0
 109.289 54.4072 74.6348 91.6973 52.0352 139.911 c 0
 19.6416 207.711 3.44531 290.201 3.44531 387.381 c 0
 5.70508 497.367 40.3584 590.404 107.405 666.491 c 1
 162.398 731.277 235.095 764.801 325.495 767.061 c 0
 367.682 767.061 406.102 761.411 440.755 750.11 c 0
 477.669 738.811 507.802 722.614 531.155 701.521 c 1
 558.275 685.701 578.991 659.711 593.305 623.551 c 0
 609.879 586.637 619.295 545.581 621.555 500.381 c 1
 505.165 500.381 l 1
 497.631 543.32 489.345 573.454 480.305 590.781 c 0
 467.499 611.121 450.549 626.564 429.455 637.11 c 0
 396.309 652.177 363.161 659.711 330.015 659.711 c 0
 275.775 657.451 227.938 632.215 186.505 584.001 c 0
 150.345 542.567 131.135 482.301 128.875 403.201 c 1
 123.602 317.32 132.642 251.781 155.995 206.581 c 0
 193.661 130.494 253.929 93.5811 336.795 95.8408 c 0
 364.669 95.8408 393.295 104.127 422.675 120.701 c 0
 449.795 138.027 467.499 155.73 475.785 173.811 c 0
 493.865 209.217 505.165 240.857 509.685 268.73 c 1
EndSplineSet
EndChar
StartChar: d
Encoding: 100 100
OldEncoding: 100
Width: 731
Flags: W
HStem: -0.549805 21G<543.675 645.375> 631.12 120.91<301 330> 993.06 20G<530.115 645.375>
VStem: 530.115 115.26<319 374 643 1009>
Fore
530.115 1013.06 m 1
 645.375 1013.06 l 1
 645.375 -0.549805 l 1
 543.675 -0.549805 l 1
 543.675 85.3301 l 1
 512.035 47.6631 478.889 18.2832 444.235 -2.80957 c 0
 415.608 -21.6436 373.799 -31.0596 318.805 -31.0596 c 0
 263.812 -31.0596 215.222 -20.8896 173.035 -0.549805 c 0
 124.068 23.5566 84.1416 65.3662 53.2549 124.88 c 0
 23.1221 179.874 4.66504 242.776 -2.11523 313.59 c 1
 -4.375 372.35 l 1
 -4.375 425.084 3.91211 478.193 20.4854 531.68 c 0
 37.8115 585.92 61.165 627.73 90.5449 657.11 c 0
 153.825 720.39 224.639 752.03 302.985 752.03 c 0
 364.005 752.03 417.115 737.34 462.315 707.96 c 1
 496.215 683.854 518.815 662.006 530.115 642.42 c 1
 530.115 1013.06 l 1
187.725 145.22 m 0
 222.379 100.02 273.229 78.5498 340.275 80.8096 c 0
 367.395 80.8096 395.269 88.3438 423.895 103.41 c 0
 448.001 116.97 467.211 135.427 481.525 158.78 c 0
 513.919 213.773 530.115 276.3 530.115 346.36 c 0
 530.115 392.313 523.711 435.63 510.905 476.31 c 0
 500.358 513.224 488.305 541.85 474.745 562.19 c 1
 440.091 608.144 391.501 631.12 328.975 631.12 c 0
 258.915 631.12 208.065 608.144 176.425 562.19 c 0
 141.771 513.977 124.445 447.307 124.445 362.18 c 0
 124.445 275.546 145.539 203.227 187.725 145.22 c 0
EndSplineSet
MinimumDistance: x1,-1 
EndChar
StartChar: e
Encoding: 101 101
OldEncoding: 101
Width: 728
Flags: W
HStem: -16.0508 101.7<330 364> 334.249 103.96<142 540> 672.119 94.92<362 372>
Fore
668.83 334.249 m 1
 136.6 334.249 l 1
 136.6 300.35 138.86 273.229 143.38 252.89 c 0
 147.146 234.056 158.07 208.443 176.15 176.05 c 1
 219.09 115.782 273.706 85.6494 340 85.6494 c 0
 373.146 85.6494 402.526 91.2998 428.14 102.6 c 0
 451.494 113.899 470.704 127.836 485.77 144.409 c 0
 501.59 162.489 512.514 179.439 518.54 195.26 c 2
 534.36 239.329 l 1
 651.88 239.329 l 1
 639.073 177.556 617.604 128.966 587.47 93.5596 c 0
 558.844 57.3994 524.943 31.0322 485.77 14.459 c 0
 441.323 -5.88086 393.486 -16.0508 342.26 -16.0508 c 0
 291.034 -16.0508 243.196 -5.88086 198.75 14.459 c 0
 150.536 37.0596 112.87 66.4395 85.75 102.6 c 0
 36.0303 165.879 11.1699 256.655 11.1699 374.93 c 0
 13.4297 498.476 43.5635 592.643 101.57 657.43 c 0
 170.876 732.763 260.523 769.299 370.51 767.039 c 0
 391.604 767.039 419.1 761.39 453 750.089 c 0
 481.626 741.049 507.994 728.619 532.1 712.799 c 1
 557.714 693.213 575.416 676.263 585.21 661.949 c 0
 610.823 628.803 629.28 595.655 640.58 562.51 c 0
 654.894 522.583 662.804 493.579 664.31 475.499 c 1
 668.83 334.249 l 1
141.12 438.209 m 1
 541.14 438.209 l 1
 541.14 466.836 535.113 499.983 523.06 537.649 c 0
 512.514 570.796 500.836 593.773 488.03 606.579 c 1
 481.25 623.905 465.807 637.843 441.7 648.39 c 0
 410.06 664.209 383.693 672.119 362.6 672.119 c 0
 290.28 674.379 237.17 652.533 203.27 606.579 c 1
 191.97 597.539 178.786 575.315 163.72 539.909 c 0
 151.666 511.283 144.134 477.383 141.12 438.209 c 1
EndSplineSet
EndChar
StartChar: f
Encoding: 102 102
OldEncoding: 102
Width: 364
Flags: W
HStem: -0.43457 21G<101.07 218.59> 622.195 106.22<18 100 219 324> 913.735 101.695<273.96 336.11>
VStem: 101.07 117.52<14 622 728 851>
Fore
101.07 -0.43457 m 1
 101.07 622.195 l 1
 3.88965 622.195 l 1
 3.88965 728.415 l 1
 101.07 728.415 l 1
 101.07 851.585 l 2
 101.07 899.045 116.514 938.219 147.4 969.105 c 0
 176.026 996.979 199.756 1010.92 218.59 1010.92 c 1
 233.656 1013.93 252.113 1015.43 273.96 1015.43 c 0
 297.313 1015.43 318.03 1013.93 336.11 1010.92 c 1
 336.11 913.735 l 1
 290.91 913.735 260.4 909.215 244.58 900.175 c 1
 227.254 887.369 218.59 865.521 218.59 834.635 c 2
 218.59 728.415 l 1
 333.85 728.415 l 1
 333.85 622.195 l 1
 218.59 622.195 l 1
 218.59 -0.43457 l 1
 101.07 -0.43457 l 1
EndSplineSet
MinimumDistance: x14,-1 y1,17 y1,0 x13,15 x13,14 x1,3 x1,2 
EndChar
StartChar: g
Encoding: 103 103
OldEncoding: 103
Width: 731
Flags: W
HStem: 741.11 20G<521.465 636.725>
Fore
521.465 761.11 m 1
 636.725 761.11 l 1
 636.725 155.43 l 2
 636.725 101.19 632.205 40.1699 623.165 -27.6299 c 1
 614.125 -77.3496 597.175 -122.174 572.315 -162.1 c 0
 547.455 -199.767 510.919 -226.887 462.705 -243.46 c 0
 421.271 -256.267 381.345 -265.307 342.925 -270.58 c 1
 267.591 -270.58 212.975 -263.8 179.075 -250.24 c 0
 137.642 -233.666 106.001 -214.456 84.1553 -192.61 c 0
 59.2949 -167.75 43.8516 -143.644 37.8252 -120.29 c 0
 30.292 -99.1963 25.3945 -76.2197 23.1348 -51.3604 c 1
 141.785 -51.3604 l 1
 148.565 -73.96 l 1
 151.579 -88.2734 154.591 -97.6904 157.605 -102.21 c 0
 160.619 -111.25 167.775 -118.784 179.075 -124.81 c 1
 190.375 -136.11 204.688 -145.526 222.015 -153.06 c 0
 243.861 -163.606 273.995 -168.88 312.415 -168.88 c 0
 351.589 -168.88 387.371 -162.854 419.765 -150.8 c 1
 451.405 -132.72 471.369 -116.523 479.655 -102.21 c 0
 490.201 -85.6367 498.488 -62.2832 504.515 -32.1504 c 0
 515.815 12.2969 521.465 63.1465 521.465 120.4 c 1
 449.898 37.5332 370.421 -2.76953 283.035 -0.509766 c 0
 232.562 1.75 181.711 23.5967 130.485 65.0303 c 1
 89.8047 90.6436 58.165 129.063 35.5654 180.29 c 0
 12.9648 234.53 0.535156 291.03 -1.72461 349.79 c 1
 -1.72461 410.81 5.05469 469.946 18.6152 527.2 c 0
 33.6816 586.714 53.6445 633.796 78.5049 668.45 c 1
 96.585 691.05 126.719 715.91 168.905 743.03 c 1
 215.611 769.396 263.448 782.58 312.415 782.58 c 0
 394.528 780.32 464.211 743.783 521.465 672.97 c 1
 521.465 761.11 l 1
455.925 166.73 m 0
 499.619 212.684 521.465 284.25 521.465 381.43 c 0
 521.465 431.903 515.815 475.974 504.515 513.64 c 0
 493.969 552.06 477.019 582.946 453.665 606.3 c 1
 446.885 615.34 429.935 626.264 402.815 639.07 c 0
 379.461 649.616 353.472 654.89 324.845 654.89 c 0
 245.745 654.89 189.999 619.483 157.605 548.67 c 0
 136.512 502.717 124.835 447.724 122.575 383.69 c 0
 120.315 303.836 135.759 239.05 168.905 189.33 c 1
 206.571 137.35 253.655 111.36 310.155 111.36 c 0
 371.929 109.1 420.519 127.557 455.925 166.73 c 0
EndSplineSet
EndChar
StartChar: h
Encoding: 104 104
OldEncoding: 104
Width: 728
Flags: W
HStem: -0.174805 21G<52.7197 167.98 513.76 631.28> 642.795 107.35<328.44 392.85> 991.17 20G<52.7197 167.98>
VStem: 52.7197 115.26<14 480 641 1008> 513.76 117.52<14 512>
Fore
52.7197 -0.174805 m 1
 52.7197 1011.17 l 1
 167.98 1011.17 l 1
 167.98 640.535 l 1
 205.646 680.461 247.456 710.595 293.41 730.935 c 1
 343.13 743.741 376.276 750.145 392.85 750.145 c 0
 420.724 750.145 458.767 741.858 506.98 725.285 c 2
 511.5 724.155 l 2
 558.96 706.075 590.224 679.709 605.29 645.055 c 0
 622.616 608.142 631.28 577.255 631.28 552.395 c 2
 631.28 -0.174805 l 1
 513.76 -0.174805 l 1
 513.76 497.025 l 2
 513.76 563.318 493.42 605.881 452.74 624.715 c 1
 414.32 636.769 372.887 642.795 328.44 642.795 c 1
 293.786 636.015 255.744 615.299 214.31 580.645 c 1
 183.424 551.265 167.98 515.858 167.98 474.425 c 2
 167.98 -0.174805 l 1
 52.7197 -0.174805 l 1
EndSplineSet
MinimumDistance: x9,-1 
EndChar
StartChar: i
Encoding: 105 105
OldEncoding: 105
Width: 290
Flags: W
HStem: -0.174805 21G<75.3701 190.63> 991.17 20G<75.3701 190.63>
VStem: 75.3701 115.26<14 720 878 1008>
Fore
190.63 728.675 m 1
 190.63 -0.174805 l 1
 75.3701 -0.174805 l 1
 75.3701 728.675 l 1
 190.63 728.675 l 1
190.63 1011.17 m 1
 190.63 867.665 l 1
 75.3701 867.665 l 1
 75.3701 1011.17 l 1
 190.63 1011.17 l 1
EndSplineSet
MinimumDistance: x0,-1 
EndChar
StartChar: j
Encoding: 106 106
OldEncoding: 106
Width: 296
Flags: W
HStem: 726.095 20G<84.1953 201.715> 1008.59 20G<84.1953 201.715>
VStem: 84.1953 117.52<-127 739 897 1027>
Fore
84.1953 885.085 m 1
 84.1953 1028.59 l 1
 201.715 1028.59 l 1
 201.715 885.085 l 1
 84.1953 885.085 l 1
-36.7148 -285.595 m 1
 -36.7148 -183.895 l 1
 33.3447 -177.115 l 2
 51.4248 -174.855 64.6084 -167.321 72.8945 -154.515 c 0
 80.4287 -140.955 84.1953 -128.525 84.1953 -117.225 c 2
 84.1953 746.095 l 1
 201.715 746.095 l 1
 201.715 -142.085 l 2
 201.715 -167.698 194.182 -194.065 179.115 -221.185 c 1
 162.541 -246.799 134.669 -265.255 95.4951 -276.555 c 0
 71.3887 -282.581 27.3184 -285.595 -36.7148 -285.595 c 1
EndSplineSet
MinimumDistance: x2,-1 
EndChar
StartChar: k
Encoding: 107 107
OldEncoding: 107
Width: 649
Flags: W
HStem: -0.174805 21G<36.6396 151.9 507.85 651.36> 991.17 20G<36.6396 151.9>
VStem: 36.6396 115.26<14 274 426 1008>
DStem: 270.55 388.545 355.3 476.685 507.85 -0.174805 651.36 -0.174805 459.26 728.675 610.68 728.675 151.9 425.835 355.3 476.685
Fore
36.6396 1011.17 m 1
 151.9 1011.17 l 1
 151.9 425.835 l 1
 459.26 728.675 l 1
 610.68 728.675 l 1
 355.3 476.685 l 1
 651.36 -0.174805 l 1
 507.85 -0.174805 l 1
 270.55 388.545 l 1
 151.9 273.285 l 1
 151.9 -0.174805 l 1
 36.6396 -0.174805 l 1
 36.6396 1011.17 l 1
EndSplineSet
EndChar
StartChar: l
Encoding: 108 108
OldEncoding: 108
Width: 289
Flags: W
HStem: -0.174805 21G<77.3701 192.63> 991.17 20G<77.3701 192.63>
VStem: 77.3701 115.26<14 1008>
Fore
77.3701 -0.174805 m 1
 77.3701 1011.17 l 1
 192.63 1011.17 l 1
 192.63 -0.174805 l 1
 77.3701 -0.174805 l 1
EndSplineSet
MinimumDistance: x2,-1 
EndChar
StartChar: m
Encoding: 109 109
OldEncoding: 109
Width: 1090
Flags: W
HStem: 657.81 107.35<318 337 736.74 763.86>
VStem: 32.75 115.26<29 484 652 743> 454.24 115.26<29 509> 875.73 117.52<29 535>
Fore
32.75 14.8398 m 1
 32.75 743.69 l 1
 148.01 743.69 l 1
 148.01 651.03 l 1
 178.896 697.736 204.51 725.61 224.85 734.65 c 1
 262.517 754.99 308.094 765.16 361.58 765.16 c 0
 417.326 765.16 458.006 755.744 483.62 736.91 c 1
 516.014 715.816 541.626 688.696 560.46 655.55 c 1
 593.23 695.1 l 2
 599.256 702.634 608.296 712.05 620.35 723.35 c 0
 629.39 730.13 641.82 737.664 657.64 745.95 c 1
 692.294 758.756 727.7 765.16 763.86 765.16 c 0
 830.153 765.16 875.73 757.25 900.59 741.43 c 1
 915.656 733.896 930.347 721.467 944.66 704.14 c 1
 959.727 689.073 972.156 669.863 981.95 646.51 c 0
 989.483 623.91 993.25 603.193 993.25 584.36 c 2
 993.25 14.8398 l 1
 875.73 14.8398 l 1
 875.73 535.77 l 1
 862.924 617.13 816.594 657.81 736.74 657.81 c 0
 684.76 657.81 645.964 643.874 620.35 616 c 0
 593.23 588.88 576.28 553.474 569.5 509.78 c 1
 569.5 14.8398 l 1
 454.24 14.8398 l 1
 454.24 538.03 l 2
 454.24 604.323 421.47 643.12 355.93 654.42 c 0
 344.63 656.68 332.576 657.81 319.77 657.81 c 0
 273.063 657.81 233.89 641.613 202.25 609.22 c 0
 172.116 577.58 154.036 536.146 148.01 484.92 c 1
 148.01 14.8398 l 1
 32.75 14.8398 l 1
EndSplineSet
MinimumDistance: x15,-1 
EndChar
StartChar: n
Encoding: 110 110
OldEncoding: 110
Width: 728
Flags: W
VStem: 52.7197 115.26<29 431 652 734> 516.02 115.26<29 527>
Fore
52.7197 743.673 m 1
 167.98 743.673 l 1
 167.98 651.014 l 1
 199.62 693.953 227.494 721.073 251.6 732.373 c 1
 287.76 756.479 336.35 767.403 397.37 765.144 c 0
 447.09 765.144 486.64 758.739 516.02 745.934 c 1
 542.387 731.619 567.624 712.409 591.73 688.304 c 1
 611.316 666.457 624.5 631.05 631.28 582.083 c 1
 631.28 14.8232 l 1
 516.02 14.8232 l 1
 516.02 522.193 l 2
 516.02 547.807 509.616 572.29 496.81 595.644 c 1
 481.744 618.243 463.286 633.688 441.44 641.974 c 1
 422.606 652.52 398.876 657.793 370.25 657.793 c 0
 312.996 657.793 265.16 637.83 226.74 597.903 c 0
 187.566 558.729 167.98 493.189 167.98 401.283 c 2
 167.98 14.8232 l 1
 52.7197 14.8232 l 1
 52.7197 743.673 l 1
EndSplineSet
MinimumDistance: x7,-1 
EndChar
StartChar: o
Encoding: 111 111
OldEncoding: 111
Width: 729
Flags: W
HStem: -16.0449 118.65<326 344> 650.655 116.39<326 344>
VStem: 7.16992 118.65<350 400> 543.92 120.91<350 400>
Fore
62.54 127.465 m 0
 25.627 189.991 7.16992 272.481 7.16992 374.935 c 0
 7.16992 478.142 25.627 561.009 62.54 623.535 c 0
 94.1797 674.009 133.73 710.921 181.19 734.275 c 0
 227.896 756.121 279.5 767.045 336 767.045 c 0
 388.733 767.045 440.336 755.369 490.81 732.015 c 0
 537.517 709.415 575.937 673.255 606.07 623.535 c 0
 645.244 558.749 664.83 475.881 664.83 374.935 c 0
 664.83 277.001 645.244 194.512 606.07 127.465 c 0
 575.937 77.7451 537.517 41.585 490.81 18.9854 c 0
 440.336 -4.36816 388.733 -16.0449 336 -16.0449 c 0
 283.267 -16.0449 231.664 -4.36816 181.19 18.9854 c 0
 132.224 43.0918 92.6738 79.252 62.54 127.465 c 0
336 102.605 m 0
 373.666 102.605 407.566 111.645 437.7 129.725 c 0
 467.08 147.052 490.057 174.925 506.63 213.345 c 0
 531.49 271.352 543.92 325.215 543.92 374.935 c 0
 543.92 429.929 531.49 484.921 506.63 539.915 c 0
 490.81 576.829 467.834 604.701 437.7 623.535 c 1
 404.554 641.615 370.653 650.655 336 650.655 c 0
 299.84 650.655 265.187 642.369 232.04 625.795 c 0
 195.88 606.209 170.267 577.581 155.2 539.915 c 1
 134.86 447.255 l 1
 128.834 423.901 125.82 399.795 125.82 374.935 c 0
 125.82 327.475 137.874 273.611 161.98 213.345 c 0
 177.8 177.938 201.906 150.065 234.3 129.725 c 0
 263.68 111.645 297.58 102.605 336 102.605 c 0
EndSplineSet
MinimumDistance: x7,-1 
EndChar
StartChar: p
Encoding: 112 112
OldEncoding: 112
Width: 726
Flags: W
HStem: -270.58 21G<28.4951 146.015> -0.509766 120.91<343 370> 741.11 20G<28.4951 130.195>
VStem: 28.4951 115.26<-256 98 381 434>
Fore
146.015 -270.58 m 1
 28.4951 -270.58 l 1
 28.4951 761.11 l 1
 130.195 761.11 l 1
 130.195 668.45 l 1
 146.769 694.816 179.915 723.443 229.635 754.33 c 0
 260.521 773.164 301.955 782.58 353.935 782.58 c 0
 406.669 782.58 455.259 772.41 499.705 752.07 c 0
 553.945 725.704 595.755 683.894 625.135 626.64 c 0
 658.281 563.36 675.985 500.08 678.245 436.8 c 1
 680.505 383.69 l 1
 680.505 327.943 672.219 273.326 655.645 219.84 c 0
 639.071 167.86 614.965 126.05 583.325 94.4102 c 0
 522.305 31.1299 451.491 -0.509766 370.885 -0.509766 c 0
 309.865 -0.509766 257.131 14.1797 212.685 43.5596 c 1
 178.785 68.4199 156.562 91.0195 146.015 111.36 c 1
 146.015 -270.58 l 1
486.145 606.3 m 0
 451.491 653.006 400.642 675.23 333.595 672.97 c 0
 314.009 672.97 286.889 665.437 252.235 650.37 c 1
 225.869 632.29 206.659 613.08 194.605 592.74 c 0
 160.705 537.746 143.755 475.22 143.755 405.16 c 0
 143.755 365.233 149.781 324.177 161.835 281.99 c 0
 174.642 242.063 187.825 211.177 201.385 189.33 c 1
 220.972 165.977 242.441 149.026 265.795 138.48 c 0
 293.669 126.427 320.035 120.4 344.895 120.4 c 0
 414.955 120.4 465.805 143.377 497.445 189.33 c 0
 531.345 237.544 548.295 303.084 548.295 385.95 c 0
 548.295 475.597 527.579 549.046 486.145 606.3 c 0
EndSplineSet
MinimumDistance: x20,-1 
EndChar
StartChar: q
Encoding: 113 113
OldEncoding: 113
Width: 731
Flags: W
HStem: -270.58 21G<530.115 645.375> -0.509766 120.91<301 330> 741.11 20G<543.675 645.375>
VStem: 530.115 115.26<-256 98 403 431.708>
Fore
645.375 -270.58 m 1
 530.115 -270.58 l 1
 530.115 111.36 l 1
 519.568 88.7598 496.969 66.1602 462.315 43.5596 c 0
 417.115 14.1797 364.005 -0.509766 302.985 -0.509766 c 0
 224.639 -0.509766 153.825 31.1299 90.5449 94.4102 c 0
 27.2646 159.95 -4.375 254.87 -4.375 379.17 c 1
 -2.11523 436.8 l 1
 4.66504 506.106 23.1221 569.387 53.2549 626.64 c 0
 83.3887 684.646 123.315 726.456 173.035 752.07 c 0
 215.222 772.41 263.812 782.58 318.805 782.58 c 0
 370.785 782.58 412.595 773.164 444.235 754.33 c 0
 487.175 727.21 520.321 698.584 543.675 668.45 c 1
 543.675 761.11 l 1
 645.375 761.11 l 1
 645.375 -270.58 l 1
187.725 606.3 m 1
 143.278 548.294 122.185 474.09 124.445 383.69 c 0
 124.445 303.836 141.771 239.05 176.425 189.33 c 0
 208.065 143.377 258.915 120.4 328.975 120.4 c 0
 357.602 120.4 385.099 126.427 411.465 138.48 c 0
 433.312 148.273 454.405 165.224 474.745 189.33 c 1
 503.371 231.517 521.075 285.756 527.855 352.05 c 1
 530.115 402.9 l 1
 530.115 470.7 513.919 533.98 481.525 592.74 c 0
 467.211 616.094 448.755 634.55 426.155 648.11 c 0
 394.515 664.684 365.889 672.97 340.275 672.97 c 0
 270.215 675.23 219.365 653.006 187.725 606.3 c 1
EndSplineSet
MinimumDistance: x0,-1 
EndChar
StartChar: r
Encoding: 114 114
OldEncoding: 114
Width: 431
Flags: W
HStem: 745.16 20G<348.545 415.215>
VStem: 63.7852 117.52<29 415 631 735>
Fore
63.7852 14.8398 m 1
 63.7852 743.69 l 1
 181.305 743.69 l 1
 181.305 630.69 l 1
 202.398 669.11 229.519 701.504 262.665 727.87 c 0
 292.799 750.47 321.425 762.9 348.545 765.16 c 1
 415.215 765.16 l 1
 415.215 641.99 l 1
 370.015 641.99 333.102 636.717 304.475 626.17 c 1
 263.041 607.336 232.155 580.217 211.815 544.81 c 1
 191.475 504.884 181.305 454.786 181.305 394.52 c 2
 181.305 14.8398 l 1
 63.7852 14.8398 l 1
EndSplineSet
MinimumDistance: x2,-1 
EndChar
StartChar: s
Encoding: 115 115
OldEncoding: 115
Width: 654
Flags: W
VStem: 27.4102 111.87<540 560> 483.93 113<190 208>
Fore
7.07031 231.464 m 1
 117.81 231.464 l 1
 124.59 202.084 130.24 180.614 134.76 167.054 c 0
 139.28 156.508 149.826 143.324 166.4 127.504 c 1
 182.22 114.697 207.834 102.644 243.24 91.3438 c 1
 263.58 87.5771 298.233 85.6943 347.2 85.6943 c 1
 391.646 93.9805 421.78 104.15 437.6 116.204 c 0
 448.9 122.984 459.823 136.168 470.37 155.754 c 0
 479.41 171.574 483.93 187.771 483.93 204.344 c 0
 483.93 249.544 457.563 280.431 404.83 297.004 c 1
 340.42 312.824 l 1
 263.58 332.034 l 1
 194.65 350.114 l 2
 167.53 356.894 147.566 363.674 134.76 370.454 c 1
 63.1934 396.067 27.4102 455.58 27.4102 548.994 c 0
 27.4102 616.794 53.7764 669.904 106.51 708.324 c 1
 156.983 747.498 220.264 767.084 296.35 767.084 c 0
 471.876 767.084 562.276 692.128 567.55 542.214 c 1
 451.16 542.214 l 1
 451.16 573.854 440.613 600.974 419.52 623.574 c 1
 397.674 643.914 352.85 655.214 285.05 657.474 c 1
 213.483 652.954 166.4 627.718 143.8 581.764 c 1
 140.786 572.724 139.28 561.048 139.28 546.734 c 0
 139.28 513.588 152.464 491.364 178.83 480.064 c 2
 221.77 460.854 l 1
 276.01 447.294 l 1
 349.46 425.824 l 1
 418.767 414.524 475.267 396.067 518.96 370.454 c 0
 570.94 341.828 596.93 281.938 596.93 190.784 c 1
 592.41 152.364 578.474 118.087 555.12 87.9541 c 0
 531.014 54.0537 500.88 29.5703 464.72 14.5039 c 0
 425.546 -3.57617 381.854 -13.7461 333.64 -16.0059 c 0
 280.906 -18.2656 233.823 -14.876 192.39 -5.83594 c 0
 68.8438 19.0244 7.07031 98.124 7.07031 231.464 c 1
EndSplineSet
MinimumDistance: x28,-1 
EndChar
StartChar: t
Encoding: 116 116
OldEncoding: 116
Width: 365
Flags: W
HStem: 629.28 106.22<11 98 218 317>
VStem: 98.5254 118.65<116 629 735 918>
Fore
217.175 932.12 m 1
 217.175 735.5 l 1
 330.175 735.5 l 1
 330.175 629.28 l 1
 217.175 629.28 l 1
 217.175 121.91 l 2
 217.175 94.79 237.139 81.2305 277.065 81.2305 c 1
 330.175 85.75 l 1
 330.175 -15.9502 l 1
 303.055 -22.7305 261.621 -26.1201 205.875 -26.1201 c 1
 170.469 -21.5996 143.349 -7.66309 124.515 15.6904 c 1
 107.188 41.3037 98.5254 62.0195 98.5254 77.8398 c 2
 98.5254 629.28 l 1
 -3.1748 629.28 l 1
 -3.1748 735.5 l 1
 98.5254 735.5 l 1
 98.5254 932.12 l 1
 217.175 932.12 l 1
EndSplineSet
MinimumDistance: x2,-1 y1,16 y1,0 x12,14 x12,13 x1,3 x1,2 
EndChar
StartChar: u
Encoding: 117 117
OldEncoding: 117
Width: 729
Flags: W
HStem: -14.8096 111.869<269 303> 726.81 20G<46.7197 161.98 508.89 625.28>
VStem: 46.7197 115.26<224 738> 508.89 116.39<32 97 320 738>
Fore
625.28 17.96 m 1
 508.89 17.96 l 1
 508.89 97.0596 l 1
 481.017 57.8867 453.52 30.7666 426.4 15.7002 c 1
 384.214 -4.63965 334.87 -14.8096 278.37 -14.8096 c 0
 230.91 -14.8096 192.113 -9.16016 161.98 2.13965 c 1
 96.4404 36.793 58.0195 91.4102 46.7197 165.99 c 1
 46.7197 746.81 l 1
 161.98 746.81 l 1
 161.98 230.4 l 2
 161.98 179.927 180.437 141.506 217.35 115.14 c 1
 239.95 103.087 262.55 97.0596 285.15 97.0596 c 0
 318.296 97.0596 345.04 99.3203 365.38 103.84 c 1
 421.88 123.427 460.677 155.066 481.77 198.76 c 0
 499.85 237.934 508.89 288.784 508.89 351.31 c 2
 508.89 746.81 l 1
 625.28 746.81 l 1
 625.28 17.96 l 1
EndSplineSet
MinimumDistance: x0,-1 
EndChar
StartChar: v
Encoding: 118 118
OldEncoding: 118
Width: 654
Flags: W
HStem: 724.925 20G<-26.0898 103.86 503.88 636.09>
Fore
355.85 16.0752 m 1
 229.29 16.0752 l 1
 -26.0898 744.925 l 1
 103.86 744.925 l 1
 293.7 155.065 l 1
 503.88 744.925 l 1
 636.09 744.925 l 1
 355.85 16.0752 l 1
EndSplineSet
EndChar
StartChar: w
Encoding: 119 119
OldEncoding: 119
Width: 944
Flags: W
HStem: 724.925 20G<-48.0303 81.9199 366.68 510.19 794.95 926.03>
DStem: 366.68 744.925 431.09 568.645 225.43 177.665 292.1 16.0752
Fore
161.02 16.0752 m 1
 -48.0303 744.925 l 1
 81.9199 744.925 l 1
 225.43 177.665 l 1
 366.68 744.925 l 1
 510.19 744.925 l 1
 646.92 177.665 l 1
 794.95 744.925 l 1
 926.03 744.925 l 1
 711.33 16.0752 l 1
 579.12 16.0752 l 1
 431.09 568.645 l 1
 292.1 16.0752 l 1
 161.02 16.0752 l 1
EndSplineSet
MinimumDistance: x11,-1 
EndChar
StartChar: x
Encoding: 120 120
OldEncoding: 120
Width: 654
Flags: W
HStem: 724.925 20G<0.419922 132.63 484.06 616.27>
DStem: 0.419922 744.925 132.63 744.925 241.11 388.975 307.78 488.415 241.11 388.975 303.26 289.535 -16.5303 16.0752 115.68 16.0752 303.26 289.535 367.67 391.235 486.32 16.0752 618.53 16.0752 484.06 744.925 616.27 744.925 307.78 488.415 367.67 391.235
Fore
303.26 289.535 m 1
 115.68 16.0752 l 1
 -16.5303 16.0752 l 1
 241.11 388.975 l 1
 0.419922 744.925 l 1
 132.63 744.925 l 1
 307.78 488.415 l 1
 484.06 744.925 l 1
 616.27 744.925 l 1
 367.67 391.235 l 1
 618.53 16.0752 l 1
 486.32 16.0752 l 1
 303.26 289.535 l 1
EndSplineSet
MinimumDistance: x10,-1 
EndChar
StartChar: y
Encoding: 121 121
OldEncoding: 121
Width: 653
Flags: W
HStem: -269.345 113<94 117> 742.345 20G<-11.5947 110.445 499.165 624.595>
DStem: -11.5947 762.345 110.445 762.345 226.835 22.1953 295.765 212.035 499.165 762.345 624.595 762.345 295.765 212.035 293.505 -136.005
Fore
499.165 762.345 m 1
 624.595 762.345 l 1
 293.505 -136.005 l 2
 273.165 -190.999 239.265 -229.419 191.805 -251.265 c 0
 163.932 -263.318 132.291 -269.345 96.8848 -269.345 c 0
 71.2715 -269.345 49.4248 -264.071 31.3447 -253.525 c 1
 31.3447 -145.045 l 1
 50.1787 -152.579 78.8047 -156.345 117.225 -156.345 c 1
 147.358 -151.825 169.959 -131.108 185.025 -94.1953 c 1
 226.835 22.1953 l 1
 -11.5947 762.345 l 1
 110.445 762.345 l 1
 295.765 212.035 l 1
 499.165 762.345 l 1
EndSplineSet
MinimumDistance: x1,-1 
EndChar
StartChar: z
Encoding: 122 122
OldEncoding: 122
Width: 654
Flags: W
HStem: 16.0752 115.26<164 582> 629.665 115.26<36 422>
DStem: 431.08 629.665 579.11 643.225 5.07031 110.995 159.88 131.335
Fore
579.11 744.925 m 1
 579.11 643.225 l 1
 159.88 131.335 l 1
 594.93 131.335 l 1
 594.93 16.0752 l 1
 5.07031 16.0752 l 1
 5.07031 110.995 l 1
 431.08 629.665 l 1
 35.5801 629.665 l 1
 35.5801 744.925 l 1
 579.11 744.925 l 1
EndSplineSet
MinimumDistance: x0,-1 
EndChar
StartChar: braceleft
Encoding: 123 123
OldEncoding: 123
Width: 436
Flags: W
VStem: 143.955 103.96<-111 155 595 861>
Fore
34.3447 326.215 m 1
 34.3447 423.395 l 1
 79.5449 433.941 108.925 454.281 122.485 484.415 c 0
 136.799 515.302 143.955 561.631 143.955 623.405 c 2
 143.955 858.445 l 2
 143.955 905.151 156.762 945.455 182.375 979.355 c 1
 210.249 1011.75 235.108 1027.95 256.955 1027.95 c 2
 358.655 1032.46 l 1
 358.655 939.805 l 1
 296.505 933.025 l 2
 278.425 930.765 265.995 923.231 259.215 910.425 c 0
 251.682 893.852 247.915 872.005 247.915 844.885 c 2
 247.915 597.415 l 2
 247.915 537.148 236.991 489.312 215.145 453.905 c 0
 197.818 426.031 174.841 399.665 146.215 374.805 c 1
 168.815 359.738 191.039 336.009 212.885 303.615 c 0
 236.238 267.455 247.915 217.358 247.915 153.325 c 2
 247.915 -91.8848 l 2
 247.915 -120.512 251.682 -143.111 259.215 -159.685 c 0
 265.995 -172.491 278.425 -180.025 296.505 -182.285 c 2
 358.655 -189.065 l 1
 358.655 -279.465 l 1
 256.955 -277.205 l 2
 234.355 -277.205 209.495 -260.255 182.375 -226.355 c 0
 156.762 -194.715 143.955 -155.541 143.955 -108.835 c 2
 143.955 129.595 l 2
 143.955 191.369 136.799 237.698 122.485 268.585 c 0
 107.419 297.965 78.0381 317.175 34.3447 326.215 c 1
EndSplineSet
MinimumDistance: x11,-1 
EndChar
StartChar: bar
Encoding: 124 124
OldEncoding: 124
Width: 339
Flags: W
HStem: 1008.33 20G<118.19 201.81>
VStem: 118.19 83.62<-267 1015>
Fore
201.81 1028.33 m 1
 201.81 -281.335 l 1
 118.19 -281.335 l 1
 118.19 1028.33 l 1
 201.81 1028.33 l 1
EndSplineSet
MinimumDistance: x0,-1 
EndChar
StartChar: braceright
Encoding: 125 125
OldEncoding: 125
Width: 438
Flags: W
VStem: 127.085 103.96<-111 169 595 873>
Fore
340.655 423.395 m 1
 340.655 326.215 l 1
 294.701 317.175 265.321 297.965 252.515 268.585 c 0
 238.201 239.959 231.045 193.629 231.045 129.595 c 2
 231.045 -108.835 l 2
 231.045 -138.969 225.019 -167.219 212.965 -193.585 c 0
 203.925 -210.911 188.481 -231.251 166.635 -254.605 c 1
 152.321 -267.411 136.125 -274.945 118.045 -277.205 c 1
 16.3447 -279.465 l 1
 16.3447 -189.065 l 1
 78.4951 -182.285 l 2
 98.0811 -180.025 111.265 -171.738 118.045 -157.425 c 0
 124.071 -144.619 127.085 -122.771 127.085 -91.8848 c 2
 127.085 153.325 l 2
 127.085 218.865 139.515 268.209 164.375 301.355 c 1
 187.729 336.762 209.198 361.245 228.785 374.805 c 1
 210.705 394.015 l 1
 194.131 407.575 180.948 423.771 171.155 442.605 c 1
 156.089 464.451 145.165 486.675 138.385 509.275 c 0
 130.852 537.901 127.085 567.281 127.085 597.415 c 2
 127.085 844.885 l 2
 127.085 875.771 124.071 897.619 118.045 910.425 c 0
 112.019 923.231 98.835 930.765 78.4951 933.025 c 2
 16.3447 939.805 l 1
 16.3447 1032.46 l 1
 118.045 1027.95 l 1
 136.125 1025.68 152.321 1017.78 166.635 1004.21 c 0
 187.729 983.121 203.171 963.158 212.965 944.325 c 0
 225.019 917.959 231.045 889.331 231.045 858.445 c 2
 231.045 623.405 l 2
 231.045 559.371 238.201 513.041 252.515 484.415 c 0
 266.075 454.281 295.455 433.941 340.655 423.395 c 1
EndSplineSet
MinimumDistance: x3,-1 
EndChar
StartChar: asciitilde
Encoding: 126 126
OldEncoding: 126
Width: 762
Flags: W
HStem: 372.285 94.92<504 522> 522.575 88.14<200 207>
DStem: 254.105 501.105 277.835 591.505 402.135 406.185 460.895 483.025
Fore
132.065 406.185 m 1
 57.4854 406.185 l 1
 59.7451 477.751 75.1885 529.731 103.815 562.125 c 0
 134.701 594.519 168.602 610.715 205.515 610.715 c 0
 233.389 610.715 257.495 604.312 277.835 591.505 c 2
 460.895 483.025 l 2
 479.729 472.479 498.185 467.205 516.265 467.205 c 0
 532.839 467.205 547.528 471.725 560.335 480.765 c 1
 576.909 495.079 585.195 525.965 585.195 573.425 c 1
 657.515 573.425 l 1
 657.515 514.665 643.579 466.075 615.705 427.655 c 0
 590.091 390.741 555.438 372.285 511.745 372.285 c 0
 474.831 372.285 438.295 383.585 402.135 406.185 c 2
 254.105 501.105 l 1
 239.039 515.419 222.841 522.575 205.515 522.575 c 0
 183.669 522.575 165.965 511.651 152.405 489.805 c 0
 138.845 469.465 132.065 441.592 132.065 406.185 c 1
EndSplineSet
MinimumDistance: x5,-1 
EndChar
StartChar: uni0E10.descless
Encoding: 128 63232
OldEncoding: 63232
Width: 698
Flags: W
HStem: -0.0849609 21G<463.855 579.115> 198.795 70.06<227.34 252> 412.365 71.19<227.749 252> 653.055 84.75<576 594> 721.985 79.1<304 338>
VStem: 99.9951 70.0599<334 352> 481.935 97.18<193 400>
Fore
241.245 483.555 m 0
 269.119 483.555 297.745 475.269 327.125 458.695 c 1
 354.245 439.861 374.209 417.262 387.015 390.895 c 2
 481.935 192.015 l 1
 481.935 381.855 l 2
 481.935 440.615 471.765 479.789 451.425 499.375 c 1
 434.099 519.715 399.445 538.549 347.465 555.875 c 1
 296.991 570.188 240.869 582.241 179.095 592.035 c 1
 123.349 604.089 80.0312 611.245 49.1445 613.505 c 1
 77.7715 663.979 115.438 708.801 162.145 747.975 c 1
 208.099 783.381 258.195 801.085 312.435 801.085 c 0
 346.335 801.085 372.701 798.448 391.535 793.175 c 2
 470.635 768.315 l 1
 539.565 744.585 l 2
 556.139 740.065 573.089 737.805 590.415 737.805 c 0
 617.535 737.805 644.655 744.209 671.775 757.015 c 1
 689.855 675.655 l 1
 652.188 660.589 617.535 653.055 585.895 653.055 c 0
 564.802 653.055 546.345 655.315 530.525 659.835 c 2
 455.945 684.695 l 1
 377.975 712.945 l 2
 359.142 718.972 338.425 721.985 315.825 721.985 c 0
 295.485 721.985 271.379 715.959 243.505 703.905 c 1
 219.398 689.592 206.215 678.669 203.955 671.135 c 1
 250.285 659.835 l 1
 333.905 636.105 l 1
 410.745 618.025 l 2
 486.831 598.438 533.539 572.825 550.865 541.185 c 1
 569.698 511.805 579.115 460.201 579.115 386.375 c 2
 579.115 -0.0849609 l 1
 463.855 -0.0849609 l 1
 456.321 44.3613 440.879 94.458 417.525 150.205 c 0
 391.159 209.719 372.325 249.269 361.025 268.855 c 1
 354.999 249.269 339.932 232.318 315.825 218.005 c 0
 293.979 205.198 269.119 198.795 241.245 198.795 c 0
 196.799 198.795 162.145 212.731 137.285 240.605 c 0
 112.425 269.985 99.9951 303.131 99.9951 340.045 c 0
 99.9951 382.231 112.425 416.131 137.285 441.745 c 0
 162.145 469.619 196.799 483.555 241.245 483.555 c 0
241.245 268.855 m 0
 265.352 268.855 283.055 275.635 294.355 289.195 c 0
 306.409 305.769 312.435 322.719 312.435 340.045 c 0
 312.435 359.631 306.409 376.581 294.355 390.895 c 0
 282.302 405.209 264.599 412.365 241.245 412.365 c 0
 219.398 412.365 202.448 405.209 190.395 390.895 c 0
 176.835 377.335 170.055 360.385 170.055 340.045 c 0
 170.055 321.211 176.835 305.015 190.395 291.455 c 1
 200.941 276.389 217.892 268.855 241.245 268.855 c 0
EndSplineSet
MinimumDistance: x28,-1 
EndChar
StartChar: uni0E34.left
Encoding: 129 63233
OldEncoding: 63233
Width: 0
Flags: W
HStem: 921.185 66.6709<-643.271 -608.314>
DStem: -608.28 990.115 -608.28 990.115 -698.68 987.855 -530.31 987.855
Fore
-530.31 1170.92 m 1
 -427.856 1157.36 -354.406 1117.8 -309.96 1052.26 c 0
 -267.773 987.479 -238.394 917.419 -221.82 842.085 c 1
 -275.307 860.919 -315.61 874.102 -342.73 881.635 c 0
 -386.424 894.441 -444.43 905.365 -516.75 914.405 c 0
 -557.43 918.925 -599.616 921.185 -643.31 921.185 c 2
 -780.04 916.665 l 1
 -868.18 904.235 l 1
 -859.894 947.929 -839.93 991.999 -808.29 1036.45 c 1
 -775.144 1078.63 -734.84 1111.78 -687.38 1135.88 c 0
 -639.92 1159.24 -587.562 1170.92 -530.31 1170.92 c 1
-548.39 1098.59 m 1
 -596.604 1098.59 -639.92 1086.54 -678.34 1062.43 c 0
 -716.006 1038.33 -738.983 1011.96 -747.27 983.335 c 1
 -698.68 987.855 l 1
 -608.28 990.115 l 1
 -530.31 987.855 l 1
 -470.796 983.335 -423.714 974.295 -389.06 960.735 c 0
 -366.46 952.448 -343.86 942.278 -321.26 930.225 c 1
 -364.954 1026.65 -440.664 1082.78 -548.39 1098.59 c 1
EndSplineSet
EndChar
StartChar: uni0E35.left
Encoding: 130 63234
OldEncoding: 63234
Width: 0
Flags: W
HStem: 915.855 66.6699<-646.271 -611.314>
VStem: -341.21 88.1396<1076 1253>
DStem: -611.28 984.785 -611.28 984.785 -701.68 982.525 -533.31 982.525
Fore
-341.21 1075.19 m 1
 -341.21 1258.25 l 1
 -253.07 1258.25 l 1
 -253.07 936.195 l 1
 -253.07 936.195 l 1
 -252.316 936.195 -248.55 924.519 -241.77 901.165 c 1
 -224.82 836.755 l 1
 -278.307 855.589 -318.61 868.771 -345.73 876.305 c 0
 -389.424 889.111 -447.43 900.035 -519.75 909.075 c 0
 -560.43 913.595 -602.616 915.855 -646.31 915.855 c 2
 -783.04 911.335 l 1
 -871.18 898.905 l 1
 -862.894 943.352 -842.93 988.175 -811.29 1033.38 c 1
 -781.156 1072.55 -740.854 1104.94 -690.38 1130.55 c 0
 -644.427 1153.91 -592.07 1165.58 -533.31 1165.58 c 1
 -493.384 1161.07 -460.236 1151.65 -433.87 1137.33 c 1
 -415.036 1129.8 -393.19 1117.75 -368.33 1101.17 c 1
 -341.21 1075.19 l 1
-551.39 1093.26 m 1
 -584.536 1093.26 -615.424 1087.24 -644.05 1075.19 c 0
 -672.677 1063.88 -696.03 1049.2 -714.11 1031.12 c 0
 -729.93 1016.8 -741.983 999.099 -750.27 978.005 c 1
 -701.68 982.525 l 1
 -611.28 984.785 l 1
 -533.31 982.525 l 1
 -473.796 978.005 -426.714 968.965 -392.06 955.405 c 0
 -366.446 946.365 -344.224 936.195 -325.39 924.895 c 1
 -341.964 965.575 -366.446 1001.74 -398.84 1033.38 c 0
 -434.246 1066.52 -485.097 1086.49 -551.39 1093.26 c 1
EndSplineSet
MinimumDistance: x2,-1 
EndChar
StartChar: uni0E36.left
Encoding: 131 63235
OldEncoding: 63235
Width: 0
Flags: W
HStem: 915.075 66.6699<-637.9 -602.963> 1092.49 76.8398<-567 -544> 1208.88 62.1504<-340 -318>
VStem: -457.16 66.6699<1149.02 1164> -272.97 67.7998<1144 1164>
DStem: -602.93 984.005 -602.93 984.005 -693.33 981.745 -524.96 981.745
Fore
-205.17 1146.72 m 0
 -205.17 1115.08 -213.08 1088.72 -228.9 1067.62 c 0
 -244.72 1044.27 -265.438 1030.33 -291.05 1025.82 c 1
 -249.24 948.975 l 1
 -233.42 915.075 -222.496 877.408 -216.47 835.975 c 1
 -269.956 854.809 -310.26 867.991 -337.38 875.525 c 0
 -381.073 888.331 -439.08 899.255 -511.4 908.295 c 0
 -552.08 912.815 -594.267 915.075 -637.96 915.075 c 2
 -774.69 910.555 l 1
 -862.83 898.125 l 1
 -845.504 977.225 -808.59 1042.01 -752.09 1092.49 c 0
 -692.576 1143.71 -630.05 1169.33 -564.51 1169.33 c 0
 -539.65 1169.33 -517.804 1167.07 -498.97 1162.54 c 2
 -457.16 1148.99 l 1
 -457.16 1179.12 -445.86 1206.62 -423.26 1231.47 c 0
 -399.153 1257.84 -369.02 1271.03 -332.86 1271.03 c 0
 -290.674 1271.03 -259.786 1258.59 -240.2 1233.74 c 1
 -216.847 1211.13 -205.17 1182.13 -205.17 1146.72 c 0
-330.6 1208.88 m 0
 -350.94 1208.88 -365.63 1203.22 -374.67 1191.92 c 0
 -385.216 1181.38 -390.49 1167.82 -390.49 1151.25 c 0
 -390.49 1135.42 -385.216 1122.24 -374.67 1111.7 c 0
 -360.356 1098.89 -345.666 1092.49 -330.6 1092.49 c 0
 -315.534 1092.49 -301.597 1098.89 -288.79 1111.7 c 0
 -278.244 1122.24 -272.97 1135.42 -272.97 1151.25 c 0
 -272.97 1167.82 -278.244 1181.38 -288.79 1191.92 c 1
 -297.076 1203.22 -311.014 1208.88 -330.6 1208.88 c 0
-543.04 1092.49 m 1
 -576.188 1092.49 -607.073 1086.46 -635.7 1074.41 c 0
 -664.326 1063.11 -687.68 1048.42 -705.76 1030.33 c 0
 -721.58 1016.02 -733.634 998.318 -741.92 977.225 c 1
 -693.33 981.745 l 1
 -602.93 984.005 l 1
 -524.96 981.745 l 1
 -465.446 977.225 -418.363 968.185 -383.71 954.625 c 0
 -361.11 946.339 -338.51 936.169 -315.91 924.115 c 1
 -331.73 961.028 -356.59 996.435 -390.49 1030.33 c 0
 -425.144 1062.73 -475.994 1083.45 -543.04 1092.49 c 1
EndSplineSet
MinimumDistance: x0,-1 
EndChar
StartChar: uni0E37.left
Encoding: 132 63236
OldEncoding: 63236
Width: 0
Flags: W
HStem: 915.855 66.6699<-638.271 -603.314> 1093.26 76.8506<-561 -544>
VStem: -506.1 87.0098<1164 1253> -333.21 88.1396<1073 1253>
DStem: -603.28 984.785 -603.28 984.785 -693.68 982.525 -525.31 982.525
Fore
-245.07 933.935 m 1
 -243.563 933.935 -234.146 901.541 -216.82 836.755 c 1
 -270.307 855.589 -310.61 868.771 -337.73 876.305 c 0
 -381.424 889.111 -439.43 900.035 -511.75 909.075 c 0
 -552.43 913.595 -594.616 915.855 -638.31 915.855 c 2
 -775.04 911.335 l 1
 -863.18 898.905 l 1
 -854.14 947.871 -834.177 993.449 -803.29 1035.63 c 0
 -773.156 1077.07 -735.113 1109.46 -689.16 1132.82 c 1
 -646.974 1157.67 -603.28 1170.11 -558.08 1170.11 c 0
 -540 1170.11 -522.674 1167.84 -506.1 1163.33 c 1
 -506.1 1258.25 l 1
 -419.09 1258.25 l 1
 -419.09 1135.08 l 1
 -382.177 1121.51 -353.55 1100.8 -333.21 1072.92 c 1
 -333.21 1258.25 l 1
 -245.07 1258.25 l 1
 -245.07 933.935 l 1
-543.39 1093.26 m 1
 -591.604 1093.26 -634.92 1081.21 -673.34 1057.11 c 0
 -711.006 1033 -733.983 1006.63 -742.27 978.005 c 1
 -693.68 982.525 l 1
 -603.28 984.785 l 1
 -525.31 982.525 l 1
 -465.796 978.005 -418.714 968.965 -384.06 955.405 c 0
 -358.446 946.365 -336.224 936.195 -317.39 924.895 c 1
 -360.33 1021.32 -435.664 1077.45 -543.39 1093.26 c 1
EndSplineSet
MinimumDistance: x0,-1 
EndChar
StartChar: ellipsis
Encoding: 133 8230
OldEncoding: 8230
Width: 1074
Flags: W
VStem: 46.8447 180.8<112 130> 401.665 179.67<118 118.477> 755.355 180.8<118 118.477>
Fore
936.155 118.545 m 1
 936.155 68.0713 906.021 39.8213 845.755 33.7949 c 1
 792.269 33.7949 762.135 62.0449 755.355 118.545 c 1
 755.355 180.318 785.488 211.205 845.755 211.205 c 0
 870.615 211.205 892.085 202.165 910.165 184.085 c 1
 923.725 168.265 932.389 146.418 936.155 118.545 c 1
581.335 118.545 m 1
 581.335 67.3184 551.579 39.0684 492.065 33.7949 c 1
 437.825 33.7949 407.691 62.0449 401.665 118.545 c 1
 401.665 180.318 431.799 211.205 492.065 211.205 c 0
 516.925 211.205 538.395 202.165 556.475 184.085 c 1
 570.789 166.005 579.075 144.158 581.335 118.545 c 1
227.645 118.545 m 0
 227.645 62.0449 197.512 33.7949 137.245 33.7949 c 0
 76.9785 33.7949 46.8447 62.0449 46.8447 118.545 c 0
 46.8447 180.318 76.9785 211.205 137.245 211.205 c 0
 197.512 211.205 227.645 180.318 227.645 118.545 c 0
EndSplineSet
MinimumDistance: x0,-1 
EndChar
StartChar: uni0E48.low_left
Encoding: 134 63237
OldEncoding: 63237
Width: 0
Flags: W
VStem: -347.07 88.14<863 1185>
Fore
-347.07 848.85 m 1
 -347.07 1199.15 l 1
 -258.93 1199.15 l 1
 -258.93 848.85 l 1
 -347.07 848.85 l 1
EndSplineSet
MinimumDistance: x2,-1 
EndChar
StartChar: uni0E49.low_left
Encoding: 135 63238
OldEncoding: 63238
Width: 0
Flags: W
HStem: 1122.71 66.6699<-640 -618>
VStem: -763.5 71.1904<1054 1062> -564.62 76.8398<1054 1074>
Fore
-487.78 1056.04 m 0
 -487.78 1011.6 -494.938 974.309 -509.25 944.175 c 1
 -528.836 913.289 -541.267 895.585 -546.54 891.065 c 1
 -518.666 891.065 -488.534 894.831 -456.14 902.365 c 0
 -427.514 909.145 -399.64 924.589 -372.52 948.695 c 0
 -319.786 994.648 -293.42 1071.87 -293.42 1180.34 c 1
 -198.5 1180.34 l 1
 -198.5 1017.62 -255 909.521 -368 856.035 c 1
 -427.514 830.421 -490.794 817.615 -557.84 817.615 c 0
 -586.466 817.615 -613.586 819.875 -639.2 824.395 c 2
 -692.31 833.435 l 1
 -683.27 837.201 -669.334 848.125 -650.5 866.205 c 0
 -633.174 882.025 -619.236 906.509 -608.69 939.655 c 1
 -619.99 937.395 l 1
 -641.46 935.135 l 2
 -655.02 935.135 -666.32 936.642 -675.36 939.655 c 0
 -734.12 955.475 -763.5 995.778 -763.5 1060.57 c 0
 -763.5 1095.97 -750.316 1126.86 -723.95 1153.22 c 0
 -699.844 1177.33 -667.45 1189.38 -626.77 1189.38 c 0
 -585.336 1189.38 -551.438 1176.2 -525.07 1149.83 c 0
 -500.21 1122.71 -487.78 1091.45 -487.78 1056.04 c 0
-626.77 1122.71 m 0
 -645.604 1122.71 -661.046 1116.69 -673.1 1104.63 c 0
 -685.906 1090.32 -692.31 1075.63 -692.31 1060.57 c 0
 -692.31 1043.24 -686.66 1029.3 -675.36 1018.75 c 1
 -664.06 1004.44 -647.863 997.285 -626.77 997.285 c 0
 -613.964 997.285 -602.664 1000.67 -592.87 1007.46 c 0
 -583.076 1014.24 -575.92 1021.77 -571.4 1030.05 c 0
 -566.88 1039.09 -564.62 1049.26 -564.62 1060.57 c 0
 -564.62 1080.15 -569.894 1095.59 -580.44 1106.89 c 0
 -591.74 1117.44 -607.184 1122.71 -626.77 1122.71 c 0
EndSplineSet
MinimumDistance: x0,-1 
EndChar
StartChar: uni0E4A.low_left
Encoding: 136 63239
OldEncoding: 63239
Width: 0
Flags: HW
HStem: 847.125 41.81<-618 -605.513> 990.635 41.8149<-617.183 -603.738> 1090.08 63.28<-620 -607 -464 -448>
VStem: -566.358 41.809<933 944> -403.639 62.151<990 1024>
Fore
-617.209 847.125 m 0
 -654.122 849.385 -684.255 866.335 -707.608 897.975 c 0
 -732.469 933.381 -743.769 971.425 -741.509 1012.11 c 0
 -741.509 1046.76 -729.455 1080.66 -705.349 1113.8 c 1
 -682.749 1140.17 -653.369 1153.36 -617.209 1153.36 c 0
 -600.635 1153.36 -585.945 1150.72 -573.139 1145.45 c 1
 -540.369 1125.11 l 1
 -529.068 1113.8 l 1
 -529.068 1113.8 l 1
 -523.795 1122.09 -514.379 1130.38 -500.818 1138.67 c 0
 -486.505 1148.46 -468.803 1153.36 -447.709 1153.36 c 0
 -410.042 1153.36 -383.299 1140.92 -367.479 1116.06 c 0
 -350.152 1089.7 -341.488 1055.04 -341.488 1012.11 c 0
 -341.488 971.425 -351.659 938.278 -371.999 912.665 c 1
 -330.188 937.525 l 2
 -315.122 947.318 -301.185 961.255 -288.379 979.335 c 1
 -269.545 1010.97 -260.129 1041.11 -260.129 1069.74 c 0
 -260.129 1087.81 -263.519 1108.53 -270.299 1131.88 c 1
 -202.499 1157.88 l 1
 -196.473 1139.04 -193.459 1117.95 -193.459 1094.59 c 0
 -193.459 1035.83 -208.902 984.231 -239.789 939.785 c 0
 -280.469 881.025 -357.685 851.645 -471.438 851.645 c 1
 -467.673 858.425 -458.255 870.855 -443.188 888.935 c 0
 -436.409 897.975 -427.369 913.419 -416.068 935.265 c 0
 -407.782 954.099 -403.639 974.815 -403.639 997.415 c 0
 -403.639 1025.29 -406.652 1047.89 -412.679 1065.21 c 1
 -420.965 1081.79 -437.162 1090.08 -461.269 1090.08 c 0
 -477.089 1090.08 -490.272 1084.8 -500.818 1074.25 c 0
 -514.379 1061.45 -522.289 1052.03 -524.549 1046 c 1
 -533.589 1058.43 l 1
 -538.862 1063.71 -549.032 1070.49 -564.099 1078.78 c 0
 -576.905 1086.31 -591.595 1090.08 -608.169 1090.08 c 0
 -624.742 1090.08 -639.055 1084.05 -651.108 1072 c 0
 -662.409 1059.94 -668.059 1042.24 -668.059 1018.88 c 1
 -663.539 1023.41 -656.383 1026.42 -646.589 1027.92 c 2
 -617.209 1032.45 l 1
 -588.582 1032.45 -565.982 1023.03 -549.409 1004.2 c 0
 -532.835 987.621 -524.549 964.645 -524.549 935.265 c 0
 -524.549 913.419 -533.589 893.455 -551.669 875.375 c 0
 -570.503 856.541 -592.349 847.125 -617.209 847.125 c 0
-617.209 990.635 m 0
 -634.535 990.635 -646.589 986.115 -653.369 977.075 c 0
 -663.162 966.528 -668.059 954.099 -668.059 939.785 c 0
 -668.059 928.485 -663.162 916.809 -653.369 904.755 c 0
 -645.082 894.209 -633.028 888.935 -617.209 888.935 c 0
 -600.635 888.935 -588.205 894.209 -579.919 904.755 c 0
 -570.879 915.302 -566.358 926.979 -566.358 939.785 c 0
 -566.358 953.345 -570.879 965.775 -579.919 977.075 c 0
 -586.699 986.115 -599.129 990.635 -617.209 990.635 c 0
EndSplineSet
MinimumDistance: x12,-1 
EndChar
StartChar: uni0E4B.low_left
Encoding: 137 63240
OldEncoding: 63240
Width: -1
Flags: W
HStem: 1002.71 75.71<-610 -470 -385 -240>
VStem: -469.94 85.8809<861 1002 1078 1231>
Fore
-469.94 1002.71 m 1
 -624.75 1002.71 l 1
 -624.75 1078.42 l 1
 -469.94 1078.42 l 1
 -469.94 1233.23 l 1
 -384.06 1233.23 l 1
 -384.06 1078.42 l 1
 -229.25 1078.42 l 1
 -229.25 1002.71 l 1
 -384.06 1002.71 l 1
 -384.06 846.77 l 1
 -469.94 846.77 l 1
 -469.94 1002.71 l 1
EndSplineSet
MinimumDistance: x7,-1 y3,5 y3,4 y0,10 y0,11 x6,8 x6,7 x0,2 x0,1 
EndChar
StartChar: uni0E4C.low_left
Encoding: 138 63241
OldEncoding: 63241
Width: 0
Flags: W
HStem: 838.103 74.58<-369.05 -358.724> 1027.94 62.15<-382.635 -369.13>
VStem: -543.12 113<970.312 1003.08> -311.47 66.67<965 983>
Fore
-466.28 1032.46 m 0
 -464.02 1042.26 -454.98 1053.93 -439.16 1067.49 c 0
 -421.834 1082.56 -398.48 1090.09 -369.1 1090.09 c 0
 -332.187 1092.35 -302.43 1081.05 -279.83 1056.19 c 0
 -256.477 1030.58 -244.8 1001.95 -244.8 970.312 c 0
 -244.8 936.412 -255.724 906.278 -277.57 879.912 c 1
 -303.184 852.039 -333.693 838.103 -369.1 838.103 c 0
 -420.326 835.843 -462.89 851.286 -496.79 884.433 c 0
 -527.677 915.318 -543.12 954.869 -543.12 1003.08 c 0
 -543.12 1091.98 -507.714 1151.11 -436.9 1180.49 c 1
 -406.014 1197.82 -358.177 1208.74 -293.39 1213.26 c 0
 -222.576 1218.54 -177 1224.56 -156.66 1231.34 c 0
 -131.8 1241.14 -119.37 1266 -119.37 1305.92 c 1
 -36.8799 1305.92 l 1
 -36.8799 1267.5 -47.4268 1236.62 -68.5195 1213.26 c 0
 -88.8604 1189.16 -113.72 1172.21 -143.1 1162.41 c 0
 -179.26 1148.85 -224.836 1140.94 -279.83 1138.68 c 0
 -344.616 1134.16 -388.31 1126.62 -410.91 1116.08 c 0
 -438.784 1104.78 -457.24 1076.91 -466.28 1032.46 c 0
-369.1 1027.94 m 0
 -387.934 1027.94 -402.624 1022.67 -413.17 1012.12 c 0
 -424.47 1001.58 -430.12 987.639 -430.12 970.312 c 0
 -430.12 954.492 -424.47 941.309 -413.17 930.763 c 0
 -401.116 918.709 -386.427 912.683 -369.1 912.683 c 0
 -354.034 912.683 -340.474 918.709 -328.42 930.763 c 0
 -317.12 941.309 -311.47 954.492 -311.47 970.312 c 0
 -311.47 987.639 -316.366 1001.58 -326.16 1012.12 c 0
 -336.706 1022.67 -351.02 1027.94 -369.1 1027.94 c 0
EndSplineSet
MinimumDistance: x4,-1 
EndChar
StartChar: uni0E48.low
Encoding: 139 63242
OldEncoding: 63242
Width: 0
Flags: W
VStem: -204.005 87.0098<863 1185>
Fore
-204.005 848.85 m 1
 -204.005 1199.15 l 1
 -116.995 1199.15 l 1
 -116.995 848.85 l 1
 -204.005 848.85 l 1
EndSplineSet
MinimumDistance: x2,-1 
EndChar
StartChar: uni0E49.low
Encoding: 140 63243
OldEncoding: 63243
Width: 0
Flags: W
HStem: 1122.71 66.67<-449 -426>
VStem: -571.5 72.32<1054 1074> -371.49 75.71<1054 1062>
Fore
-295.78 1056.04 m 0
 -295.78 1009.34 -302.56 972.049 -316.12 944.175 c 1
 -338.72 911.028 -351.15 893.325 -353.41 891.065 c 1
 -324.784 891.065 -294.65 894.831 -263.01 902.365 c 0
 -233.63 909.898 -206.134 925.342 -180.52 948.695 c 0
 -127.786 993.895 -101.42 1071.11 -101.42 1180.34 c 1
 -6.5 1180.34 l 1
 -6.5 1016.87 -62.623 908.769 -174.87 856.035 c 1
 -235.137 830.421 -298.416 817.615 -364.71 817.615 c 0
 -391.83 817.615 -418.196 819.875 -443.81 824.395 c 2
 -496.92 833.435 l 1
 -489.387 837.201 -475.45 848.125 -455.11 866.205 c 0
 -437.784 883.531 -424.6 908.015 -415.56 939.655 c 1
 -417.066 938.148 -421.21 937.395 -427.99 937.395 c 2
 -448.33 935.135 l 1
 -483.36 939.655 l 1
 -542.12 955.475 -571.5 995.778 -571.5 1060.57 c 0
 -571.5 1096.72 -559.07 1127.61 -534.21 1153.22 c 0
 -509.35 1177.33 -476.204 1189.38 -434.77 1189.38 c 0
 -391.83 1189.38 -357.93 1176.2 -333.07 1149.83 c 0
 -308.21 1124.22 -295.78 1092.96 -295.78 1056.04 c 0
-434.77 1122.71 m 0
 -455.11 1122.71 -471.307 1116.69 -483.36 1104.63 c 0
 -493.906 1093.33 -499.18 1078.64 -499.18 1060.57 c 0
 -499.18 1043.24 -493.906 1029.3 -483.36 1018.75 c 1
 -472.06 1004.44 -455.863 997.285 -434.77 997.285 c 0
 -415.184 997.285 -399.74 1004.44 -388.44 1018.75 c 1
 -377.14 1030.05 -371.49 1043.99 -371.49 1060.57 c 0
 -371.49 1077.14 -377.14 1091.83 -388.44 1104.63 c 0
 -400.494 1116.69 -415.937 1122.71 -434.77 1122.71 c 0
EndSplineSet
MinimumDistance: x0,-1 
EndChar
StartChar: uni0E4A.low
Encoding: 141 63244
OldEncoding: 63244
Width: 0
Flags: W
HStem: 847.125 41.81<-436 -423.513> 990.635 41.8149<-435.183 -421.738> 1090.08 63.28<-438 -425 -282 -266>
VStem: -384.358 41.809<933 944> -221.639 62.151<991 1020> -80.3887 68.9297<1070 1095>
Fore
-435.209 847.125 m 0
 -471.369 849.385 -501.503 866.335 -525.608 897.975 c 0
 -550.469 931.121 -561.769 969.165 -559.509 1012.11 c 0
 -559.509 1046.76 -547.455 1080.66 -523.349 1113.8 c 1
 -500.749 1140.17 -471.369 1153.36 -435.209 1153.36 c 0
 -418.635 1153.36 -403.945 1150.72 -391.139 1145.45 c 1
 -358.369 1125.11 l 1
 -347.068 1113.8 l 1
 -347.068 1113.8 l 1
 -341.795 1122.09 -332.379 1130.38 -318.818 1138.67 c 0
 -304.505 1148.46 -286.803 1153.36 -265.709 1153.36 c 0
 -228.042 1153.36 -201.299 1140.92 -185.479 1116.06 c 0
 -168.152 1089.7 -159.488 1055.04 -159.488 1012.11 c 0
 -159.488 974.438 -168.905 941.291 -187.738 912.665 c 1
 -145.929 937.525 l 2
 -129.355 948.825 -116.173 962.762 -106.379 979.335 c 0
 -89.0527 1012.48 -80.3887 1043.37 -80.3887 1072 c 0
 -80.3887 1095.35 -83.0254 1115.31 -88.2988 1131.88 c 1
 -20.499 1157.88 l 1
 -14.4717 1139.04 -11.459 1117.95 -11.459 1094.59 c 0
 -11.459 1035.83 -26.9023 984.231 -57.7891 939.785 c 0
 -98.4688 881.025 -175.685 851.645 -289.438 851.645 c 1
 -285.673 858.425 -276.255 870.855 -261.188 888.935 c 0
 -254.409 897.975 -245.369 913.419 -234.068 935.265 c 0
 -225.782 954.099 -221.639 974.815 -221.639 997.415 c 0
 -221.639 1026.04 -225.028 1048.64 -231.809 1065.21 c 0
 -238.589 1081.79 -254.785 1090.08 -280.398 1090.08 c 0
 -296.973 1090.08 -310.532 1084.8 -321.079 1074.25 c 0
 -332.379 1063.71 -339.535 1054.29 -342.549 1046 c 1
 -351.589 1058.43 l 1
 -356.862 1063.71 -367.032 1070.49 -382.099 1078.78 c 0
 -394.905 1086.31 -409.595 1090.08 -426.169 1090.08 c 0
 -441.988 1090.08 -456.679 1084.05 -470.238 1072 c 1
 -480.785 1059.19 -486.059 1041.49 -486.059 1018.88 c 1
 -481.539 1023.41 -474.383 1026.42 -464.589 1027.92 c 2
 -435.209 1032.45 l 1
 -406.582 1032.45 -383.982 1023.03 -367.409 1004.2 c 0
 -350.835 987.621 -342.549 964.645 -342.549 935.265 c 0
 -342.549 913.419 -351.589 893.455 -369.669 875.375 c 0
 -388.503 856.541 -410.349 847.125 -435.209 847.125 c 0
-435.209 990.635 m 0
 -451.782 990.635 -464.965 986.115 -474.759 977.075 c 1
 -482.292 964.269 -486.059 951.839 -486.059 939.785 c 0
 -486.059 928.485 -481.539 916.809 -472.499 904.755 c 0
 -464.965 894.209 -452.535 888.935 -435.209 888.935 c 0
 -418.635 888.935 -406.205 894.209 -397.919 904.755 c 0
 -388.879 915.302 -384.358 926.979 -384.358 939.785 c 0
 -384.358 953.345 -388.879 965.775 -397.919 977.075 c 0
 -404.699 986.115 -417.129 990.635 -435.209 990.635 c 0
EndSplineSet
MinimumDistance: x19,-1 
EndChar
StartChar: uni0E4B.low
Encoding: 142 63245
OldEncoding: 63245
Width: 0
Flags: W
HStem: 1002.71 75.71<-354 -214 -126 16>
VStem: -213.94 88.1406<861 1002 1078 1231>
Fore
-213.94 1002.71 m 1
 -368.75 1002.71 l 1
 -368.75 1078.42 l 1
 -213.94 1078.42 l 1
 -213.94 1233.23 l 1
 -125.8 1233.23 l 1
 -125.8 1078.42 l 1
 26.75 1078.42 l 1
 26.75 1002.71 l 1
 -125.8 1002.71 l 1
 -125.8 846.77 l 1
 -213.94 846.77 l 1
 -213.94 1002.71 l 1
EndSplineSet
MinimumDistance: y3,5 y3,4 y0,10 y0,11 x6,8 x6,7 x0,2 x0,1 
EndChar
StartChar: uni0E4C.low
Encoding: 143 63246
OldEncoding: 63246
Width: 0
Flags: W
HStem: 838.104 74.5791<-199.119 -188.781> 1027.94 62.1504<-212.959 -199.188>
VStem: -373.179 115.26<970.312 1003.08> -141.529 66.6699<965 983>
Fore
-296.339 1032.46 m 1
 -291.065 1043.01 -282.025 1054.69 -269.219 1067.49 c 1
 -250.386 1082.56 -227.033 1090.09 -199.159 1090.09 c 0
 -160.739 1092.35 -129.853 1081.05 -106.499 1056.19 c 1
 -85.4053 1031.33 -74.8594 1002.71 -74.8594 970.312 c 0
 -74.8594 937.167 -85.4053 907.033 -106.499 879.913 c 1
 -132.865 852.039 -163.753 838.104 -199.159 838.104 c 0
 -252.646 835.843 -295.209 850.533 -326.85 882.173 c 0
 -357.735 913.06 -373.179 953.363 -373.179 1003.08 c 0
 -375.439 1088.96 -340.033 1148.1 -266.959 1180.49 c 0
 -229.293 1198.57 -179.949 1208.74 -118.929 1211 c 0
 -59.415 1213.26 -15.3457 1219.29 13.2812 1229.08 c 0
 39.6475 1239.63 52.8311 1265.24 52.8311 1305.92 c 1
 134.19 1305.92 l 1
 134.19 1268.26 123.268 1237.37 101.421 1213.26 c 0
 81.0811 1189.16 56.2207 1172.21 26.8408 1162.41 c 0
 -9.31934 1148.85 -54.8965 1140.94 -109.89 1138.68 c 0
 -173.169 1134.16 -216.109 1126.63 -238.709 1116.08 c 0
 -265.829 1105.54 -285.039 1077.66 -296.339 1032.46 c 1
-199.159 1027.94 m 0
 -218.745 1027.94 -232.683 1022.67 -240.969 1012.12 c 1
 -252.27 1000.82 -257.919 986.887 -257.919 970.312 c 0
 -257.919 953.739 -252.27 939.803 -240.969 928.503 c 0
 -230.423 917.957 -216.485 912.683 -199.159 912.683 c 0
 -184.093 912.683 -170.533 918.709 -158.479 930.763 c 0
 -147.179 941.31 -141.529 954.493 -141.529 970.312 c 0
 -141.529 986.887 -146.049 1000.82 -155.089 1012.12 c 1
 -166.39 1022.67 -181.079 1027.94 -199.159 1027.94 c 0
EndSplineSet
MinimumDistance: x4,-1 
EndChar
StartChar: uni0E0D.descless
Encoding: 144 63247
OldEncoding: 63247
Width: 1039
Flags: W
HStem: -12.8652 71.1904<200 230> 0.695312 83.6201<420 502 606 774> 199.575 72.32<200 218> 729.545 72.32<308 356> 767.175 20G<822.315 919.495>
VStem: 70.8652 71.1898<117.56 132> 70.8652 97.1798<262 436> 285.565 67.8<117.194 132> 510.435 97.18<84 596> 822.315 97.18<130 772>
Fore
70.8652 130.645 m 2
 70.8652 409.755 l 2
 70.8652 500.155 103.259 556.655 168.045 579.255 c 1
 102.505 618.805 l 1
 82.165 629.352 44.498 642.535 -10.4951 658.355 c 1
 6.83203 682.461 42.9912 712.595 97.9854 748.755 c 0
 153.731 784.161 227.182 801.865 318.335 801.865 c 0
 511.188 801.865 607.615 727.661 607.615 579.255 c 2
 607.615 84.3154 l 1
 751.125 84.3154 l 2
 782.765 84.3154 801.975 88.835 808.755 97.875 c 1
 817.795 104.655 822.315 122.358 822.315 150.985 c 2
 822.315 787.175 l 1
 919.495 787.175 l 1
 919.495 150.985 l 2
 919.495 108.045 914.975 75.6514 905.935 53.8047 c 0
 896.895 32.7119 880.698 18.7754 857.345 11.9951 c 0
 832.485 4.46191 797.079 0.695312 751.125 0.695312 c 2
 413.255 0.695312 l 1
 413.255 84.3154 l 1
 510.435 84.3154 l 1
 510.435 579.255 l 2
 510.435 628.975 494.238 666.642 461.845 692.255 c 0
 430.205 717.115 386.889 729.545 331.895 729.545 c 0
 261.081 729.545 193.281 710.335 128.495 671.915 c 1
 140.549 668.148 165.031 657.225 201.945 639.145 c 0
 235.091 624.079 266.731 602.608 296.865 574.735 c 1
 284.812 574.735 270.121 571.722 252.795 565.695 c 0
 236.222 559.669 217.012 544.979 195.165 521.625 c 1
 177.085 495.259 168.045 459.852 168.045 415.405 c 2
 168.045 261.725 l 1
 174.071 268.505 190.269 271.895 216.635 271.895 c 0
 258.068 271.895 291.969 257.959 318.335 230.085 c 1
 341.688 200.705 353.365 167.559 353.365 130.645 c 0
 353.365 92.2246 341.688 59.0781 318.335 31.2051 c 0
 293.475 1.8252 259.575 -12.8652 216.635 -12.8652 c 0
 175.201 -12.8652 140.549 0.318359 112.675 26.6846 c 0
 84.8018 51.5449 70.8652 86.1982 70.8652 130.645 c 2
214.375 58.3252 m 0
 238.481 58.3252 256.185 65.4814 267.485 79.7949 c 0
 279.539 94.1084 285.565 111.059 285.565 130.645 c 0
 285.565 147.219 279.539 163.415 267.485 179.235 c 1
 253.171 192.795 235.469 199.575 214.375 199.575 c 0
 191.775 199.575 174.825 192.795 163.525 179.235 c 1
 149.211 164.921 142.055 148.725 142.055 130.645 c 0
 142.055 111.059 148.459 94.1084 161.265 79.7949 c 0
 174.825 65.4814 192.528 58.3252 214.375 58.3252 c 0
EndSplineSet
MinimumDistance: x13,-1 y18,20 x20,18 x20,19 
EndChar
StartChar: quoteleft
Encoding: 145 8216
OldEncoding: 8216
Width: 250
Flags: W
Fore
29.7656 648.062 m 1
 -1.12109 705.315 -8.6543 757.672 7.16602 805.132 c 0
 23.7393 851.085 50.1055 888.375 86.2656 917.002 c 1
 105.1 927.548 116.399 929.055 120.166 921.521 c 1
 120.166 907.961 l 1
 107.359 894.401 91.916 871.425 73.8359 839.031 c 0
 56.5088 809.651 52.7422 780.271 62.5361 750.892 c 1
 77.2256 764.451 l 2
 84.0059 771.231 90.4092 776.505 96.4355 780.271 c 1
 154.442 804.378 197.382 790.817 225.256 739.592 c 0
 238.062 715.485 241.452 691.378 235.426 667.271 c 0
 228.646 637.138 212.826 617.552 187.966 608.512 c 0
 114.14 581.392 61.4062 594.575 29.7656 648.062 c 1
EndSplineSet
EndChar
StartChar: quoteright
Encoding: 146 8217
OldEncoding: 8217
Width: 249
Flags: W
Fore
231.35 821.655 m 0
 231.35 756.869 212.894 707.525 175.98 673.625 c 0
 139.066 641.231 98.0098 620.892 52.8096 612.605 c 1
 31.7168 612.605 21.1699 616.749 21.1699 625.035 c 0
 21.1699 628.049 23.4297 631.815 27.9502 636.335 c 1
 45.2764 642.361 69.7598 655.545 101.4 675.885 c 0
 130.026 693.211 147.354 716.941 153.38 747.075 c 1
 134.17 742.555 l 1
 109.31 738.035 l 1
 47.5371 744.815 16.6504 777.209 16.6504 835.215 c 0
 16.6504 862.335 24.9365 885.312 41.5098 904.145 c 0
 58.083 922.979 81.4365 932.395 111.57 932.395 c 0
 189.164 932.395 229.09 895.481 231.35 821.655 c 0
EndSplineSet
EndChar
StartChar: quotedblleft
Encoding: 147 8220
OldEncoding: 8220
Width: 463
Flags: W
Fore
242.215 724.218 m 0
 240.709 788.251 258.411 837.972 295.325 873.378 c 0
 331.485 906.523 372.165 927.617 417.365 936.657 c 1
 439.211 936.657 450.135 932.514 450.135 924.228 c 1
 444.485 914.058 l 1
 443.355 912.928 l 2
 427.535 907.654 403.052 894.094 369.905 872.248 c 0
 340.525 854.921 323.951 830.813 320.186 799.928 c 1
 338.265 805.577 l 1
 363.125 810.098 l 1
 425.651 804.071 457.291 772.054 458.045 714.048 c 0
 458.045 686.928 449.759 663.951 433.186 645.117 c 0
 417.365 626.284 394.389 616.491 364.255 615.737 c 0
 285.909 614.231 245.229 650.392 242.215 724.218 c 0
-12.0352 720.827 m 0
 -13.542 786.367 4.16211 836.088 41.0752 869.987 c 0
 77.2354 903.134 117.915 923.852 163.115 932.138 c 1
 184.209 932.892 194.755 929.124 194.755 920.838 c 0
 194.755 917.824 192.495 914.058 187.975 909.537 c 1
 170.648 903.512 146.541 889.951 115.655 868.857 c 0
 86.2754 850.777 69.7021 826.671 65.9355 796.537 c 1
 84.0146 801.058 l 1
 110.005 806.708 l 1
 171.778 800.682 203.041 768.664 203.795 710.657 c 0
 203.795 684.291 195.509 661.313 178.936 641.728 c 0
 163.115 622.142 140.139 612.348 110.005 612.348 c 0
 31.6582 610.842 -9.02148 647.001 -12.0352 720.827 c 0
EndSplineSet
EndChar
StartChar: quotedblright
Encoding: 148 8221
OldEncoding: 8221
Width: 464
Flags: W
Fore
196.79 821.655 m 0
 196.79 757.621 178.334 708.278 141.42 673.625 c 0
 104.506 641.231 63.4502 620.892 18.25 612.605 c 1
 -3.59668 612.605 -14.5195 616.749 -14.5195 625.035 c 0
 -14.5195 628.049 -12.2598 631.815 -7.74023 636.335 c 1
 8.08008 641.608 32.9404 654.791 66.8398 675.885 c 0
 96.2197 693.211 113.17 716.941 117.69 747.075 c 1
 99.6104 742.555 l 1
 73.6201 738.035 l 1
 11.8467 744.815 -19.04 777.209 -19.04 835.215 c 0
 -19.04 862.335 -10.377 885.312 6.9502 904.145 c 0
 22.7695 922.979 45.7471 932.395 75.8799 932.395 c 0
 154.227 932.395 194.53 895.481 196.79 821.655 c 0
451.04 821.655 m 0
 451.04 756.869 432.584 707.525 395.67 673.625 c 0
 358.756 641.231 317.7 620.892 272.5 612.605 c 1
 251.406 612.605 240.86 616.749 240.86 625.035 c 0
 240.86 628.049 243.12 631.815 247.64 636.335 c 1
 264.966 642.361 289.45 655.545 321.09 675.885 c 0
 350.47 693.211 367.42 716.941 371.94 747.075 c 1
 353.86 742.555 l 1
 327.87 738.035 l 1
 266.097 744.815 235.21 777.209 235.21 835.215 c 0
 235.21 861.581 243.874 884.559 261.2 904.145 c 0
 277.02 922.979 299.996 932.395 330.13 932.395 c 0
 408.477 932.395 448.78 895.481 451.04 821.655 c 0
EndSplineSet
EndChar
StartChar: bullet
Encoding: 149 8226
OldEncoding: 8226
Width: 370
Flags: W
Fore
174 209.38 m 0
 112.98 209.38 64.3896 229.344 28.2305 269.27 c 0
 -5.66992 307.69 -22.6201 353.267 -22.6201 406 c 0
 -22.6201 441.406 -15.0869 473.046 -0.0195312 500.92 c 0
 18.0596 533.313 40.6602 558.174 67.7803 575.5 c 0
 97.1602 593.58 132.566 602.62 174 602.62 c 0
 216.94 602.62 253.1 593.58 282.48 575.5 c 0
 311.106 557.42 333.706 533.313 350.28 503.18 c 1
 363.84 473.8 370.62 441.406 370.62 406 c 0
 370.62 351.76 353.67 305.43 319.77 267.01 c 0
 285.87 228.59 237.28 209.38 174 209.38 c 0
EndSplineSet
EndChar
StartChar: endash
Encoding: 150 8211
OldEncoding: 8211
Width: 1090
Flags: W
HStem: 349.685 57.63<-22 1052>
Fore
-36.1797 349.685 m 1
 -36.1797 407.315 l 1
 1062.18 407.315 l 1
 1062.18 349.685 l 1
 -36.1797 349.685 l 1
EndSplineSet
EndChar
StartChar: emdash
Encoding: 151 8212
OldEncoding: 8212
Width: 2183
Flags: W
HStem: 349.685 57.63<-88 2138>
Fore
-102.74 349.685 m 1
 -102.74 407.315 l 1
 2152.74 407.315 l 1
 2152.74 349.685 l 1
 -102.74 349.685 l 1
EndSplineSet
EndChar
StartChar: uni0E31.left
Encoding: 152 63248
OldEncoding: 63248
Width: 0
Flags: W
HStem: 1107.99 66.67<-484 -466>
VStem: -610.91 66.67<1021 1042> -409.77 71.19<1028.17 1042>
Fore
-610.91 1022.11 m 1
 -610.91 1067.3 -599.61 1103.46 -577.01 1130.58 c 0
 -554.41 1159.96 -521.264 1174.66 -477.57 1174.66 c 0
 -435.384 1174.66 -401.106 1161.47 -374.74 1135.11 c 0
 -350.634 1111 -338.58 1079.36 -338.58 1040.18 c 0
 -338.58 1001.01 -352.517 968.619 -380.39 943.005 c 1
 -340.84 936.225 l 1
 -299.03 931.705 l 1
 -232.736 933.965 -170.21 955.435 -111.45 996.115 c 0
 -52.6904 1038.3 -15.7764 1090.28 -0.709961 1152.05 c 1
 82.9102 1112.5 l 1
 68.5967 1066.55 42.9834 1023.99 6.07031 984.815 c 0
 -30.8438 947.148 -76.7969 914.755 -131.79 887.635 c 0
 -186.03 862.775 -243.284 850.345 -303.55 850.345 c 0
 -381.144 850.345 -450.45 863.528 -511.47 889.895 c 1
 -570.983 918.521 -604.13 962.592 -610.91 1022.11 c 1
-477.57 973.515 m 0
 -456.477 973.515 -440.28 980.295 -428.98 993.855 c 0
 -416.174 1006.66 -409.77 1022.11 -409.77 1040.18 c 0
 -409.77 1060.53 -415.42 1076.72 -426.72 1088.78 c 0
 -439.526 1101.58 -456.477 1107.99 -477.57 1107.99 c 0
 -497.156 1107.99 -514.106 1101.58 -528.42 1088.78 c 1
 -538.966 1075.97 -544.24 1059.77 -544.24 1040.18 c 0
 -544.24 1025.12 -538.214 1009.67 -526.16 993.855 c 0
 -514.106 980.295 -497.91 973.515 -477.57 973.515 c 0
EndSplineSet
MinimumDistance: x4,-1 
EndChar
StartChar: uni0E4D.left
Encoding: 153 63249
OldEncoding: 63249
Width: 0
Flags: HW
HStem: 811.62 65.54<-441.198 -424> 1031.97 64.41<-440.867 -424>
VStem: -569.38 64.41<942.186 957> -346.77 62.15<941.423 957>
Fore
-425.87 811.62 m 0
 -470.316 811.62 -504.97 826.31 -529.83 855.69 c 0
 -556.196 884.316 -569.38 917.464 -569.38 955.13 c 0
 -569.38 992.044 -556.196 1024.44 -529.83 1052.31 c 1
 -505.724 1081.69 -471.07 1096.38 -425.87 1096.38 c 0
 -381.424 1096.38 -346.77 1082.45 -321.91 1054.57 c 0
 -297.05 1028.96 -284.62 995.81 -284.62 955.13 c 0
 -284.62 914.45 -297.05 880.55 -321.91 853.43 c 0
 -347.523 825.557 -382.177 811.62 -425.87 811.62 c 0
-425.87 1031.97 m 0
 -451.483 1031.97 -470.693 1024.06 -483.5 1008.24 c 0
 -497.813 991.666 -504.97 973.964 -504.97 955.13 c 0
 -504.97 934.79 -497.813 916.334 -483.5 899.76 c 0
 -470.693 884.693 -451.483 877.16 -425.87 877.16 c 0
 -400.256 877.16 -381.046 884.693 -368.24 899.76 c 0
 -353.927 914.826 -346.77 933.283 -346.77 955.13 c 0
 -346.77 968.69 -350.16 980.366 -356.94 990.16 c 0
 -365.98 1005.23 -375.02 1015.4 -384.06 1020.67 c 0
 -396.866 1028.2 -410.804 1031.97 -425.87 1031.97 c 0
EndSplineSet
MinimumDistance: x6,-1 
EndChar
StartChar: uni0E47.left
Encoding: 154 63250
OldEncoding: 63250
Width: 0
Flags: W
HStem: 844.755 53.11<-338.089 -324> 956.625 73.455<-543.814 -530.821> 1002.96 50.84<-336.784 -324> 1104.66 64.4<-429 -372>
VStem: -740.46 70.06<1021 1036> -274.9 53.11<942 963>
Fore
-325.75 844.755 m 0
 -347.597 844.755 -366.807 850.405 -383.38 861.705 c 1
 -404.474 873.005 -426.32 887.695 -448.92 905.775 c 1
 -502.03 944.195 l 2
 -514.084 952.481 -528.02 956.625 -543.84 956.625 c 0
 -578.494 954.365 -601.47 939.675 -612.77 912.555 c 0
 -624.07 881.669 -630.85 857.562 -633.11 840.235 c 1
 -665.504 858.315 -691.116 884.682 -709.95 919.335 c 0
 -730.29 956.249 -740.46 993.161 -740.46 1030.08 c 0
 -740.46 1054.93 -737.07 1074.14 -730.29 1087.71 c 0
 -705.43 1147.97 -645.54 1178.11 -550.62 1178.11 c 1
 -489.6 1175.84 l 1
 -455.7 1171.33 -423.307 1169.06 -392.42 1169.06 c 0
 -349.48 1169.06 -317.84 1176.6 -297.5 1191.67 c 0
 -277.914 1205.98 -268.12 1232.34 -268.12 1270.76 c 1
 -193.54 1270.76 l 1
 -193.54 1210.5 -209.736 1167.18 -242.13 1140.81 c 1
 -276.03 1116.71 -331.023 1104.66 -407.11 1104.66 c 0
 -438.75 1104.66 -474.156 1106.92 -513.33 1111.43 c 1
 -569.076 1111.43 -608.25 1105.79 -630.85 1094.49 c 0
 -657.216 1083.18 -670.4 1063.22 -670.4 1034.59 c 0
 -670.4 1015.01 -663.62 990.525 -650.06 961.145 c 1
 -647.8 966.419 -636.876 981.108 -617.29 1005.21 c 1
 -600.716 1021.79 -576.233 1030.08 -543.84 1030.08 c 0
 -517.474 1030.08 -493.366 1024.05 -471.52 1012 c 1
 -449.674 996.175 -434.983 984.499 -427.45 976.965 c 1
 -411.63 1028.19 -377.73 1053.8 -325.75 1053.8 c 0
 -294.11 1053.8 -268.496 1043.63 -248.91 1023.29 c 0
 -230.83 1002.96 -221.79 979.225 -221.79 952.105 c 0
 -221.79 922.725 -230.83 897.865 -248.91 877.525 c 0
 -269.25 855.679 -294.863 844.755 -325.75 844.755 c 0
-325.75 897.865 m 0
 -307.67 897.865 -294.486 903.515 -286.2 914.815 c 0
 -278.666 924.608 -274.9 937.039 -274.9 952.105 c 0
 -274.9 966.419 -278.666 978.472 -286.2 988.265 c 1
 -295.994 998.059 -309.177 1002.96 -325.75 1002.96 c 0
 -340.063 1002.96 -353.246 998.059 -365.3 988.265 c 1
 -374.34 976.965 -378.86 964.911 -378.86 952.105 c 0
 -378.86 938.545 -374.34 926.115 -365.3 914.815 c 0
 -357.014 903.515 -343.83 897.865 -325.75 897.865 c 0
EndSplineSet
MinimumDistance: x28,-1 
EndChar
StartChar: uni0E48.left
Encoding: 155 63251
OldEncoding: 63251
Width: 0
Flags: W
VStem: -339.07 88.14<1313 1555>
Fore
-339.07 1298.46 m 1
 -339.07 1568.54 l 1
 -250.93 1568.54 l 1
 -250.93 1298.46 l 1
 -339.07 1298.46 l 1
EndSplineSet
MinimumDistance: x2,-1 
EndChar
StartChar: uni0E49.left
Encoding: 156 63252
OldEncoding: 63252
Width: 0
Flags: W
HStem: 1508.42 59.88<-474 -450>
VStem: -582.055 64.41<1440 1457> -403.515 68.93<1445 1457>
Fore
-334.585 1446.26 m 0
 -332.325 1412.37 -338.352 1379.97 -352.665 1349.08 c 0
 -365.472 1324.98 -377.148 1308.78 -387.695 1300.5 c 1
 -334.585 1305.01 l 2
 -312.738 1308.03 -296.541 1311.79 -285.995 1316.31 c 0
 -268.669 1323.09 -250.211 1334.77 -230.625 1351.34 c 0
 -202.751 1376.21 -184.295 1405.58 -175.255 1439.49 c 0
 -166.969 1474.89 -162.825 1514.82 -162.825 1559.26 c 1
 -76.9453 1559.26 l 1
 -76.9453 1415.38 -126.665 1318.95 -226.105 1269.99 c 0
 -274.318 1245.12 -331.948 1232.7 -398.995 1232.7 c 1
 -473.575 1237.21 l 1
 -517.645 1247.38 l 1
 -510.111 1251.15 -497.682 1260.19 -480.355 1274.5 c 1
 -461.521 1293.34 -449.091 1315.94 -443.065 1342.3 c 1
 -452.105 1338.92 l 1
 -473.575 1336.66 l 1
 -502.955 1342.3 l 1
 -555.688 1358.12 -582.055 1395.04 -582.055 1453.04 c 0
 -582.055 1475.64 -577.535 1494.86 -568.495 1510.67 c 0
 -554.935 1530.26 -540.245 1544.95 -524.425 1554.75 c 1
 -504.839 1563.79 -483.745 1568.3 -461.145 1568.3 c 0
 -420.465 1568.3 -389.955 1557 -369.615 1534.41 c 0
 -346.262 1505.78 -334.585 1476.4 -334.585 1446.26 c 0
-461.145 1508.42 m 0
 -478.472 1508.42 -492.409 1503.14 -502.955 1492.59 c 0
 -512.749 1480.54 -517.645 1467.36 -517.645 1453.04 c 0
 -517.645 1435.72 -512.749 1422.54 -502.955 1413.5 c 0
 -490.901 1401.44 -476.965 1395.42 -461.145 1395.42 c 0
 -444.571 1395.42 -430.259 1401.44 -418.205 1413.5 c 0
 -408.411 1424.04 -403.515 1437.22 -403.515 1453.04 c 0
 -403.515 1467.36 -408.411 1480.54 -418.205 1492.59 c 0
 -428.751 1503.14 -443.065 1508.42 -461.145 1508.42 c 0
EndSplineSet
MinimumDistance: x0,-1 
EndChar
StartChar: uni0E4A.left
Encoding: 157 63253
OldEncoding: 63253
Width: 1
Flags: W
HStem: 1253.19 41.8105<-500 -486.238> 1396.7 41.8096<-499.183 -486.222> 1496.14 62.1504<-501 -488 -346 -330>
VStem: -448.359 41.8105<1339 1350> -285.64 62.1504<1397 1430> -142.129 66.6699<1475 1505.18>
Fore
-499.209 1253.19 m 0
 -536.123 1255.45 -565.879 1273.16 -588.479 1306.3 c 1
 -614.093 1340.2 -625.77 1377.12 -623.509 1417.04 c 0
 -623.509 1454.7 -611.079 1487.86 -586.219 1516.48 c 1
 -565.879 1544.36 -536.875 1558.29 -499.209 1558.29 c 0
 -482.636 1558.29 -468.699 1556.03 -457.399 1551.51 c 0
 -442.333 1544.73 -430.655 1537.58 -422.369 1530.04 c 2
 -411.069 1518.74 l 1
 -407.303 1524.76 -397.886 1533.43 -382.819 1544.73 c 0
 -369.259 1553.77 -351.556 1558.29 -329.709 1558.29 c 0
 -258.896 1558.29 -223.489 1511.2 -223.489 1417.04 c 0
 -223.489 1383.9 -232.529 1350.74 -250.609 1317.6 c 1
 -240.062 1321.36 -226.503 1330.03 -209.929 1343.59 c 0
 -192.603 1355.65 -179.419 1369.21 -170.379 1384.27 c 0
 -151.546 1412.15 -142.129 1443.03 -142.129 1476.93 c 0
 -142.129 1491.99 -145.143 1513.09 -151.169 1540.21 c 1
 -82.2393 1562.81 l 1
 -77.7188 1549.25 -75.459 1530.04 -75.459 1505.18 c 0
 -75.459 1443.4 -90.9033 1390.29 -121.789 1345.85 c 0
 -160.209 1288.59 -237.426 1259.97 -353.439 1259.97 c 1
 -325.189 1295 l 2
 -315.396 1307.06 -306.732 1322.49 -299.199 1341.33 c 0
 -290.159 1359.41 -285.64 1380.12 -285.64 1403.48 c 0
 -285.64 1433.62 -288.653 1455.83 -294.679 1470.15 c 0
 -302.966 1487.47 -319.163 1496.14 -343.27 1496.14 c 0
 -359.089 1496.14 -372.272 1490.49 -382.819 1479.19 c 0
 -397.886 1464.87 -405.796 1455.83 -406.549 1452.07 c 1
 -431.409 1479.19 l 2
 -441.955 1490.49 -461.165 1496.14 -489.039 1496.14 c 0
 -507.119 1496.14 -521.81 1489.73 -533.109 1476.93 c 0
 -544.409 1466.39 -550.06 1448.68 -550.06 1423.82 c 1
 -530.85 1432.86 l 1
 -499.209 1438.51 l 1
 -471.336 1438.51 -447.982 1429.84 -429.149 1412.52 c 0
 -414.083 1397.46 -406.549 1373.73 -406.549 1341.33 c 0
 -406.549 1319.49 -415.589 1299.15 -433.669 1280.31 c 0
 -452.503 1262.23 -474.35 1253.19 -499.209 1253.19 c 0
-499.209 1396.7 m 0
 -515.029 1396.7 -527.083 1391.05 -535.369 1379.75 c 0
 -545.163 1369.21 -550.06 1357.91 -550.06 1345.85 c 0
 -550.06 1331.53 -545.163 1319.86 -535.369 1310.82 c 1
 -527.083 1300.28 -515.029 1295 -499.209 1295 c 0
 -480.375 1295 -467.945 1300.28 -461.919 1310.82 c 1
 -452.879 1317.6 -448.359 1329.27 -448.359 1345.85 c 0
 -448.359 1358.65 -452.879 1370.71 -461.919 1382.01 c 0
 -468.699 1391.81 -481.129 1396.7 -499.209 1396.7 c 0
EndSplineSet
MinimumDistance: x17,-1 
EndChar
StartChar: uni0E4B.left
Encoding: 158 63254
OldEncoding: 63254
Width: 0
Flags: W
HStem: 1372.32 79.0996<-454 -326 -238 -100>
VStem: -325.2 88.1406<1274 1372 1451 1564>
Fore
-325.2 1372.32 m 1
 -468.71 1372.32 l 1
 -468.71 1451.42 l 1
 -325.2 1451.42 l 1
 -325.2 1566.68 l 1
 -237.06 1566.68 l 1
 -237.06 1451.42 l 1
 -91.29 1451.42 l 1
 -91.29 1372.32 l 1
 -237.06 1372.32 l 1
 -237.06 1259.32 l 1
 -325.2 1259.32 l 1
 -325.2 1372.32 l 1
EndSplineSet
MinimumDistance: x7,-1 y3,5 y3,4 y0,10 y0,11 x6,8 x6,7 x0,2 x0,1 
EndChar
StartChar: uni0E4C.left
Encoding: 159 63255
OldEncoding: 63255
Width: 0
Flags: W
HStem: 1168 62.15<-331.838 -319.713>
VStem: -479.895 99.44<1278.74 1309.25> -281.015 56.5<1274 1280>
Fore
-412.095 1334.11 m 1
 -409.835 1341.65 -402.302 1351.82 -389.495 1364.62 c 0
 -379.701 1374.42 -360.491 1380.44 -331.865 1382.7 c 1
 -297.965 1380.44 -271.599 1369.9 -252.765 1351.06 c 1
 -233.932 1328.46 -224.515 1303.6 -224.515 1276.48 c 0
 -224.515 1248.61 -233.932 1224.13 -252.765 1203.03 c 0
 -272.352 1179.68 -298.719 1168 -331.865 1168 c 0
 -375.559 1165.74 -411.719 1178.93 -440.345 1207.55 c 0
 -466.711 1233.92 -479.895 1267.82 -479.895 1309.25 c 0
 -479.895 1382.33 -449.762 1433.18 -389.495 1461.8 c 0
 -363.129 1474.61 -322.071 1482.14 -266.325 1484.4 c 0
 -215.852 1486.66 -177.432 1493.07 -151.065 1503.61 c 1
 -127.711 1510.39 -116.035 1531.86 -116.035 1568.02 c 1
 -47.1055 1568.02 l 1
 -47.1055 1535.63 -56.1445 1508.51 -74.2246 1486.66 c 1
 -93.8115 1466.32 -114.905 1452.76 -137.505 1445.98 c 1
 -166.131 1433.93 -205.305 1426.77 -255.025 1424.51 c 0
 -302.485 1422.25 -338.645 1416.23 -363.505 1406.43 c 0
 -389.119 1397.39 -405.315 1373.29 -412.095 1334.11 c 1
-331.865 1327.33 m 0
 -364.259 1327.33 -380.455 1311.14 -380.455 1278.74 c 0
 -380.455 1268.2 -375.559 1257.27 -365.765 1245.97 c 1
 -359.738 1235.43 -348.438 1230.15 -331.865 1230.15 c 0
 -316.045 1230.15 -303.615 1234.67 -294.575 1243.71 c 1
 -285.535 1255.77 -281.015 1267.44 -281.015 1278.74 c 0
 -281.015 1293.06 -285.535 1304.73 -294.575 1313.77 c 1
 -301.355 1322.81 -313.785 1327.33 -331.865 1327.33 c 0
EndSplineSet
MinimumDistance: x4,-1 
EndChar
StartChar: uni0E01
Encoding: 161 3585
OldEncoding: 3585
Width: 795
Flags: W
HStem: -0.0849609 21G<85.75 182.93 578.43 675.61> 717.465 83.62<339 389>
VStem: 85.75 97.18<14 416> 578.43 97.18<14 560>
Fore
4.38965 618.025 m 1
 25.4834 648.911 66.54 687.331 127.56 733.285 c 0
 189.334 778.485 266.927 801.085 360.34 801.085 c 0
 416.84 801.085 470.326 791.669 520.8 772.835 c 0
 567.506 755.509 605.174 726.881 633.8 686.955 c 0
 661.674 647.781 675.61 600.698 675.61 545.705 c 2
 675.61 -0.0849609 l 5
 578.43 -0.0849609 l 1
 578.43 545.705 l 2
 578.43 582.619 568.26 612.751 547.92 636.105 c 1
 529.84 662.472 504.604 682.435 472.21 695.995 c 0
 440.57 710.309 404.034 717.465 362.6 717.465 c 0
 279.733 717.465 208.166 691.852 147.9 640.625 c 1
 159.954 638.365 182.93 630.079 216.83 615.765 c 0
 249.224 601.451 279.356 581.488 307.23 555.875 c 1
 284.63 549.849 259.394 535.911 231.52 514.065 c 0
 199.126 490.711 182.93 451.161 182.93 395.415 c 2
 182.93 -0.0849609 l 1
 85.75 -0.0849609 l 1
 85.75 390.895 l 2
 85.75 435.342 94.0361 470.749 110.61 497.115 c 1
 130.196 521.222 152.796 538.925 178.41 550.225 c 1
 165.604 560.771 145.264 573.201 117.39 587.515 c 0
 85.75 605.595 48.083 615.765 4.38965 618.025 c 1
EndSplineSet
MinimumDistance: x5,-1 
EndChar
StartChar: uni0E02
Encoding: 162 3586
OldEncoding: 3586
Width: 808
Flags: W
HStem: -0.0849609 83.6202<205 297 394 532> 463.215 73.45<132 155> 766.395 20G<591.21 688.39>
VStem: 3.61035 79.0996<608.985 636.105> 297.41 97.18<84 368> 381.03 90.4<592.095 610> 591.21 97.18<142 784>
Fore
235.26 801.085 m 0
 282.72 801.085 324.153 791.669 359.56 772.835 c 0
 394.966 752.495 422.84 726.881 443.18 695.995 c 0
 462.014 667.369 471.43 634.975 471.43 598.815 c 0
 471.43 567.175 468.416 544.198 462.39 529.885 c 1
 434.14 476.775 l 1
 418.32 451.161 408.15 433.459 403.63 423.665 c 0
 397.604 408.599 394.59 382.985 394.59 346.825 c 2
 394.59 83.5352 l 1
 520.02 83.5352 l 2
 550.906 83.5352 570.87 88.0547 579.91 97.0947 c 0
 587.443 104.628 591.21 122.331 591.21 150.205 c 2
 591.21 786.395 l 1
 688.39 786.395 l 1
 688.39 150.205 l 2
 688.39 87.6787 677.844 46.998 656.75 28.165 c 0
 633.396 9.33203 587.82 -0.0849609 520.02 -0.0849609 c 2
 200.23 -0.0849609 l 1
 200.23 83.5352 l 1
 297.41 83.5352 l 1
 297.41 360.385 l 2
 297.41 391.271 300.424 413.871 306.45 428.185 c 0
 310.216 439.485 319.634 456.435 334.7 479.035 c 0
 349.767 498.621 360.69 515.571 367.47 529.885 c 0
 374.25 545.705 378.77 566.421 381.03 592.035 c 1
 381.03 632.715 368.6 665.108 343.74 689.215 c 0
 319.634 714.075 288.746 726.505 251.08 726.505 c 1
 216.05 721.985 l 1
 228.856 719.725 245.807 708.801 266.9 689.215 c 0
 289.5 670.381 299.67 637.988 297.41 592.035 c 0
 297.41 552.108 281.966 520.469 251.08 497.115 c 0
 221.7 474.515 182.526 463.215 133.56 463.215 c 1
 46.9268 474.515 3.61035 532.145 3.61035 636.105 c 1
 10.3896 685.825 38.2637 726.129 87.2305 757.015 c 0
 136.196 786.395 185.54 801.085 235.26 801.085 c 0
153.9 680.175 m 0
 129.794 680.175 112.09 673.395 100.79 659.835 c 0
 88.7363 644.015 82.71 627.065 82.71 608.985 c 0
 82.71 590.905 88.7363 574.709 100.79 560.395 c 1
 111.336 544.575 129.04 536.665 153.9 536.665 c 0
 178.76 536.665 196.464 544.575 207.01 560.395 c 1
 219.816 575.461 226.22 591.658 226.22 608.985 c 0
 226.22 626.312 219.816 643.262 207.01 659.835 c 0
 195.71 673.395 178.006 680.175 153.9 680.175 c 0
EndSplineSet
MinimumDistance: x13,-1 y17,19 x19,17 x19,18 
EndChar
StartChar: uni0E03
Encoding: 163 3587
OldEncoding: 3587
Width: 860
Flags: W
HStem: -0.0849609 83.6202<254 349 453 592> 351.345 72.32<126 144> 567.175 66.67<126 134> 766.395 20G<643.28 740.46>
VStem: -32.46 92.6602<494.855 545.705> 203.71 74.58<490 509> 349.48 97.18<84 512> 435.36 83.62<651 666> 643.28 97.18<142 784>
Fore
518.98 653.055 m 0
 518.98 634.975 515.966 621.791 509.94 613.505 c 2
 483.95 582.995 l 1
 474.156 574.709 464.74 563.785 455.7 550.225 c 0
 449.674 540.432 446.66 524.235 446.66 501.635 c 2
 446.66 83.5352 l 1
 572.09 83.5352 l 2
 603.73 83.5352 622.94 88.0547 629.72 97.0947 c 1
 638.76 103.875 643.28 121.579 643.28 150.205 c 2
 643.28 786.395 l 1
 740.46 786.395 l 1
 740.46 150.205 l 2
 740.46 87.6787 729.914 46.998 708.82 28.165 c 0
 687.727 9.33203 642.15 -0.0849609 572.09 -0.0849609 c 2
 252.3 -0.0849609 l 1
 252.3 83.5352 l 1
 349.48 83.5352 l 1
 349.48 507.285 l 2
 349.48 535.911 352.494 557.381 358.52 571.695 c 0
 365.3 582.995 373.964 594.671 384.51 606.725 c 1
 421.8 633.845 l 2
 430.84 640.625 435.36 649.289 435.36 659.835 c 0
 435.36 673.395 427.826 688.085 412.76 703.905 c 1
 394.68 718.972 379.99 727.259 368.69 728.765 c 1
 273.77 664.355 l 1
 161.9 728.765 l 1
 129.506 721.985 105.023 705.035 88.4502 677.915 c 1
 69.6162 653.809 60.2002 630.831 60.2002 608.985 c 1
 61.707 611.245 69.6162 616.519 83.9297 624.805 c 0
 93.7236 630.831 110.674 633.845 134.78 633.845 c 0
 174.706 631.585 208.606 619.908 236.48 598.815 c 0
 264.354 575.461 278.29 540.055 278.29 492.595 c 0
 278.29 450.408 262.847 415.755 231.96 388.635 c 0
 201.826 363.775 168.68 351.345 132.52 351.345 c 0
 85.0596 351.345 45.5098 369.049 13.8701 404.455 c 0
 -17.0166 440.615 -32.46 487.698 -32.46 545.705 c 0
 -32.46 585.631 -26.8096 618.778 -15.5098 645.145 c 1
 -4.20996 690.345 22.5332 728.389 64.7197 759.275 c 0
 105.4 787.148 141.184 801.085 172.07 801.085 c 1
 273.77 737.805 l 1
 363.04 801.085 l 1
 402.966 788.278 438.75 769.445 470.39 744.585 c 0
 502.784 718.972 518.98 688.461 518.98 653.055 c 0
132.52 567.175 m 0
 109.92 567.175 92.9697 560.019 81.6699 545.705 c 1
 67.3564 532.145 60.2002 515.195 60.2002 494.855 c 0
 60.2002 476.775 67.3564 460.579 81.6699 446.265 c 1
 92.2158 431.198 109.166 423.665 132.52 423.665 c 0
 156.626 423.665 174.33 430.445 185.63 444.005 c 1
 197.684 462.085 203.71 479.035 203.71 494.855 c 0
 203.71 514.441 197.684 531.392 185.63 545.705 c 0
 174.33 560.019 156.626 567.175 132.52 567.175 c 0
EndSplineSet
MinimumDistance: x10,-1 y14,16 x16,14 x16,15 
EndChar
StartChar: uni0E04
Encoding: 164 3588
OldEncoding: 3588
Width: 803
Flags: W
HStem: -0.474609 21G<153.64 248.56 586.43 683.61> 328.355 68.93<331 352> 540.795 72.32<331 352> 728.375 79.1<331 365>
VStem: 12.3896 94.9204<510 543> 153.64 94.92<14 160> 407.89 70.06<462 480> 586.43 97.18<14 543>
Fore
107.31 520.455 m 0
 107.31 493.335 115.974 461.695 133.3 425.535 c 0
 148.366 393.142 158.16 365.269 162.68 341.915 c 1
 162.68 416.495 l 2
 162.68 472.995 177.37 520.079 206.75 557.745 c 0
 237.637 594.658 280.954 613.115 336.7 613.115 c 0
 380.394 613.115 415.046 599.179 440.66 571.305 c 0
 465.52 544.185 477.95 510.285 477.95 469.605 c 0
 477.95 428.925 465.52 395.778 440.66 370.165 c 0
 415.8 342.291 381.146 328.355 336.7 328.355 c 0
 296.02 328.355 266.64 337.395 248.56 355.475 c 1
 248.56 -0.474609 l 1
 153.64 -0.474609 l 1
 153.64 140.775 l 2
 153.64 176.182 148.366 207.068 137.82 233.435 c 0
 128.026 255.281 109.57 287.675 82.4502 330.615 c 0
 59.8496 365.269 42.1465 398.415 29.3398 430.055 c 1
 18.04 452.655 12.3896 484.295 12.3896 524.975 c 0
 12.3896 583.735 28.5869 634.585 60.9805 677.525 c 0
 94.126 722.725 136.69 755.119 188.67 774.705 c 1
 240.65 796.551 295.267 807.475 352.52 807.475 c 0
 439.906 807.475 517.124 783.369 584.17 735.155 c 0
 650.464 686.941 683.61 619.895 683.61 534.015 c 2
 683.61 -0.474609 l 1
 586.43 -0.474609 l 1
 586.43 524.975 l 2
 586.43 591.269 562.7 641.365 515.24 675.265 c 0
 466.273 710.671 409.773 728.375 345.74 728.375 c 0
 280.2 728.375 224.076 710.671 177.37 675.265 c 0
 130.664 639.858 107.31 588.255 107.31 520.455 c 0
336.7 540.795 m 0
 312.594 540.795 294.89 534.015 283.59 520.455 c 0
 270.784 505.389 264.38 488.438 264.38 469.605 c 0
 264.38 452.278 270.784 436.081 283.59 421.015 c 1
 294.137 405.195 311.84 397.285 336.7 397.285 c 0
 361.56 397.285 379.264 405.195 389.81 421.015 c 1
 401.863 435.329 407.89 451.525 407.89 469.605 c 0
 407.89 489.191 401.863 506.142 389.81 520.455 c 0
 378.51 534.015 360.807 540.795 336.7 540.795 c 0
EndSplineSet
MinimumDistance: x22,-1 
EndChar
StartChar: uni0E05
Encoding: 165 3589
OldEncoding: 3589
Width: 803
Flags: W
HStem: -0.0849609 21G<153.64 248.56 586.43 683.61> 328.745 68.93<322 349> 541.185 72.32<321 349>
VStem: 153.64 94.92<14 160> 407.89 70.06<462 480> 586.43 97.18<14 560>
DStem: 244.04 719.725 235 801.085 323.14 668.875 369.47 710.685 500.55 801.085 496.03 719.725 369.47 710.685 369.47 636.105
Fore
12.3896 525.365 m 0
 12.3896 579.605 34.2363 631.961 77.9297 682.435 c 0
 120.87 733.661 173.227 773.211 235 801.085 c 1
 369.47 710.685 l 1
 500.55 801.085 l 1
 622.59 743.079 683.61 654.185 683.61 534.405 c 2
 683.61 -0.0849609 l 1
 586.43 -0.0849609 l 1
 586.43 525.365 l 2
 586.43 560.771 584.17 590.151 579.65 613.505 c 1
 571.363 639.871 563.454 657.575 555.92 666.615 c 0
 551.4 674.148 541.606 683.941 526.54 695.995 c 2
 496.03 719.725 l 1
 369.47 636.105 l 1
 323.14 668.875 l 1
 244.04 719.725 l 1
 196.58 696.371 162.68 668.499 142.34 636.105 c 0
 121.246 601.451 109.57 563.031 107.31 520.845 c 0
 107.31 493.725 115.974 462.085 133.3 425.925 c 0
 148.366 393.531 158.16 365.658 162.68 342.305 c 1
 162.68 416.885 l 2
 162.68 473.385 177.37 520.469 206.75 558.135 c 0
 237.637 595.049 280.954 613.505 336.7 613.505 c 0
 380.394 613.505 415.046 599.568 440.66 571.695 c 0
 465.52 544.575 477.95 510.675 477.95 469.995 c 0
 477.95 429.315 465.52 396.169 440.66 370.555 c 0
 415.8 342.682 381.146 328.745 336.7 328.745 c 0
 296.02 328.745 266.64 337.785 248.56 355.865 c 1
 248.56 -0.0849609 l 1
 153.64 -0.0849609 l 1
 153.64 141.165 l 2
 153.64 176.571 148.366 207.459 137.82 233.825 c 0
 128.026 255.671 109.57 288.065 82.4502 331.005 c 0
 59.8496 365.658 42.1465 398.805 29.3398 430.445 c 1
 18.04 453.045 12.3896 484.685 12.3896 525.365 c 0
336.7 541.185 m 0
 312.594 541.185 294.89 534.405 283.59 520.845 c 0
 270.784 505.778 264.38 488.829 264.38 469.995 c 0
 264.38 452.669 270.784 436.472 283.59 421.405 c 1
 294.137 405.585 311.84 397.675 336.7 397.675 c 0
 361.56 397.675 379.264 405.585 389.81 421.405 c 1
 401.863 435.719 407.89 451.915 407.89 469.995 c 0
 407.89 489.581 401.863 506.531 389.81 520.845 c 0
 378.51 534.405 360.807 541.185 336.7 541.185 c 0
EndSplineSet
MinimumDistance: x5,-1 
EndChar
StartChar: uni0E06
Encoding: 166 3590
OldEncoding: 3590
Width: 1005
Flags: W
HStem: -12.8652 80.2304<313 331> 0.695312 21G<789.015 886.195> 352.125 72.32<137 155> 567.955 66.67<137 142> 767.175 20G<789.015 886.195>
VStem: -21.1953 92.6601<495.635 546.485> 177.685 81.36<146 166> 214.975 71.19<491 510> 358.485 97.18<102 260 342 516> 445.495 81.36<652 667> 789.015 97.18<0.731178 14.7919 165 772>
Fore
358.485 343.085 m 1
 358.485 508.065 l 2
 358.485 533.679 362.251 555.148 369.785 572.475 c 0
 376.565 588.295 384.852 600.725 394.645 609.765 c 1
 431.935 634.625 l 2
 440.975 641.405 445.495 650.068 445.495 660.615 c 0
 445.495 674.175 437.961 688.865 422.895 704.685 c 1
 406.321 718.999 391.631 727.285 378.825 729.545 c 1
 281.645 665.135 l 1
 170.905 729.545 l 1
 144.539 723.519 119.679 706.568 96.3252 678.695 c 1
 78.2451 653.835 69.2051 630.858 69.2051 609.765 c 1
 91.8047 625.585 l 2
 101.599 631.611 118.549 634.625 142.655 634.625 c 0
 184.841 632.365 218.741 619.935 244.355 597.335 c 1
 272.229 576.995 286.165 542.342 286.165 493.375 c 0
 286.165 450.435 270.722 415.781 239.835 389.415 c 0
 210.455 364.555 178.062 352.125 142.655 352.125 c 0
 95.1953 352.125 56.0215 369.829 25.1348 405.235 c 0
 -5.75195 442.901 -21.1953 489.985 -21.1953 546.485 c 0
 -21.1953 578.879 -16.6748 612.025 -7.63477 645.925 c 0
 5.17188 690.371 32.292 728.415 73.7246 760.055 c 1
 114.405 787.929 149.812 801.865 179.945 801.865 c 1
 281.645 738.585 l 1
 374.305 801.865 l 1
 411.972 789.059 446.625 770.225 478.265 745.365 c 0
 510.659 720.505 526.855 689.995 526.855 653.835 c 0
 526.855 635.755 523.841 622.571 517.815 614.285 c 0
 507.269 599.972 498.605 589.801 491.825 583.775 c 0
 478.265 570.215 469.225 559.291 464.705 551.005 c 0
 458.679 541.211 455.665 525.015 455.665 502.415 c 2
 455.665 343.085 l 1
 509.905 338.565 558.495 326.135 601.435 305.795 c 1
 641.361 289.222 679.781 266.999 716.695 239.125 c 1
 744.568 215.019 768.675 190.159 789.015 164.545 c 1
 789.015 787.175 l 1
 886.195 787.175 l 1
 886.195 0.695312 l 1
 789.015 0.695312 l 1
 789.015 30.8281 774.325 65.4814 744.945 104.655 c 0
 711.799 147.595 669.988 183.001 619.515 210.875 c 1
 570.549 240.255 515.932 259.089 455.665 267.375 c 1
 455.665 120.475 l 2
 455.665 81.3018 444.741 48.9082 422.895 23.2949 c 1
 399.541 -0.811523 367.148 -12.8652 325.715 -12.8652 c 0
 277.501 -12.8652 241.341 4.08496 217.235 37.9854 c 1
 190.869 70.3779 177.685 109.552 177.685 155.505 c 0
 177.685 205.225 193.881 248.541 226.275 285.455 c 0
 256.409 321.615 300.479 340.825 358.485 343.085 c 1
281.645 88.835 m 1
 293.698 74.5215 307.635 67.3652 323.455 67.3652 c 0
 346.809 67.3652 358.485 80.5488 358.485 106.915 c 2
 358.485 271.895 l 1
 326.091 271.895 301.231 260.972 283.905 239.125 c 1
 267.331 214.265 259.045 187.898 259.045 160.025 c 0
 259.045 127.631 266.579 103.901 281.645 88.835 c 1
142.655 567.955 m 0
 118.549 567.955 100.845 560.799 89.5449 546.485 c 1
 77.4912 534.432 71.4648 517.481 71.4648 495.635 c 0
 71.4648 479.815 77.4912 462.865 89.5449 444.785 c 1
 100.845 431.225 118.549 424.445 142.655 424.445 c 0
 166.762 424.445 184.465 431.225 195.765 444.785 c 0
 208.571 461.358 214.975 478.309 214.975 495.635 c 0
 214.975 516.729 208.571 533.679 195.765 546.485 c 1
 184.465 560.799 166.762 567.955 142.655 567.955 c 0
EndSplineSet
MinimumDistance: x36,-1 
EndChar
StartChar: uni0E07
Encoding: 167 3591
OldEncoding: 3591
Width: 632
Flags: W
HStem: -14.7354 87.0108<379 390> 512.975 71.19<355.835 383> 725.415 72.32<355.348 383>
VStem: 227.62 70.06<652 658> 415.2 97.18<98 514> 443.45 68.93<652 658>
DStem: 1.62012 493.765 77.3301 535.575 260.39 54.1953 339.49 98.2646
Fore
415.2 109.565 m 2
 415.2 522.015 l 1
 405.406 515.988 389.964 512.975 368.87 512.975 c 0
 324.424 512.975 289.77 527.665 264.91 557.045 c 0
 240.05 584.165 227.62 617.312 227.62 656.485 c 0
 227.62 695.658 240.05 729.559 264.91 758.185 c 1
 292.784 784.551 327.437 797.735 368.87 797.735 c 0
 396.744 797.735 422.356 791.331 445.71 778.525 c 0
 468.31 765.719 485.26 748.769 496.56 727.675 c 0
 507.106 708.842 512.38 684.358 512.38 654.225 c 2
 512.38 102.785 l 2
 512.38 65.1182 501.08 35.7383 478.48 14.6445 c 0
 455.88 -4.94141 426.5 -14.7354 390.34 -14.7354 c 0
 363.974 -14.7354 339.866 -9.46191 318.02 1.08496 c 0
 290.9 16.1514 271.69 33.8555 260.39 54.1953 c 2
 1.62012 493.765 l 1
 77.3301 535.575 l 1
 339.49 98.2646 l 2
 349.284 80.9385 363.22 72.2754 381.3 72.2754 c 0
 391.094 72.2754 399.38 75.665 406.16 82.4453 c 0
 412.187 88.4717 415.2 97.5117 415.2 109.565 c 2
368.87 725.415 m 0
 347.776 725.415 330.826 718.635 318.02 705.075 c 1
 304.46 687.749 297.68 671.551 297.68 656.485 c 0
 297.68 638.405 303.706 622.209 315.76 607.895 c 0
 329.32 592.075 347.023 584.165 368.87 584.165 c 0
 392.977 584.165 411.81 592.075 425.37 607.895 c 0
 437.424 622.209 443.45 638.405 443.45 656.485 c 0
 443.45 672.305 436.294 688.501 421.98 705.075 c 0
 408.42 718.635 390.716 725.415 368.87 725.415 c 0
EndSplineSet
MinimumDistance: x9,-1 
EndChar
StartChar: uni0E08
Encoding: 168 3592
OldEncoding: 3592
Width: 749
Flags: W
HStem: -0.0849609 21G<532.635 629.815> 286.935 68.93<278 291> 497.115 76.84<278 296> 726.505 74.58<289 342>
VStem: 150.695 68.93<426 436> 532.635 97.18<-0.0259838 39.1554 320 560>
Fore
291.945 573.955 m 0
 340.159 573.955 380.085 557.759 411.725 525.365 c 0
 441.858 495.231 468.979 454.175 493.085 402.195 c 2
 532.635 319.705 l 1
 532.635 541.185 l 2
 532.635 599.191 512.671 644.015 472.745 675.655 c 0
 429.805 709.555 377.825 726.505 316.805 726.505 c 0
 213.599 728.765 131.108 686.201 69.335 598.815 c 1
 7.18457 647.405 l 1
 29.0312 685.825 68.2051 721.608 124.705 754.755 c 1
 184.219 785.642 249.005 801.085 319.065 801.085 c 0
 377.071 801.085 430.559 790.915 479.525 770.575 c 0
 528.491 749.481 564.651 720.102 588.005 682.435 c 1
 615.879 643.262 629.815 596.179 629.815 541.185 c 2
 629.815 -0.0849609 l 1
 532.635 -0.0849609 l 1
 532.635 48.1279 527.361 95.9648 516.815 143.425 c 0
 506.269 184.858 491.579 230.435 472.745 280.155 c 1
 456.171 316.315 438.469 347.201 419.635 372.815 c 1
 414.361 359.255 402.685 342.305 384.605 321.965 c 1
 363.512 300.871 332.625 289.195 291.945 286.935 c 1
 250.512 286.935 217.365 300.871 192.505 328.745 c 1
 164.631 355.865 150.695 391.271 150.695 434.965 c 0
 150.695 476.398 163.879 509.545 190.245 534.405 c 1
 215.105 560.771 249.005 573.955 291.945 573.955 c 0
291.945 497.115 m 0
 267.839 497.115 250.135 490.335 238.835 476.775 c 0
 226.028 461.709 219.625 445.512 219.625 428.185 c 0
 219.625 410.105 226.781 393.908 241.095 379.595 c 1
 252.395 363.775 269.345 355.865 291.945 355.865 c 0
 313.791 355.865 330.741 363.021 342.795 377.335 c 0
 354.849 391.648 360.875 408.599 360.875 428.185 c 0
 360.875 447.771 355.602 463.969 345.055 476.775 c 0
 333.755 490.335 316.052 497.115 291.945 497.115 c 0
EndSplineSet
MinimumDistance: x13,-1 
EndChar
StartChar: uni0E09
Encoding: 169 3593
OldEncoding: 3593
Width: 852
Flags: W
HStem: 0.695312 21G<182.285 279.465> 267.375 68.93<123.085 140> 479.815 71.19<123.085 140> 725.025 76.84<361 395>
VStem: -5.29492 71.1894<402 420> 182.285 97.18<0.731251 16.1623 171 276> 209.405 70.06<402 420> 586.825 97.18<77 260 337 564> 760.845 73.45<146 172>
Fore
279.465 405.235 m 2
 279.465 170.195 l 1
 311.858 215.395 358.188 253.815 418.455 285.455 c 0
 477.969 314.835 534.091 332.539 586.825 338.565 c 1
 586.825 541.965 l 2
 586.825 601.479 568.369 646.301 531.455 676.435 c 1
 494.541 708.829 444.445 725.025 381.165 725.025 c 0
 328.432 725.025 279.841 711.842 235.395 685.475 c 0
 194.715 661.369 162.321 630.481 138.215 592.815 c 1
 76.0654 641.405 l 1
 107.705 688.865 148.385 726.908 198.105 755.535 c 0
 253.852 786.421 314.871 801.865 381.165 801.865 c 0
 470.812 801.865 544.262 778.512 601.515 731.805 c 0
 656.509 688.111 684.005 624.831 684.005 541.965 c 2
 684.005 338.565 l 1
 732.972 329.525 771.015 309.562 798.135 278.675 c 1
 822.241 247.035 834.295 205.979 834.295 155.505 c 0
 834.295 104.278 819.981 64.3516 791.355 35.7246 c 0
 761.222 3.33203 723.932 -12.8652 679.485 -12.8652 c 0
 651.611 -12.8652 629.389 -4.57812 612.815 11.9951 c 0
 595.488 29.3213 586.825 51.9219 586.825 79.7949 c 2
 586.825 261.725 l 1
 528.818 250.425 476.461 231.215 429.755 204.095 c 0
 380.035 173.961 343.121 140.815 319.015 104.655 c 0
 292.648 66.9883 279.465 32.335 279.465 0.695312 c 1
 182.285 0.695312 l 1
 182.285 276.415 l 1
 173.999 270.389 159.309 267.375 138.215 267.375 c 0
 93.0146 267.375 58.3613 281.688 34.2549 310.315 c 0
 7.88867 338.941 -5.29492 372.089 -5.29492 409.755 c 0
 -5.29492 449.682 7.13477 483.205 31.9951 510.325 c 0
 56.8555 537.445 92.2617 551.005 138.215 551.005 c 0
 181.155 551.005 215.055 537.445 239.915 510.325 c 0
 266.281 481.698 279.465 446.669 279.465 405.235 c 2
138.215 479.815 m 0
 114.108 479.815 96.4053 473.035 85.1055 459.475 c 0
 72.2988 442.901 65.8945 425.575 65.8945 407.495 c 0
 65.8945 390.169 72.2988 373.219 85.1055 356.645 c 0
 96.4053 343.085 114.108 336.305 138.215 336.305 c 0
 162.321 336.305 180.025 343.085 191.325 356.645 c 1
 203.379 374.725 209.405 391.675 209.405 407.495 c 0
 209.405 426.329 203.379 443.655 191.325 459.475 c 0
 180.025 473.035 162.321 479.815 138.215 479.815 c 0
760.845 155.505 m 0
 760.845 182.625 754.818 207.485 742.765 230.085 c 1
 726.945 248.919 707.358 259.465 684.005 261.725 c 1
 684.005 84.3154 l 2
 684.005 70.002 688.901 62.8447 698.695 62.8447 c 0
 716.021 62.8447 730.711 72.2617 742.765 91.0947 c 0
 754.818 110.682 760.845 132.151 760.845 155.505 c 0
EndSplineSet
MinimumDistance: x16,-1 
EndChar
StartChar: uni0E0A
Encoding: 170 3594
OldEncoding: 3594
Width: 803
Flags: W
HStem: -2.62012 83.6201<199 292 389 527> 460.68 73.45<127 150>
VStem: -1.45996 79.0996<606.45 633.57> 292.34 97.18<81 366> 586.14 97.18<124.774 474>
Fore
572.58 629.05 m 1
 582.374 629.05 594.804 626.036 609.87 620.01 c 0
 625.69 613.23 641.887 597.786 658.46 573.68 c 0
 675.034 546.56 683.32 511.906 683.32 469.72 c 2
 683.32 147.67 l 2
 683.32 85.1436 672.773 44.4629 651.68 25.6299 c 0
 628.326 6.79688 582.75 -2.62012 514.95 -2.62012 c 2
 195.16 -2.62012 l 1
 195.16 81 l 1
 292.34 81 l 1
 292.34 357.85 l 2
 292.34 388.736 295.354 411.336 301.38 425.65 c 0
 305.146 436.95 314.563 453.9 329.63 476.5 c 0
 344.696 496.086 355.62 513.036 362.4 527.35 c 0
 369.18 543.17 373.7 563.887 375.96 589.5 c 1
 375.96 630.18 363.53 662.573 338.67 686.68 c 0
 314.563 711.54 283.677 723.97 246.01 723.97 c 1
 210.98 719.45 l 1
 223.786 717.19 240.736 706.267 261.83 686.68 c 0
 284.43 667.847 294.6 635.454 292.34 589.5 c 0
 292.34 549.573 276.896 517.934 246.01 494.58 c 0
 216.63 471.98 177.456 460.68 128.49 460.68 c 1
 41.8564 471.98 -1.45996 529.61 -1.45996 633.57 c 1
 5.32031 683.29 33.1934 723.594 82.1602 754.48 c 0
 131.126 783.86 180.47 798.55 230.19 798.55 c 0
 263.336 798.55 297.236 792.146 331.89 779.34 c 0
 359.764 768.794 385.376 751.844 408.73 728.49 c 0
 427.563 709.656 441.876 686.68 451.67 659.56 c 1
 477.284 659.56 513.82 671.613 561.28 695.72 c 0
 612.506 720.58 659.59 769.546 702.53 842.62 c 1
 771.46 798.55 l 1
 745.094 742.804 711.946 702.5 672.02 677.64 c 1
 624.56 651.273 591.414 635.076 572.58 629.05 c 1
464.1 589.5 m 1
 464.1 560.12 460.71 538.65 453.93 525.09 c 0
 442.63 498.724 434.344 481.773 429.07 474.24 c 0
 412.496 448.626 402.326 430.17 398.56 418.87 c 0
 392.534 401.544 389.52 376.684 389.52 344.29 c 2
 389.52 81 l 1
 514.95 81 l 2
 545.836 81 565.8 85.5195 574.84 94.5596 c 0
 582.374 102.094 586.14 119.796 586.14 147.67 c 2
 586.14 450.51 l 2
 586.14 543.17 545.46 589.5 464.1 589.5 c 1
148.83 677.64 m 0
 124.724 677.64 107.02 670.86 95.7197 657.3 c 0
 83.666 641.48 77.6396 624.53 77.6396 606.45 c 0
 77.6396 588.37 83.666 572.174 95.7197 557.86 c 1
 106.267 542.04 123.97 534.13 148.83 534.13 c 0
 173.69 534.13 191.394 542.04 201.94 557.86 c 1
 214.746 572.926 221.15 589.124 221.15 606.45 c 0
 221.15 623.776 214.746 640.727 201.94 657.3 c 0
 190.64 670.86 172.937 677.64 148.83 677.64 c 0
EndSplineSet
MinimumDistance: x3,-1 y7,9 x9,7 x9,8 
EndChar
StartChar: uni0E0B
Encoding: 171 3595
OldEncoding: 3595
Width: 855
Flags: W
HStem: -3.91992 83.6201<249 344 441 587> 347.51 72.32<121 139> 563.34 66.67<121 129>
VStem: -37.6602 92.6602<491.02 541.87> 198.51 74.58<486 505> 344.28 97.18<80 509> 638.08 97.18<139 492>
Fore
513.78 671.82 m 1
 546.927 680.86 584.594 698.563 626.78 724.93 c 0
 677.254 754.31 719.816 800.64 754.47 863.92 c 1
 825.66 817.59 l 1
 806.826 780.676 782.344 749.036 752.21 722.67 c 0
 727.35 700.824 699.477 682.366 668.59 667.3 c 0
 636.95 650.727 619.246 642.063 615.48 641.31 c 1
 634.313 639.05 659.55 626.996 691.19 605.15 c 1
 720.57 582.55 735.26 536.974 735.26 468.42 c 2
 735.26 146.37 l 2
 735.26 83.8438 724.714 43.1631 703.62 24.3301 c 0
 682.526 5.49707 636.95 -3.91992 566.89 -3.91992 c 2
 247.1 -3.91992 l 1
 247.1 79.7002 l 1
 344.28 79.7002 l 1
 344.28 503.45 l 2
 344.28 538.856 350.684 564.847 363.49 581.42 c 0
 375.544 597.994 393.246 614.19 416.6 630.01 c 0
 425.64 636.79 430.16 645.454 430.16 656 c 0
 430.16 669.56 422.626 684.25 407.56 700.07 c 1
 389.48 715.137 374.79 723.424 363.49 724.93 c 1
 268.57 660.52 l 1
 156.7 724.93 l 1
 124.307 718.15 99.8232 701.2 83.25 674.08 c 1
 64.416 649.974 55 626.996 55 605.15 c 1
 56.5068 607.41 64.416 612.684 78.7305 620.97 c 0
 88.5234 626.996 105.474 630.01 129.58 630.01 c 0
 169.506 627.75 203.406 616.074 231.28 594.98 c 0
 259.153 571.626 273.09 536.22 273.09 488.76 c 0
 273.09 446.573 257.646 411.92 226.76 384.8 c 0
 196.626 359.94 163.48 347.51 127.32 347.51 c 0
 79.8604 347.51 40.3096 365.214 8.66992 400.62 c 0
 -22.2168 436.78 -37.6602 483.863 -37.6602 541.87 c 0
 -37.6602 581.796 -32.0098 614.943 -20.71 641.31 c 1
 -9.41016 686.51 17.333 724.554 59.5195 755.44 c 0
 100.2 783.313 135.983 797.25 166.87 797.25 c 1
 268.57 733.97 l 1
 357.84 797.25 l 1
 394.754 788.964 422.626 776.533 441.46 759.96 c 0
 467.073 739.62 484.776 720.41 494.57 702.33 c 1
 513.78 671.82 l 1
 513.78 671.82 l 1
504.74 605.15 m 1
 478.75 579.16 l 1
 465.19 570.12 455.773 559.95 450.5 548.65 c 0
 444.474 538.856 441.46 521.906 441.46 497.8 c 2
 441.46 79.7002 l 1
 566.89 79.7002 l 2
 598.53 79.7002 617.74 84.2197 624.52 93.2598 c 1
 633.56 100.04 638.08 117.744 638.08 146.37 c 2
 638.08 468.42 l 2
 638.08 559.574 593.634 605.15 504.74 605.15 c 1
127.32 563.34 m 0
 104.72 563.34 87.7695 556.184 76.4697 541.87 c 1
 62.1562 528.31 55 511.36 55 491.02 c 0
 55 472.94 62.1562 456.744 76.4697 442.43 c 1
 87.0166 427.363 103.966 419.83 127.32 419.83 c 0
 151.427 419.83 169.13 426.61 180.43 440.17 c 1
 192.483 458.25 198.51 475.2 198.51 491.02 c 0
 198.51 510.606 192.483 527.557 180.43 541.87 c 0
 169.13 556.184 151.427 563.34 127.32 563.34 c 0
EndSplineSet
MinimumDistance: x8,-1 y12,14 x14,12 x14,13 
EndChar
StartChar: uni0E0C
Encoding: 172 3596
OldEncoding: 3596
Width: 1039
Flags: W
HStem: -12.8652 71.1904<200 230> 0.695312 21G<822.315 919.495> 199.575 72.32<200 218> 729.545 72.32<308 356> 767.175 20G<822.315 919.495>
VStem: 70.8652 71.1898<117.56 143> 70.8652 97.1798<262 436> 285.565 67.8<117.194 143> 389.525 67.8<128 151> 510.435 97.18<92 202 288 596> 822.315 97.18<142 772>
Fore
168.045 415.405 m 2
 168.045 261.725 l 1
 174.071 268.505 190.269 271.895 216.635 271.895 c 0
 258.068 271.895 291.969 257.959 318.335 230.085 c 1
 341.688 200.705 353.365 167.559 353.365 130.645 c 0
 353.365 92.2246 341.688 59.0781 318.335 31.2051 c 0
 293.475 1.8252 259.575 -12.8652 216.635 -12.8652 c 0
 175.201 -12.8652 140.549 0.318359 112.675 26.6846 c 0
 84.8018 51.5449 70.8652 86.1982 70.8652 130.645 c 2
 70.8652 409.755 l 2
 70.8652 500.155 103.259 556.655 168.045 579.255 c 1
 102.505 618.805 l 1
 82.165 629.352 44.498 642.535 -10.4951 658.355 c 1
 6.83203 682.461 42.9912 712.595 97.9854 748.755 c 0
 153.731 784.161 227.182 801.865 318.335 801.865 c 0
 511.188 801.865 607.615 727.661 607.615 579.255 c 2
 607.615 287.715 l 1
 640.762 280.935 679.182 264.738 722.875 239.125 c 1
 767.321 210.499 800.469 178.105 822.315 141.945 c 1
 822.315 787.175 l 1
 919.495 787.175 l 1
 919.495 0.695312 l 1
 822.315 0.695312 l 1
 813.275 23.2949 801.975 47.0254 788.415 71.8848 c 1
 771.841 95.2383 748.488 120.852 718.355 148.725 c 0
 689.729 173.585 652.815 194.302 607.615 210.875 c 1
 607.615 88.835 l 2
 607.615 21.0352 576.729 -12.8652 514.955 -12.8652 c 0
 475.781 -12.8652 444.895 2.57812 422.295 33.4648 c 0
 400.448 65.1055 389.525 102.019 389.525 144.205 c 0
 389.525 182.625 400.448 216.525 422.295 245.905 c 0
 441.881 273.025 471.262 287.715 510.435 289.975 c 1
 510.435 579.255 l 2
 510.435 628.975 494.238 666.642 461.845 692.255 c 0
 430.205 717.115 386.889 729.545 331.895 729.545 c 0
 261.081 729.545 193.281 710.335 128.495 671.915 c 1
 140.549 668.148 165.031 657.225 201.945 639.145 c 0
 235.091 624.079 266.731 602.608 296.865 574.735 c 1
 284.812 574.735 270.121 571.722 252.795 565.695 c 0
 236.222 559.669 217.012 544.979 195.165 521.625 c 1
 177.085 495.259 168.045 459.852 168.045 415.405 c 2
510.435 93.3555 m 1
 510.435 223.305 l 1
 475.028 215.019 457.325 185.639 457.325 135.165 c 0
 457.325 118.591 461.845 104.655 470.885 93.3555 c 0
 478.419 81.3018 485.951 75.2754 493.485 75.2754 c 0
 502.525 75.2754 508.175 81.3018 510.435 93.3555 c 1
214.375 58.3252 m 0
 238.481 58.3252 256.185 65.4814 267.485 79.7949 c 0
 279.539 94.1084 285.565 111.059 285.565 130.645 c 0
 285.565 147.219 279.539 163.415 267.485 179.235 c 1
 253.171 192.795 235.469 199.575 214.375 199.575 c 0
 191.775 199.575 174.825 192.795 163.525 179.235 c 1
 149.211 164.921 142.055 148.725 142.055 130.645 c 0
 142.055 111.059 148.459 94.1084 161.265 79.7949 c 0
 174.825 65.4814 192.528 58.3252 214.375 58.3252 c 0
EndSplineSet
MinimumDistance: x20,-1 
EndChar
StartChar: uni0E0D
Encoding: 173 3597
OldEncoding: 3597
Width: 1039
Flags: W
HStem: -127.755 73.4503<527.738 539.801 539.838 550> 8.97461 71.1904<200 230> 22.5352 83.6198<420 502 606 774> 221.415 72.32<200 218> 751.385 72.32<308 356>
VStem: 70.8652 71.1898<140 158> 70.8652 97.1798<284 446> 285.565 67.8<140 158> 404.215 71.19<-198 -178> 510.435 97.18<106 622> 603.095 73.45<-198 -178> 822.315 97.18<-84 -66 151 798>
Fore
919.495 -58.8252 m 1
 919.495 -127.379 906.312 -185.009 879.945 -231.715 c 1
 855.085 -280.682 820.432 -315.335 775.985 -335.675 c 1
 732.291 -359.028 686.715 -370.705 639.255 -370.705 c 0
 578.235 -370.705 523.619 -353.755 475.405 -319.855 c 0
 427.945 -285.955 404.215 -244.521 404.215 -195.555 c 0
 404.215 -158.642 415.515 -125.119 438.115 -94.9854 c 0
 461.469 -65.6055 497.251 -52.0449 545.465 -54.3047 c 0
 586.898 -54.3047 619.291 -67.8652 642.645 -94.9854 c 0
 665.245 -120.599 676.545 -152.238 676.545 -189.905 c 0
 676.545 -213.259 671.271 -235.105 660.725 -255.445 c 0
 650.932 -272.771 636.241 -288.215 616.655 -301.775 c 1
 664.869 -301.775 711.951 -286.331 757.905 -255.445 c 0
 800.845 -226.065 822.315 -160.525 822.315 -58.8252 c 1
 919.495 -58.8252 l 1
70.8652 152.485 m 2
 70.8652 431.595 l 2
 70.8652 521.995 103.259 578.495 168.045 601.095 c 1
 102.505 640.645 l 1
 82.165 651.191 44.498 664.375 -10.4951 680.195 c 1
 6.83203 704.301 42.9912 734.435 97.9854 770.595 c 0
 153.731 806.001 227.182 823.705 318.335 823.705 c 0
 511.188 823.705 607.615 749.501 607.615 601.095 c 2
 607.615 106.155 l 1
 751.125 106.155 l 2
 782.765 106.155 801.975 110.675 808.755 119.715 c 1
 817.795 126.495 822.315 144.198 822.315 172.825 c 2
 822.315 809.015 l 1
 919.495 809.015 l 1
 919.495 172.825 l 2
 919.495 129.885 914.975 97.4912 905.935 75.6445 c 0
 896.895 54.5518 880.698 40.6152 857.345 33.835 c 0
 832.485 26.3018 797.079 22.5352 751.125 22.5352 c 2
 413.255 22.5352 l 1
 413.255 106.155 l 1
 510.435 106.155 l 1
 510.435 601.095 l 2
 510.435 650.815 494.238 688.481 461.845 714.095 c 0
 430.205 738.955 386.889 751.385 331.895 751.385 c 0
 261.081 751.385 193.281 732.175 128.495 693.755 c 1
 140.549 689.988 165.031 679.065 201.945 660.985 c 0
 235.091 645.919 266.731 624.449 296.865 596.575 c 1
 284.812 596.575 270.121 593.562 252.795 587.535 c 0
 236.222 581.509 217.012 566.818 195.165 543.465 c 1
 177.085 517.099 168.045 481.691 168.045 437.245 c 2
 168.045 283.565 l 1
 174.071 290.345 190.269 293.735 216.635 293.735 c 0
 258.068 293.735 291.969 279.799 318.335 251.925 c 1
 341.688 222.545 353.365 189.398 353.365 152.485 c 0
 353.365 114.065 341.688 80.918 318.335 53.0449 c 0
 293.475 23.665 259.575 8.97461 216.635 8.97461 c 0
 175.201 8.97461 140.549 22.1582 112.675 48.5254 c 0
 84.8018 73.3848 70.8652 108.038 70.8652 152.485 c 2
539.815 -253.185 m 0
 559.401 -253.185 574.845 -246.781 586.145 -233.975 c 0
 597.445 -223.429 603.095 -208.738 603.095 -189.905 c 0
 603.095 -173.331 597.445 -159.019 586.145 -146.965 c 0
 574.845 -134.159 559.401 -127.755 539.815 -127.755 c 0
 521.735 -127.755 506.291 -134.159 493.485 -146.965 c 0
 481.432 -159.019 475.405 -173.331 475.405 -189.905 c 0
 475.405 -207.231 481.432 -221.921 493.485 -233.975 c 0
 506.291 -246.781 521.735 -253.185 539.815 -253.185 c 0
214.375 80.165 m 0
 238.481 80.165 256.185 87.3213 267.485 101.635 c 0
 279.539 115.948 285.565 132.898 285.565 152.485 c 0
 285.565 169.059 279.539 185.255 267.485 201.075 c 1
 253.171 214.635 235.469 221.415 214.375 221.415 c 0
 191.775 221.415 174.825 214.635 163.525 201.075 c 1
 149.211 186.762 142.055 170.565 142.055 152.485 c 0
 142.055 132.898 148.459 115.948 161.265 101.635 c 0
 174.825 87.3213 192.528 80.165 214.375 80.165 c 0
EndSplineSet
MinimumDistance: x0,-1 y32,34 x34,32 x34,33 
EndChar
StartChar: uni0E0E
Encoding: 174 3598
OldEncoding: 3598
Width: 885
Flags: W
HStem: -377.084 90.399<237 239 240.195 255.929> -140.914 84.7499<253 279> 9.37598 71.1894<122 139> 221.815 72.321<117 139> 740.485 83.62<430 471>
VStem: -9.58984 68.9296<146 154> 80.8096 90.4004<-223 -214> 177.99 97.18<293 423> 205.11 70.06<146 154> 670.67 94.92<-243 583>
Fore
177.99 283.966 m 1
 177.99 413.916 l 2
 177.99 444.05 182.51 471.169 191.55 495.275 c 0
 199.084 518.629 210.006 535.579 224.32 546.126 c 0
 237.88 557.426 253.323 566.466 270.65 573.246 c 1
 260.856 581.532 239.764 593.962 207.37 610.535 c 0
 175.73 628.615 138.063 638.785 94.3701 641.046 c 1
 116.216 672.686 158.026 711.105 219.8 756.306 c 0
 283.834 801.506 361.427 824.105 452.58 824.105 c 0
 545.24 824.105 620.196 802.26 677.45 758.565 c 0
 736.21 713.365 765.59 650.086 765.59 568.726 c 2
 765.59 -372.564 l 1
 670.67 -372.564 l 1
 640.536 -332.638 604.376 -295.725 562.19 -261.824 c 0
 536.576 -241.484 505.69 -221.521 469.53 -201.935 c 1
 458.983 -242.614 431.863 -282.541 388.17 -321.715 c 0
 344.477 -360.888 295.134 -379.345 240.14 -377.084 c 0
 192.68 -377.084 154.26 -361.641 124.88 -330.754 c 0
 95.5 -302.128 80.8096 -262.954 80.8096 -213.234 c 0
 83.0703 -162.008 101.526 -122.458 136.18 -94.584 c 1
 172.34 -68.9707 216.41 -56.1641 268.39 -56.1641 c 0
 309.823 -56.1641 357.66 -64.4512 411.9 -81.0244 c 1
 423.2 -41.4746 l 2
 426.214 -30.1748 429.227 -8.7041 432.24 22.9355 c 1
 520.38 4.85547 l 1
 517.366 -29.0439 513.6 -53.9043 509.08 -69.7246 c 1
 496.65 -118.314 l 1
 531.304 -134.888 567.086 -156.358 604 -182.725 c 0
 639.406 -209.845 661.63 -230.185 670.67 -243.744 c 1
 670.67 568.726 l 2
 670.67 605.64 660.5 635.771 640.16 659.126 c 1
 622.08 685.492 596.844 705.456 564.45 719.016 c 0
 532.81 733.329 496.273 740.485 454.84 740.485 c 0
 371.974 740.485 300.406 714.872 240.14 663.646 c 1
 252.193 661.386 275.17 653.1 309.07 638.785 c 0
 341.464 624.472 371.597 604.51 399.47 578.896 c 1
 376.87 572.869 351.634 558.932 323.76 537.086 c 0
 291.366 513.732 275.17 474.182 275.17 418.436 c 2
 275.17 148.365 l 2
 275.17 108.439 262.74 76.0459 237.88 51.1855 c 0
 212.267 23.3125 176.86 9.37598 131.66 9.37598 c 0
 88.7197 9.37598 54.8203 23.3125 29.96 51.1855 c 0
 3.59375 79.0586 -9.58984 112.959 -9.58984 152.886 c 0
 -9.58984 192.06 2.83984 225.206 27.7002 252.325 c 0
 53.3135 280.199 87.9658 294.136 131.66 294.136 c 0
 152 294.136 167.443 290.746 177.99 283.966 c 1
302.29 -275.385 m 0
 325.644 -264.084 344.1 -245.628 357.66 -220.015 c 0
 371.22 -196.66 380.637 -177.45 385.91 -162.385 c 1
 339.204 -148.07 300.03 -140.914 268.39 -140.914 c 0
 203.604 -140.914 171.21 -165.021 171.21 -213.234 c 0
 171.21 -224.534 173.47 -236.211 177.99 -248.265 c 0
 189.29 -273.878 215.28 -286.685 255.96 -286.685 c 0
 269.52 -286.685 284.964 -282.918 302.29 -275.385 c 0
131.66 80.5654 m 0
 155.014 80.5654 173.47 87.7227 187.03 102.035 c 0
 199.084 116.349 205.11 133.299 205.11 152.886 c 0
 205.11 169.459 199.084 185.655 187.03 201.476 c 1
 173.47 215.035 155.014 221.815 131.66 221.815 c 0
 109.06 221.815 92.1104 215.035 80.8096 201.476 c 0
 66.4961 184.902 59.3398 168.706 59.3398 152.886 c 0
 59.3398 134.053 66.4961 117.855 80.8096 104.296 c 1
 91.3564 88.4756 108.307 80.5654 131.66 80.5654 c 0
EndSplineSet
MinimumDistance: x10,-1 
EndChar
StartChar: uni0E0F
Encoding: 175 3599
OldEncoding: 3599
Width: 885
Flags: W
HStem: -178.215 75.71<203 231> 9.36523 71.1895<118.017 135> 221.805 72.32<117 135> 740.475 83.62<432 471>
VStem: -9.58984 68.9296<146 154> 177.99 97.18<293 423> 205.11 70.06<146 154> 670.67 94.92<-257 583>
DStem: 559.93 -146.575 564.45 -243.755 458.23 -252.795 448.06 -377.095
Fore
177.99 283.955 m 1
 177.99 413.905 l 2
 177.99 444.039 182.51 471.158 191.55 495.265 c 0
 199.084 518.619 210.006 535.568 224.32 546.115 c 0
 237.88 557.415 253.323 566.455 270.65 573.235 c 1
 260.856 581.521 239.764 593.951 207.37 610.525 c 0
 175.73 628.605 138.063 638.775 94.3701 641.035 c 1
 116.216 672.675 158.026 711.095 219.8 756.295 c 0
 283.834 801.495 361.427 824.095 452.58 824.095 c 0
 545.24 824.095 620.196 802.249 677.45 758.555 c 0
 736.21 713.355 765.59 650.075 765.59 568.715 c 2
 765.59 -372.575 l 1
 670.67 -372.575 l 1
 564.45 -243.755 l 1
 448.06 -377.095 l 1
 434.5 -352.988 420.563 -332.271 406.25 -314.945 c 0
 387.416 -291.592 373.856 -275.395 365.57 -266.355 c 1
 354.27 -285.941 336.19 -308.919 311.33 -335.285 c 0
 284.21 -363.158 248.05 -377.095 202.85 -377.095 c 0
 162.924 -377.095 131.284 -363.158 107.93 -335.285 c 1
 83.0703 -310.425 70.6396 -272.759 70.6396 -222.285 c 1
 76.666 -182.358 91.3564 -152.225 114.71 -131.885 c 0
 139.57 -112.299 171.964 -102.505 211.89 -102.505 c 0
 253.323 -102.505 294.38 -115.312 335.06 -140.925 c 1
 355.4 -71.9951 l 1
 365.946 -40.3555 372.35 -8.71484 374.61 22.9248 c 1
 458.23 4.84473 l 1
 455.97 -12.4814 448.06 -47.5117 434.5 -100.245 c 0
 423.2 -143.938 412.276 -175.579 401.73 -195.165 c 1
 405.496 -195.165 424.33 -214.375 458.23 -252.795 c 1
 559.93 -146.575 l 1
 670.67 -257.315 l 1
 670.67 568.715 l 2
 670.67 605.629 660.5 635.762 640.16 659.115 c 1
 622.08 685.481 596.844 705.445 564.45 719.005 c 0
 532.81 733.318 496.273 740.475 454.84 740.475 c 0
 371.974 740.475 300.406 714.861 240.14 663.635 c 1
 252.193 661.375 275.17 653.089 309.07 638.775 c 0
 341.464 624.461 371.597 604.499 399.47 578.885 c 1
 376.87 572.858 351.634 558.921 323.76 537.075 c 0
 291.366 513.722 275.17 474.171 275.17 418.425 c 2
 275.17 148.355 l 2
 275.17 108.429 262.74 76.0352 237.88 51.1748 c 0
 212.267 23.3018 176.86 9.36523 131.66 9.36523 c 0
 88.7197 9.36523 54.8203 23.3018 29.96 51.1748 c 0
 3.59375 79.0488 -9.58984 112.948 -9.58984 152.875 c 0
 -9.58984 192.049 2.83984 225.195 27.7002 252.315 c 0
 53.3135 280.188 87.9658 294.125 131.66 294.125 c 0
 152 294.125 167.443 290.735 177.99 283.955 c 1
244.66 -288.955 m 0
 256.714 -280.669 269.896 -266.355 284.21 -246.015 c 0
 294.756 -230.195 301.536 -217.765 304.55 -208.725 c 1
 278.937 -188.385 250.687 -178.215 219.8 -178.215 c 0
 182.887 -178.215 161.04 -192.151 154.26 -220.025 c 1
 154.26 -272.005 173.47 -299.125 211.89 -301.385 c 0
 223.943 -301.385 234.866 -297.241 244.66 -288.955 c 0
131.66 80.5547 m 0
 155.014 80.5547 173.47 87.7119 187.03 102.025 c 0
 199.084 116.338 205.11 133.288 205.11 152.875 c 0
 205.11 169.448 199.084 185.645 187.03 201.465 c 1
 173.47 215.025 155.014 221.805 131.66 221.805 c 0
 109.06 221.805 92.1104 215.025 80.8096 201.465 c 0
 66.4961 184.892 59.3398 168.695 59.3398 152.875 c 0
 59.3398 134.042 66.4961 117.845 80.8096 104.285 c 1
 91.3564 88.4648 108.307 80.5547 131.66 80.5547 c 0
EndSplineSet
MinimumDistance: x10,-1 
EndChar
StartChar: uni0E10
Encoding: 176 3600
OldEncoding: 3600
Width: 702
Flags: W
HStem: -288.08 20G<487.9 496.94> -270.34 55.37<458 472> -245.48 63.28<94 117> -104.23 58.7603<458 485> 224.6 70.06<230.949 261> 438.17 71.19<231.388 256> 678.86 84.75<574 596> 747.79 79.1<307 341>
VStem: -11.5596 62.1494<-309 -288> 103.7 70.06<360 378> 357.95 58.76<-168 -150> 485.64 97.18<218 426> 527.45 55.37<-168 -150>
Fore
244.95 509.36 m 0
 272.823 509.36 301.45 501.073 330.83 484.5 c 1
 357.95 465.666 377.914 443.066 390.72 416.7 c 2
 485.64 217.82 l 1
 485.64 407.66 l 2
 485.64 466.42 475.47 505.594 455.13 525.18 c 1
 437.804 545.52 403.15 564.354 351.17 581.68 c 1
 300.696 595.994 244.573 608.046 182.8 617.84 c 1
 127.054 629.894 83.7363 637.05 52.8496 639.31 c 1
 81.4766 689.783 119.144 734.606 165.85 773.78 c 1
 211.804 809.187 261.9 826.89 316.14 826.89 c 0
 350.04 826.89 376.406 824.254 395.24 818.98 c 2
 474.34 794.12 l 1
 543.27 770.39 l 2
 559.844 765.87 576.794 763.61 594.12 763.61 c 0
 621.24 763.61 648.36 770.014 675.48 782.82 c 1
 693.56 701.46 l 1
 655.894 686.394 621.24 678.86 589.6 678.86 c 0
 568.506 678.86 550.05 681.12 534.23 685.64 c 2
 459.65 710.5 l 1
 381.68 738.75 l 2
 362.847 744.776 342.13 747.79 319.53 747.79 c 0
 299.19 747.79 275.084 741.764 247.21 729.71 c 1
 223.104 715.396 209.92 704.474 207.66 696.94 c 1
 253.99 685.64 l 1
 337.61 661.91 l 1
 414.45 643.83 l 2
 490.536 624.244 537.244 598.63 554.57 566.99 c 1
 573.403 537.61 582.82 486.006 582.82 412.18 c 2
 582.82 25.7197 l 1
 467.56 25.7197 l 1
 460.026 70.167 444.584 120.264 421.23 176.01 c 0
 394.863 235.523 376.03 275.073 364.73 294.66 c 1
 358.704 275.073 343.637 258.124 319.53 243.81 c 0
 297.684 231.004 272.823 224.6 244.95 224.6 c 0
 200.504 224.6 165.85 238.536 140.99 266.41 c 0
 116.13 295.79 103.7 328.937 103.7 365.85 c 0
 103.7 408.036 116.13 441.937 140.99 467.55 c 0
 165.85 495.424 200.504 509.36 244.95 509.36 c 0
487.9 -316.67 m 1
 494.68 -294.07 l 1
 496.94 -268.08 l 1
 487.9 -268.08 l 1
 472.08 -270.34 l 1
 436.674 -270.34 408.8 -259.416 388.46 -237.57 c 0
 368.12 -217.23 357.95 -191.994 357.95 -161.86 c 0
 357.95 -135.494 368.874 -108.374 390.72 -80.5 c 1
 411.813 -57.1465 438.934 -45.4697 472.08 -45.4697 c 0
 505.227 -45.4697 531.97 -55.6396 552.31 -75.9805 c 0
 572.65 -96.3203 582.82 -124.946 582.82 -161.86 c 2
 582.82 -298.59 l 2
 582.82 -314.41 580.56 -327.594 576.04 -338.14 c 1
 569.26 -347.934 560.597 -355.467 550.05 -360.74 c 1
 516.15 -383.34 l 1
 448.35 -422.89 l 1
 360.21 -365.26 l 1
 267.55 -418.37 l 1
 222.35 -334.75 l 1
 196.736 -386.73 154.927 -411.59 96.9199 -409.33 c 0
 29.873 -407.07 -6.28711 -373.924 -11.5596 -309.89 c 0
 -11.5596 -289.55 l 0
 -11.5596 -260.17 0.493164 -234.557 24.5996 -212.71 c 0
 47.9531 -192.37 75.8262 -182.2 108.22 -182.2 c 0
 135.34 -182.2 164.72 -191.616 196.36 -210.45 c 1
 198.62 -201.41 203.14 -184.46 209.92 -159.6 c 1
 214.44 -133.986 216.7 -99.334 216.7 -55.6396 c 1
 289.02 -55.6396 l 1
 289.02 -136.246 276.59 -206.307 251.73 -265.82 c 1
 289.02 -321.19 l 1
 316.14 -307.63 l 1
 360.21 -281.64 l 1
 452.87 -340.4 l 1
 487.9 -316.67 l 1
472.08 -214.97 m 0
 488.653 -214.97 502.59 -209.696 513.89 -199.15 c 1
 522.93 -186.344 527.45 -173.16 527.45 -159.6 c 0
 527.45 -144.534 522.93 -131.35 513.89 -120.05 c 1
 502.59 -109.504 488.653 -104.23 472.08 -104.23 c 0
 451.74 -104.23 438.557 -109.504 432.53 -120.05 c 1
 421.983 -130.597 416.71 -143.78 416.71 -159.6 c 0
 416.71 -174.666 421.983 -187.85 432.53 -199.15 c 1
 438.557 -209.696 451.74 -214.97 472.08 -214.97 c 0
244.95 294.66 m 0
 269.057 294.66 286.76 301.44 298.06 315 c 0
 310.113 331.573 316.14 348.523 316.14 365.85 c 0
 316.14 385.437 310.113 402.387 298.06 416.7 c 0
 286.006 431.014 268.304 438.17 244.95 438.17 c 0
 223.104 438.17 206.153 431.014 194.1 416.7 c 0
 180.54 403.14 173.76 386.19 173.76 365.85 c 0
 173.76 347.017 180.54 330.82 194.1 317.26 c 1
 204.646 302.193 221.597 294.66 244.95 294.66 c 0
105.96 -245.48 m 0
 86.374 -245.48 72.4365 -250.754 64.1504 -261.3 c 0
 55.1104 -272.6 50.5898 -285.03 50.5898 -298.59 c 0
 50.5898 -310.644 55.1104 -321.19 64.1504 -330.23 c 1
 72.4365 -341.53 86.374 -347.18 105.96 -347.18 c 0
 120.273 -347.18 132.704 -342.283 143.25 -332.49 c 0
 152.29 -324.956 160.576 -315.164 168.11 -303.11 c 1
 178.28 -281.64 l 1
 176.773 -279.38 168.11 -271.847 152.29 -259.04 c 0
 140.99 -250 125.546 -245.48 105.96 -245.48 c 0
EndSplineSet
MinimumDistance: x28,-1 
EndChar
StartChar: uni0E11
Encoding: 177 3601
OldEncoding: 3601
Width: 1032
Flags: W
HStem: -0.0849609 21G<338.95 436.13 815.81 912.99> 351.345 72.32<116 134> 567.175 66.67<116 125> 698.255 88.14<756 766>
VStem: -42.9902 92.6601<494.855 545.705> 193.18 74.58<490 509> 338.95 97.18<14 32 378 518> 424.83 83.62<651 666> 815.81 97.18<14 630>
Fore
338.95 -0.0849609 m 1
 338.95 507.285 l 2
 338.95 535.911 341.964 557.381 347.99 571.695 c 0
 354.77 582.995 363.434 594.671 373.98 606.725 c 1
 411.27 633.845 l 2
 420.31 640.625 424.83 649.289 424.83 659.835 c 0
 424.83 673.395 417.296 688.085 402.23 703.905 c 1
 384.15 718.972 369.46 727.259 358.16 728.765 c 1
 263.24 664.355 l 1
 151.37 728.765 l 1
 118.977 721.985 94.4941 705.035 77.9199 677.915 c 1
 59.0859 653.809 49.6699 630.831 49.6699 608.985 c 1
 51.1768 611.245 59.0859 616.519 73.4004 624.805 c 0
 83.1934 630.831 100.144 633.845 124.25 633.845 c 0
 164.177 631.585 198.076 619.908 225.95 598.815 c 0
 253.823 575.461 267.76 540.055 267.76 492.595 c 0
 267.76 450.408 252.316 415.755 221.43 388.635 c 0
 191.296 363.775 158.15 351.345 121.99 351.345 c 0
 74.5303 351.345 34.9805 369.049 3.33984 404.455 c 0
 -27.5469 440.615 -42.9902 487.698 -42.9902 545.705 c 0
 -42.9902 585.631 -37.3398 618.778 -26.04 645.145 c 1
 -14.7402 690.345 12.0029 728.389 54.1904 759.275 c 0
 94.8701 787.148 130.653 801.085 161.54 801.085 c 1
 263.24 737.805 l 1
 352.51 801.085 l 1
 392.437 788.278 428.22 769.445 459.86 744.585 c 0
 492.254 718.972 508.45 688.461 508.45 653.055 c 0
 508.45 634.975 505.437 621.791 499.41 613.505 c 2
 473.42 582.995 l 1
 463.626 574.709 454.21 563.785 445.17 550.225 c 0
 439.144 540.432 436.13 524.235 436.13 501.635 c 2
 436.13 377.335 l 1
 447.43 406.715 466.64 453.045 493.76 516.325 c 0
 517.866 569.812 556.664 629.701 610.15 695.995 c 0
 658.363 756.262 709.966 786.395 764.96 786.395 c 0
 813.927 786.395 850.84 768.691 875.7 733.285 c 0
 900.56 700.139 912.99 658.705 912.99 608.985 c 2
 912.99 -0.0849609 l 1
 815.81 -0.0849609 l 1
 815.81 608.985 l 2
 815.81 668.499 796.6 698.255 758.18 698.255 c 0
 730.307 698.255 699.42 674.525 665.52 627.065 c 0
 624.086 569.812 588.68 508.791 559.3 444.005 c 1
 519.374 363.398 489.994 286.182 471.16 212.355 c 1
 447.807 135.515 436.13 64.7012 436.13 -0.0849609 c 1
 338.95 -0.0849609 l 1
121.99 567.175 m 0
 99.3896 567.175 82.4404 560.019 71.1396 545.705 c 1
 56.8262 532.145 49.6699 515.195 49.6699 494.855 c 0
 49.6699 476.775 56.8262 460.579 71.1396 446.265 c 1
 81.6865 431.198 98.6367 423.665 121.99 423.665 c 0
 146.097 423.665 163.8 430.445 175.1 444.005 c 1
 187.153 462.085 193.18 479.035 193.18 494.855 c 0
 193.18 514.441 187.153 531.392 175.1 545.705 c 0
 163.8 560.019 146.097 567.175 121.99 567.175 c 0
EndSplineSet
MinimumDistance: x36,-1 
EndChar
StartChar: uni0E12
Encoding: 178 3602
OldEncoding: 3602
Width: 1098
Flags: W
HStem: 0.695312 21G<124.465 221.645 883.825 978.745> 528.405 71.1899<327 345> 767.175 20G<883.825 978.745>
VStem: -7.74512 85.8799<498 516> 188.875 72.32<450 468> 404.705 68.93<450 468> 448.775 66.67<130 147> 568.555 97.18<92 196 288 560> 883.825 94.92<142 772>
DStem: 226.165 720.505 217.125 801.865 305.265 669.655 351.595 711.465 482.675 801.865 478.155 720.505 351.595 711.465 351.595 636.885
Fore
568.555 289.975 m 1
 568.555 521.625 l 2
 568.555 575.865 563.281 615.791 552.735 641.405 c 0
 542.941 666.265 518.081 692.631 478.155 720.505 c 1
 351.595 636.885 l 1
 305.265 669.655 l 1
 226.165 720.505 l 1
 127.479 670.031 78.1348 597.335 78.1348 502.415 c 0
 78.1348 436.875 101.865 364.555 149.325 285.455 c 0
 180.211 231.969 195.655 196.562 195.655 179.235 c 1
 212.229 212.381 229.932 242.515 248.765 269.635 c 0
 267.599 294.495 282.289 311.445 292.835 320.485 c 1
 260.441 329.525 235.205 347.229 217.125 373.595 c 1
 198.291 397.701 188.875 426.329 188.875 459.475 c 0
 188.875 498.648 201.305 531.795 226.165 558.915 c 0
 251.778 586.035 287.185 599.595 332.385 599.595 c 0
 377.585 599.595 412.238 585.281 436.345 556.655 c 0
 461.205 527.275 473.635 492.999 473.635 453.825 c 0
 473.635 434.238 469.869 415.028 462.335 396.195 c 0
 455.555 380.375 445.385 365.685 431.825 352.125 c 2
 392.275 310.315 l 1
 360.635 274.155 335.398 241.762 316.565 213.135 c 0
 292.459 179.988 273.249 147.595 258.935 115.955 c 0
 240.855 79.042 228.425 40.6221 221.645 0.695312 c 1
 124.465 0.695312 l 1
 135.012 17.2686 140.285 37.9854 140.285 62.8447 c 0
 140.285 82.4316 131.999 118.215 115.425 170.195 c 0
 112.411 179.235 98.4746 209.745 73.6152 261.725 c 1
 45.7412 310.691 25.7783 353.255 13.7246 389.415 c 0
 -0.587891 427.835 -7.74512 470.398 -7.74512 517.105 c 0
 -5.48535 579.631 17.1152 635.755 60.0547 685.475 c 0
 100.735 733.688 153.091 772.485 217.125 801.865 c 1
 351.595 711.465 l 1
 482.675 801.865 l 1
 536.915 775.499 576.465 749.885 601.325 725.025 c 0
 626.185 698.658 643.135 670.785 652.175 641.405 c 0
 661.215 612.025 665.735 572.099 665.735 521.625 c 2
 665.735 287.715 l 1
 698.881 281.688 738.432 265.491 784.385 239.125 c 1
 827.325 210.499 860.472 178.105 883.825 141.945 c 1
 883.825 787.175 l 1
 978.745 787.175 l 1
 978.745 0.695312 l 1
 883.825 0.695312 l 1
 830.339 111.435 757.642 181.495 665.735 210.875 c 1
 665.735 88.835 l 2
 665.735 21.0352 634.849 -12.8652 573.075 -12.8652 c 0
 534.655 -12.8652 504.521 2.57812 482.675 33.4648 c 0
 460.075 62.8447 448.775 99.7588 448.775 144.205 c 0
 448.775 184.131 459.321 218.031 480.415 245.905 c 0
 500.755 273.025 530.135 287.715 568.555 289.975 c 1
332.385 528.405 m 0
 310.539 528.405 292.835 521.625 279.275 508.065 c 1
 267.222 489.985 261.195 472.658 261.195 456.085 c 0
 261.195 439.512 267.222 423.315 279.275 407.495 c 0
 292.081 392.429 309.785 384.895 332.385 384.895 c 0
 356.491 384.895 374.195 391.675 385.495 405.235 c 0
 398.302 420.302 404.705 437.251 404.705 456.085 c 0
 404.705 475.671 398.302 492.999 385.495 508.065 c 0
 374.195 521.625 356.491 528.405 332.385 528.405 c 0
568.555 93.3555 m 1
 568.555 223.305 l 1
 533.148 215.019 515.445 185.639 515.445 135.165 c 0
 515.445 120.099 519.211 106.162 526.745 93.3555 c 1
 536.539 81.3018 545.201 75.2754 552.735 75.2754 c 0
 561.021 75.2754 566.295 81.3018 568.555 93.3555 c 1
EndSplineSet
MinimumDistance: x41,-1 
EndChar
StartChar: uni0E13
Encoding: 179 3603
OldEncoding: 3603
Width: 1066
Flags: W
HStem: -14.9951 77.9697<897 916> -12.7354 71.1905<192 222> 0.825195 21G<502.57 599.75> 199.705 72.32<192 210> 729.675 72.32<300 348> 767.305 20G<800.89 898.07>
VStem: 63 71.19<117.671 141> 63 97.18<262 434> 277.7 67.8<117.306 141> 502.57 97.18<171 594> 800.89 97.18<78 242 339 786> 977.17 71.19<144 180>
Fore
63 130.775 m 2
 63 409.885 l 2
 63 500.285 95.3936 556.785 160.18 579.385 c 1
 94.6396 618.935 l 1
 74.2998 629.481 36.6338 642.665 -18.3604 658.485 c 1
 -1.0332 682.592 35.127 712.725 90.1201 748.885 c 0
 145.866 784.291 219.316 801.995 310.47 801.995 c 0
 503.323 801.995 599.75 727.791 599.75 579.385 c 2
 599.75 170.325 l 1
 653.236 253.945 720.284 308.562 800.89 334.175 c 1
 800.89 787.305 l 1
 898.07 787.305 l 1
 898.07 340.955 l 1
 947.036 334.175 983.95 316.472 1008.81 287.845 c 0
 1035.18 256.959 1048.36 214.395 1048.36 160.155 c 0
 1048.36 103.655 1032.92 60.7148 1002.03 31.335 c 1
 972.65 0.448242 937.996 -14.9951 898.07 -14.9951 c 0
 869.443 -14.9951 846.466 -7.46191 829.14 7.60547 c 0
 810.307 23.4248 800.89 44.8945 800.89 72.0146 c 2
 800.89 255.075 l 1
 745.144 234.735 699.566 196.315 664.16 139.815 c 1
 628.754 87.082 607.284 40.752 599.75 0.825195 c 1
 502.57 0.825195 l 1
 502.57 579.385 l 2
 502.57 629.105 486.374 666.771 453.98 692.385 c 0
 422.34 717.245 379.023 729.675 324.03 729.675 c 0
 253.216 729.675 185.416 710.465 120.63 672.045 c 1
 132.684 668.278 157.166 657.355 194.08 639.275 c 0
 227.227 624.209 258.866 602.738 289 574.865 c 1
 276.946 574.865 262.256 571.852 244.93 565.825 c 0
 228.356 559.799 209.146 545.108 187.3 521.755 c 1
 169.22 495.389 160.18 459.981 160.18 415.535 c 2
 160.18 261.855 l 1
 166.206 268.635 182.403 272.025 208.77 272.025 c 0
 250.204 272.025 284.104 258.089 310.47 230.215 c 1
 333.823 200.835 345.5 167.688 345.5 130.775 c 0
 345.5 92.3555 333.823 59.208 310.47 31.335 c 0
 285.61 1.95508 251.71 -12.7354 208.77 -12.7354 c 0
 167.336 -12.7354 132.684 0.448242 104.81 26.8154 c 0
 76.9365 51.6748 63 86.3281 63 130.775 c 2
898.07 88.9648 m 2
 898.07 71.6387 904.097 62.9746 916.15 62.9746 c 0
 931.216 62.9746 944.4 72.3916 955.7 91.2246 c 1
 970.014 106.292 977.17 129.269 977.17 160.155 c 0
 977.17 224.188 950.804 259.972 898.07 267.505 c 1
 898.07 88.9648 l 2
206.51 58.4551 m 0
 230.616 58.4551 248.32 65.6113 259.62 79.9248 c 0
 271.674 94.2383 277.7 111.188 277.7 130.775 c 0
 277.7 147.349 271.674 163.545 259.62 179.365 c 1
 245.307 192.925 227.604 199.705 206.51 199.705 c 0
 183.91 199.705 166.96 192.925 155.66 179.365 c 1
 141.347 165.052 134.19 148.855 134.19 130.775 c 0
 134.19 111.188 140.594 94.2383 153.4 79.9248 c 0
 166.96 65.6113 184.664 58.4551 206.51 58.4551 c 0
EndSplineSet
MinimumDistance: x14,-1 
EndChar
StartChar: uni0E14
Encoding: 180 3604
OldEncoding: 3604
Width: 803
Flags: W
HStem: -0.344727 21G<142.363 239.543 586.453 683.634> 527.365 71.19<336.198 365> 733.025 72.3199<347 403>
VStem: 206.773 72.321<446 464> 422.604 68.929<446 464> 586.453 97.181<14 544>
Fore
98.293 511.545 m 0
 96.0332 445.251 119.01 371.049 167.224 288.935 c 0
 195.097 240.722 209.033 200.795 209.033 169.155 c 1
 232.387 213.602 251.597 244.865 266.663 262.945 c 2
 310.733 319.445 l 1
 278.34 328.485 253.104 346.188 235.023 372.555 c 1
 216.189 396.661 206.773 425.289 206.773 458.435 c 0
 206.773 497.608 219.203 530.755 244.063 557.875 c 0
 269.677 584.995 305.083 598.555 350.283 598.555 c 0
 395.483 598.555 430.137 584.241 454.243 555.615 c 0
 479.104 526.235 491.533 491.959 491.533 452.785 c 0
 491.533 433.198 487.768 413.988 480.233 395.155 c 0
 473.453 379.335 463.283 364.645 449.724 351.085 c 2
 410.174 309.275 l 1
 378.533 273.115 353.297 240.722 334.464 212.095 c 0
 310.357 178.948 291.147 146.555 276.833 114.915 c 0
 258.753 78.002 246.323 39.582 239.543 -0.344727 c 1
 142.363 -0.344727 l 1
 152.91 16.2285 158.184 36.9453 158.184 61.8047 c 0
 158.184 81.3916 149.897 117.175 133.323 169.155 c 0
 124.283 192.509 109.594 223.771 89.2529 262.945 c 0
 63.6396 308.898 45.1836 351.461 33.8838 390.635 c 1
 17.3096 434.329 10.1533 476.139 12.4131 516.065 c 0
 14.6738 592.905 47.0664 661.459 109.594 721.725 c 0
 167.6 777.472 254.233 805.345 369.493 805.345 c 0
 578.92 805.345 683.634 710.425 683.634 520.585 c 2
 683.634 -0.344727 l 1
 586.453 -0.344727 l 1
 586.453 525.105 l 2
 586.453 586.125 572.518 636.222 544.644 675.395 c 0
 518.277 713.815 459.894 733.025 369.493 733.025 c 0
 291.899 733.025 227.867 712.309 177.394 670.875 c 0
 124.66 627.182 98.293 574.071 98.293 511.545 c 0
350.283 527.365 m 0
 328.438 527.365 310.733 520.585 297.174 507.025 c 1
 285.12 488.945 279.094 471.619 279.094 455.045 c 0
 279.094 438.472 285.12 422.275 297.174 406.455 c 0
 309.979 391.389 327.684 383.855 350.283 383.855 c 0
 374.39 383.855 392.094 390.635 403.394 404.195 c 0
 416.199 419.262 422.604 436.211 422.604 455.045 c 0
 422.604 474.631 416.199 491.959 403.394 507.025 c 0
 392.094 520.585 374.39 527.365 350.283 527.365 c 0
EndSplineSet
MinimumDistance: x25,-1 
EndChar
StartChar: uni0E15
Encoding: 181 3605
OldEncoding: 3605
Width: 803
Flags: W
HStem: -0.0849609 21G<142.47 239.65 586.56 683.74> 527.625 71.19<345 363>
VStem: 10.2598 85.8798<494 516> 206.88 72.32<446 464> 422.71 68.93<446 464> 586.56 97.18<14 559>
DStem: 244.17 719.725 235.13 801.085 323.27 668.875 369.6 710.685 500.68 801.085 496.16 719.725 369.6 710.685 369.6 636.105
Fore
213.66 178.455 m 1
 230.233 211.602 247.937 241.735 266.77 268.855 c 0
 285.604 293.715 300.294 310.665 310.84 319.705 c 1
 278.446 328.745 253.21 346.448 235.13 372.815 c 1
 216.296 396.921 206.88 425.549 206.88 458.695 c 0
 206.88 497.869 219.31 531.015 244.17 558.135 c 0
 269.784 585.255 305.19 598.815 350.39 598.815 c 0
 395.59 598.815 430.244 584.501 454.35 555.875 c 0
 479.21 526.495 491.64 492.219 491.64 453.045 c 0
 491.64 433.459 487.874 414.249 480.34 395.415 c 0
 473.56 379.595 463.39 364.905 449.83 351.345 c 2
 410.28 309.535 l 1
 378.64 273.375 353.403 240.981 334.57 212.355 c 0
 310.464 179.209 291.254 146.815 276.94 115.175 c 0
 258.86 78.2617 246.43 39.8418 239.65 -0.0849609 c 1
 142.47 -0.0849609 l 1
 153.017 16.4883 158.29 37.2051 158.29 62.0654 c 0
 158.29 81.6514 150.004 117.435 133.43 169.415 c 0
 130.416 178.455 116.48 208.965 91.6201 260.945 c 1
 63.7471 309.911 43.7832 352.475 31.7305 388.635 c 0
 17.417 427.055 10.2598 469.619 10.2598 516.325 c 0
 12.5195 578.852 35.1201 634.975 78.0596 684.695 c 0
 118.74 732.908 171.097 771.705 235.13 801.085 c 1
 369.6 710.685 l 1
 500.68 801.085 l 1
 554.92 774.719 594.47 749.105 619.33 724.245 c 0
 644.19 697.879 661.14 670.005 670.18 640.625 c 0
 679.22 611.245 683.74 571.318 683.74 520.845 c 2
 683.74 -0.0849609 l 1
 586.56 -0.0849609 l 1
 586.56 520.845 l 2
 586.56 575.085 581.286 615.012 570.74 640.625 c 0
 560.946 665.485 536.086 691.852 496.16 719.725 c 1
 369.6 636.105 l 1
 323.27 668.875 l 1
 244.17 719.725 l 1
 145.483 669.251 96.1396 596.555 96.1396 501.635 c 0
 96.1396 436.095 119.87 363.775 167.33 284.675 c 0
 198.216 231.188 213.66 195.781 213.66 178.455 c 1
350.39 527.625 m 0
 328.544 527.625 310.84 520.845 297.28 507.285 c 1
 285.227 489.205 279.2 471.879 279.2 455.305 c 0
 279.2 438.731 285.227 422.535 297.28 406.715 c 0
 310.086 391.648 327.79 384.115 350.39 384.115 c 0
 374.496 384.115 392.2 390.895 403.5 404.455 c 0
 416.307 419.521 422.71 436.472 422.71 455.305 c 0
 422.71 474.892 416.307 492.219 403.5 507.285 c 0
 392.2 520.845 374.496 527.625 350.39 527.625 c 0
EndSplineSet
MinimumDistance: x27,-1 
EndChar
StartChar: uni0E16
Encoding: 182 3606
OldEncoding: 3606
Width: 795
Flags: W
HStem: -12.8652 71.1904<215 233> 0.695312 21G<578.43 675.61> 199.575 72.32<215 233> 718.245 83.62<334 389>
VStem: 85.75 71.19<117.56 132> 85.75 97.18<262 404> 300.45 67.8<117.194 132> 578.43 97.18<2 564>
Fore
85.75 130.645 m 2
 85.75 391.675 l 2
 85.75 436.121 94.0361 471.528 110.61 497.895 c 1
 130.196 522.001 152.796 539.705 178.41 551.005 c 1
 165.604 561.551 145.264 573.981 117.39 588.295 c 0
 85.75 606.375 48.083 616.545 4.38965 618.805 c 1
 25.4834 649.691 66.54 688.111 127.56 734.065 c 0
 189.334 779.265 266.927 801.865 360.34 801.865 c 0
 416.84 801.865 470.326 792.449 520.8 773.615 c 0
 567.506 756.289 605.174 727.661 633.8 687.735 c 0
 661.674 648.562 675.61 601.479 675.61 546.485 c 2
 675.61 0.695312 l 1
 578.43 0.695312 l 1
 578.43 546.485 l 2
 578.43 583.398 568.26 613.531 547.92 636.885 c 1
 529.84 663.251 504.604 683.215 472.21 696.775 c 0
 440.57 711.089 404.034 718.245 362.6 718.245 c 0
 279.733 718.245 208.166 692.631 147.9 641.405 c 1
 159.954 639.145 182.93 630.858 216.83 616.545 c 0
 249.224 602.231 279.356 582.269 307.23 556.655 c 1
 284.63 550.629 259.394 536.691 231.52 514.845 c 0
 199.126 491.491 182.93 451.941 182.93 396.195 c 2
 182.93 261.725 l 1
 188.956 268.505 205.153 271.895 231.52 271.895 c 0
 272.954 271.895 306.854 257.959 333.22 230.085 c 1
 356.573 200.705 368.25 167.559 368.25 130.645 c 0
 368.25 92.2246 356.573 59.0781 333.22 31.2051 c 0
 308.36 1.8252 274.46 -12.8652 231.52 -12.8652 c 0
 190.086 -12.8652 155.434 0.318359 127.56 26.6846 c 0
 99.6865 51.5449 85.75 86.1982 85.75 130.645 c 2
229.26 58.3252 m 0
 253.366 58.3252 271.07 65.4814 282.37 79.7949 c 0
 294.424 94.1084 300.45 111.059 300.45 130.645 c 0
 300.45 147.219 294.424 163.415 282.37 179.235 c 1
 268.057 192.795 250.354 199.575 229.26 199.575 c 0
 206.66 199.575 189.71 192.795 178.41 179.235 c 1
 164.097 164.921 156.94 148.725 156.94 130.645 c 0
 156.94 111.059 163.344 94.1084 176.15 79.7949 c 0
 189.71 65.4814 207.414 58.3252 229.26 58.3252 c 0
EndSplineSet
MinimumDistance: x10,-1 
EndChar
StartChar: uni0E17
Encoding: 183 3607
OldEncoding: 3607
Width: 806
Flags: W
HStem: 0.174805 21G<186.77 283.95 663.63 760.81> 512.065 68.93<128.238 144> 698.515 88.14<606 614> 724.505 72.32<127.533 144>
VStem: -0.80957 71.1895<641.564 657> 186.77 97.18<15 33 378 514> 213.89 70.06<640.814 657> 663.63 97.18<15 629>
Fore
186.77 0.174805 m 1
 186.77 518.845 l 1
 175.47 514.325 160.78 512.065 142.7 512.065 c 0
 97.5 512.065 62.8467 526.755 38.7402 556.135 c 1
 12.373 584.009 -0.80957 617.155 -0.80957 655.575 c 0
 -0.80957 693.241 12.373 726.389 38.7402 755.015 c 0
 64.3535 782.889 99.0059 796.825 142.7 796.825 c 0
 168.313 796.825 193.174 790.421 217.28 777.615 c 0
 238.374 765.562 255.323 748.611 268.13 726.765 c 0
 278.677 707.932 283.95 683.449 283.95 653.315 c 2
 283.95 377.595 l 1
 337.06 492.855 l 1
 358.153 544.081 383.014 591.165 411.64 634.105 c 0
 443.28 680.812 474.92 717.725 506.56 744.845 c 0
 537.446 772.719 572.854 786.655 612.78 786.655 c 0
 646.68 786.655 674.177 778.369 695.27 761.795 c 1
 716.363 742.961 732.56 720.361 743.86 693.995 c 0
 755.16 671.395 760.81 643.145 760.81 609.245 c 2
 760.81 0.174805 l 1
 663.63 0.174805 l 1
 663.63 609.245 l 2
 663.63 668.759 645.174 698.515 608.26 698.515 c 0
 581.894 698.515 551.006 674.785 515.6 627.325 c 0
 474.92 574.592 438.384 513.571 405.99 444.265 c 0
 366.063 361.398 337.06 284.182 318.98 212.615 c 1
 295.626 135.775 283.95 64.9619 283.95 0.174805 c 1
 186.77 0.174805 l 1
142.7 724.505 m 0
 118.594 724.505 100.89 717.725 89.5898 704.165 c 0
 76.7842 687.592 70.3799 670.642 70.3799 653.315 c 0
 70.3799 635.988 76.7842 619.791 89.5898 604.725 c 1
 100.137 588.905 117.84 580.995 142.7 580.995 c 0
 167.56 580.995 185.264 588.905 195.81 604.725 c 1
 207.863 619.039 213.89 635.235 213.89 653.315 c 0
 213.89 671.395 207.863 688.345 195.81 704.165 c 0
 184.51 717.725 166.807 724.505 142.7 724.505 c 0
EndSplineSet
MinimumDistance: x17,-1 
EndChar
